<?xml version="1.0" encoding="UTF-8"?>
<svg id="uk-nations" xmlns="http://www.w3.org/2000/svg" viewBox="-23.499781076957092 141.65591365266275 680.98195 1124.10815">
   <g id="exempt" style="fill:rgb(204, 204, 204)">
    <path id="path2633" d="M327.751,195.791c-.531.048-.866.628-.915,2.345,5.479,4.403-1.406,2.841-4.433,3.232-2.709-.156-3.074-2.536-7.236-1.516-4.552,4.747-9.773,5.63-15.731,4.719-1.198-6.573-2.188,3.603-5.835-.171-1.641,3.156-3.66.474-5.092,3.147-.094.146-6.525-1.764-8.266,3.003-.787,3.868-4.382,5.888-1.63.544,6.844-4.648-8.232-11.613-6.064-4.606-3.529,2.205-4.394,7.375-7.637,8.266,2.049-4.151,7.402-9.336.801-10.983-2.122-4.74-.387-.161-2.917.858-.805-4.087-5.458-3.964-8.638-5.435-.799,1.886.021,4.25-1.001,6.121-4.09,2.803-4.978,7.928.343,8.753,3.797,3.654-3.941-.8-3.403,3.146-.918.474,6.211,4.262.429,2.202-3.063-3.435-4.481,6.649-2.489,6.321-2.277,3.512,8.994,6.209,7.866,6.236.649,3.005-.7.177-3.261.114-3.283-2.948-4.48.986-7.551.172-3.573,3.36-6.954-1.931-8.753.458,2.65,2.816,3.264,7.319,7.151,8.208-1.816,1.716-.268,1.877-1.602,3.061,3.348,4.261-2.635,2.71-4.376,3.719-1.601-4.861-6.626-1.889-2.66,1.401,2.203,2.443,6.273,6.397,10.611,8.209-2.209,3.142,1.406,4.652,4.319,7.007,2.22,5.725-.002.72-2.746-.715-2.28-3.865-6.826-1.077-8.237-4.634-5.486-.363.189,2.926,2.46,4.891,6.245,3.027-1.379,2.458-3.089-1.03-5.194-5.023-3.118,6.922-8.352,1.688-.044-4.001-4.717-6.499-5.006-1.345,1.189,2.217,4.67,7.149,2.116,8.123-.587,1.238-1.521,2.633-2.86-1.316.027-5.509-2.546-5.433-6.893-4.919.742,3.796-1.654,11.928,4.777,11.641,4.047,4.694-2.805.28-3.432,3.461-3.827,4.207,2.7,4.481,2.746,8.667,2.208,1.511,1.868,3.245,6.778,2.489,6.729,2.622-5.377.288-3.117,3.003-2.122.4-2.711-3.997-4.748-2.717-4.26-7.018-6.317,3.708-5.205,8.438,3.402.134,2.326,2.976,2.317,4.919-1.112,6.125,6.68,1.777,8.924-1.087-2.784,5.977,4.989,3.091,7.151-1.058,1.636,2.198-5.891,6.811-9.582,6.493-6.623,4.312,1.615,5.957,5.578,5.006,1.564,1.878,7.023,4.215,6.492,4.862-4.329-.257-6.007-6.087-10.554-2.459.35,2.877-.588,4.581-2.403,7.637,2.685,1.332,6.45,2.162,7.723,4.633,6.111-1.748,1.21,1.678-2.003.315-3.129-5.969-13.636,1.3-8.581,5.205,4.734-2.675,1.808,5.114,6.893,3.633,6.605-2.273.187,1.583-2.746,1.087-2.437-2.365-7.741-5.33-8.38.4-1.689,2.511-.255,5.753-1.573,6.236-5.783,1.992,4.162,1.068,6.778.915-5.157,1.546.588,4.445,2.031.629,1.959,3.576-7.806,1.942-7.866,5.377,4.932,1.287,2.873,3.938-.343,3.232-.653.108-1.33,3.765-4.061.143-4.03,1.246-9.976.268-12.642,3.69h.029c-.683,6.291,8.983,2.777,12.27,4.033,4.119,2.403,7.149-2.409,10.926-2.088,2.211,2.918,11.344.208,3.975,2.489-4.298-2.219-7.701-1.132-11.04,2.23-7.78-2.809-6.166,5.28-1.03,8.266,4.942,1.044,5.626,1.21,9.01,3.804,5.947.422,9.003-10.284,13.614-11.583,1.766-4.251,5.653-4.252,7.036-7.78.124-1.396,6.678-8.41,5.263-5.148-2.809,3.538-8.052,9.423-.2,9.467,5.746-3.261.765,2.193-2.489,0-5.474.251-4.717,3.638-7.522,5.921-2.325,2.609-3.72,8.892,1.23,5.978,5.927-2.907,1.427.867-1.602,2.031-3.478-3.341-6.067,6.165-3.203,1.602.844,1.516,2.219,3.53,4.89,3.003,7.876,1.16-3.289.444-5.148.429-2.664,5.332-7.14,9.118-6.979,15.76.469,2.954,2.977,3.528.2,6.835-2.894,6.447.814,2.554,2.946-.829,1.593,1.474-3.736,6.469-.401,8.209-4.232-1.118-4.909,5.377-7.665,8.523-.576,6.449,1.341-.005,3.175-2.288,4.162-6.244,1.89,1.954-1.917,5.206-2.763,5.047,1.56,4.62,3.833.972.765,1.264-6.561,7.771-2.66,11.469,2.619,4.437,6.007-1.499,8.523-4.576-.323,4.171-7.045,7.911-8.781,12.814-1.734,4.836-3.475,11.467-2.774,17.562-1.338,4.343-6.25,7.306-4.662,13.014,4.59,2.68,15.679-1.116,13.042-7.723-3.686-2.12-.352-3.183.515-6.55.438-3.407,3.062-7.315,2.088-9.467-1.895-5.391,3.096-11.639,7.208-14.616-3.022-6.576-6.339-11.616-6.007-19.048,1.192,2.049,4.974-.065,6.035-3.232,1.54-6.242,9.715-6.728,10.783-12.928.902-.32,7.5-5.134,6.178-2.489-5.745,1.559-5.138,7.63-10.125,9.324-3.818,3.385-8.461,8.999-8.409,14.101-1.206,4.977,1.495,9.593,6.55,10.468-1.913-3.904-.53-6.647.4-10.554.252,1.601,7.614,8.079,4.634.915,1.685-4.506.786,7.126,3.832,7.493,3.252-1.525,4.58-9.248,3.89-10.725,2.219-.271,1.903-7.606.744-10.125.499-7.743.324,5.622,3.203-.257.709.683-4.084,7.688-.286,10.668,6.612,1.902.545-2.965.315-5.949,2.881,2.446,7.643,9.858,14.044,10.068,3.739,1.773-6.172-.299-8.352-.343-6.973-5.607-10.15,4.613-8.352,10.554,5.045,4.143-4.431,8.589,2.202,10.84,1.07,4.206,9.306,3.612,8.237,9.582.296.966,4.164,5.04,1.373,8.408-5.691.715-5.589,6.507-9.01,9.639,1.079,7.49-5.755,11.214-8.266,16.818-3.391,5.463-1.193,11.107,1.516,15.817-5.852,2.788-1.506-9.675-7.294-7.522-5.402,5.942,2.108,14.84,6.121,19.22,4.083,2.571.143,8.905,6.15,10.24,1.143-1.019-.28-5.278-1.917-7.751-2.987-4.478-1.86-8.541,3.747-10.24,2.523,1.45,6.239,4.518,9.696,5.978,3.448,3.066,5.715,8.129,11.269,8.208,2.84-1.697-.855-7.194,1.459-8.494-1.431-2.842-5.933-5.654-2.403-9.067.974-.048,2.565,5.894,6.407,5.062,3.613-4.853,1.129,1.982,3.633,3.375,3.67,4.105,3.962.494,5.462-3.175-1.477,4.31,2.427,7.557,6.035,3.89,5.131-2.127,2.537-3.73,4.319-6.75-.208.808,1.933,2.608,5.234-.343,4.444.819,7.667-.636,6.321-5.634-1.347-4.908,1.604-1.034,2.746-2.918,2.666-.182,6.225.695,9.953,1.202,3.728.506,6.993-.321,10.525-.887,1.324-.212,1.611-.339,1.487-.458,3.026.193-5.086,3.589-.401,2.774-.697,5.29-8.704-2.878-11.24,2.774,2.635,1.15.965,4.811-1.917,2.46-2.014-.569-5.723,6.548-5.091,9.839-5.948,4.834-5.274,12.795-8.466,18.677,1.48,6.418,11.129,11.688,10.068,19.278,1.099,3.116,6.281,9.509,7.493,4.376,1.375-8.531,2.559,3.54-.086,4.147-.424,3.183.966,4.947,3.404,6.894.559.73,3.324-3.482,4.634-6.178,1.176-5.647,2.22-.44,4.862.114.934-1.564,7.755-5.632,4.977-2.517,3.767,4.844.706,7.576-2.774,11.097-.067,4.12,3.49,2.074,2.202,5.434,1.525,2.328-4.626,2.398-7.694,3.032-2.889,6.714-2.516,19.575,8.094,14.615-2.965,2.59-9.824,7.177-11.612,13.472,3.089,5.123,3.515,12.474,9.095,15.846,2.096,4.335,9.328-1.56,7.007,2.716-4.753,7.296-11.675-2.983-12.327-8.352-9.667-.883-5.384,10.172-4.033,12.671,1.005.941.98.938.972.915-1.462-.845-2.527-1.154-4.691-3.232-6.862-9.862-15.013,2.414-23.311.143-2.279-1.567-10.332-5.924-5.777-.486-3.401,1.742-10.156,5.358-15.13,5.578-2.273,2.174-5.62,8.781-7.466,8.123.002,4.421-3.029,8.723-7.122,11.64-5.483,2.883-10.263,6.582-12.414,12.585,1.58,1.39,2.648-1.413,4.977-.801,2.996-3.796,5.281,3.033,7.236.887-.825-6.299,7.664-9.048,13.558-8.638,6.18,1.748-.094,7.955,4.175,10.812.833,3.97,4.539,2.257,4.777,2.66-4.556,2.315-8.451,10.55-2.031,13.644,4.709-2.229,4.742.781.257,1.516-2.339,1.425-1.724,9.598-4.261,13.386-2.705,6.971-9.812,8.975-14.701,12.87-1.802,4.15-9.432.379-10.926,3.747-2.036-.076-3.083,4.499-6.521,5.092.744,4.5-4.044-.019-5.006,3.06-1.231-.285-7.361-3.721-6.149,1.202-1.693,3.332-7.565,3.799-9.782,6.235-2.418,5.384,5.067.078,7.922,3.805,2.106,4.619-.176,6.221-3.489,7.951-3.88.513.792,1.876,1.373,4.233-.035-5.035,6.422.131,10.011-1.917,7.43-1.195-2.73,2.501-4.233,1.745-1.293.57-5.807.033-.772,2.002-.014,2.886,3.609,4.924,6.493,3.719,1.981-4.168,6.947-1.408,9.61-3.805-.289-6.761,7.474-5.057,12.384-5.949-2.101-4.474,1.098.181,2.459-2.688-.17,1.55,5.058,5.372.658,3.689-1.388,2.717,4.59,5.077,7.579,3.404,1.771,3.701,7.91-1.722,5.12,2.403-4.167,3.481-6.961-1.071-9.496,2.86-.463,3.397,2.009,5.967,5.291,4.777,2.306-2.246,6.333-1.077,9.096-1.258-3.758-3.784,5.176-5.364,6.464-3.604,4.164,2.162,2.741,10.64,7.694,9.782,5.015,7.321,15.263,8.209,22.538,4.976-.739-5.094,5.149-7.008,8.267-10.668,2.217,2.126,7.196.16,10.754-1.716.164-.352.291-.705.4-1.001.002.051-.003.155,0,.2,5.003-2.511,8.046-9.801,13.986-11.784,1.782-3.227,3.725.029.315.829-5.466,4.261-8.987,11.43-12.842,17.304-5.102.2-8.408,7.774-11.498,8.781-.245,3.99-2.942,3.302-2.174,6.95,2.038,4.529-1.355,7.352-6.006,5.949-5.417,2.76-11.739,2.296-16.503-1.116-4.444.609-9.401-1.269-14.158-.343-5.197.962-16.118-.469-17.59,4.062-3.886,2.382,2.634,6.582-2.088,9.695-3.109,6.175-8.312.502-12.528,1.144-.039,2.399.589,4.897-.772,6.95-.011.016-.018.014-.028.028,1.195,6.546-2.036,11.468-6.15,15.559-5.049.794-1.856,8.768-8.323,7.952-3.471-.525-1.97,1.507-3.604,2.23-4.068-.976-3.895,4.979-5.034,9.325-5.581-.23-2.808,5.059-6.95,7.179-2.245,4.316-7.929,4.941-9.982,8.838-3.673-2.889-7.3,1.053-11.555,2.574-1.518,2.176-2.403,6.743-.2,8.381,7.036,2.898,5.043-8.273,10.64-5.32,6.879.381,8.3,6.413,11.097,10.897,1.023-.783,2.847-4.017,5.319-4.061,4.576-3.29-3.695-5.215.172-6.75,2.543-2.484.014-4,2.489-6.922.43-.028,1.121,4.406.972,5.006,1.783-2.941,3.585-3.832,5.978-5.578,4.506.295,4.483-3.025,5.291-6.12.756-4.045,4.033-.132,5.178-1.116,6.314,1.653,10.762-3.973,17.103-1.658,2.08,4.575,6.388-.054,2.059-1.087,5.436-2.056,5.193,7.031,10.869,4.319,4.371-1.835,5.753,6.739,9.41,5.72,3.76,1.795,6.616-.246,6.436-4.719,3.101-1.911,2.484-5.004,5.034-3.604,3.559-4.005-.644-3.443-.915-7.408,5.071-.418-.518-5.146,3.633-8.037,3.216-1.873-1.805-11.653,1.773-5.978,2.262,6.946,6.56-2.964,10.64-2.946,7.058,1.008,13.299-5.77,20.05-1.058,5.135,3.533,14.832,6.955,13.528,13.786.775-.59.71-1.836,1.602-2.403-2.309-2.759-1.446-8.553,4.205-6.235,6.421-.285,10.953,3.467,16.647,2.688,2.432-2.446,1.709-3.888,1.23-5.978-3.529.212-3.68-2.007-5.664-1.03-2.266-.792,2.228-2.291,4.49-1.973,1.121,5.322,5.154-2.958,9.381.2.446-.373.873-2.688,4.49-1.916,4.593,3.215,5.934-.493,10.097-2.346,6.947.361,5.958-5.718,1.345-8.266-6.605-3.609,2.047-.846,3.804,2.145,2.926.904,7.352,8.018,9.209,3.718-2.856-2.847-1.075-3.59,2.202-2.517-3.908,2.855,1.552,6.702,1.688.801,4.124-3.897.129,4.664,1.401,3.575,4.314,2.092.902-8.004,3.432-3.289-.372.23,5.048-.25,1.402,2.345-2.67,1.366,7.776,7.447,6.407,2.489,1.764-1.445,11.456-2.356,16.303-3.404,10.144-4.589,20.017,2.663,29.575,4.548,3.644-6.885,11.756-6.95,18.562-9.325,3.319-5.654,8.655-4.417,14.044-3.117-1.864-6.674,4.605-12.191,10.783-12.613,5.281-1.139,11.617-5.571,8.723-12.299-3.564-4.944,3.383-4.563,2.374-9.553-1.525-.68-3.413.114-5.006.286-8.496-.769-16.326,5.197-24.454,1.974,2.951.844,10.035-1.446,3.346-4.52-3.247-1.78-6.743-1.175-6.893.486-1.064.081-1.204,3.846-4.548,2.031-5.51,1.088-.591-4.822,2.917-3.432,4.473-2.618-5.74-4.366-8.266-3.547-1.105.541-6.735,4.544-4.405,1.917,1.599-4.906,7.652-2.936,10.497-5.263,4.239.869,9.308.461,12.299-3.89,4.304-3.312-1.409-1.953-2.203-1.573-4.98-3.298,1.703.373,3.318-3.061,3.166-4.746-.791-9.126-5.148-5.119-1.691.843-4.347,1.054-4.433-1.258,5.93,1.33,6.706-5.091,12.069-5.206,2.767,4.987,9.801,1.776,12.556-2.431,3.002-4.96-.96-.172-3.061-2.545,1.824-2.068,6.706-6.022.286-4.949-5.403.717-3.678-2.295.372-.801,5.678,1.875-.95-5.442,2.975-1.887,1.971,7.314,6.739-1.441,8.409-4.891,5.863-.642,7.56-7.436,7.264-12.9,1.156-7.091,6.085-13.386,6.292-20.335-.899-9.372-1.53-20.579-11.613-25.284-5.447-6.86-14.185-6.941-21.68-9.725-4.716-1.271-.436.663-1.716,1.086-5.631-.807-9.895-.89-16.103-.658-5.658-1.982-8.505,3.93-9.267,9.182-2.711,2.457-2,7.571-5.034,2.774-6.585,2.856-7.201-10.075-14.301-5.835.792-3.072,5.661-7.255,8.581-11.069,5.495-3.272,8.85-8.22,6.407-14.73-2.936-8.937-5.252-18.279-14.014-21.68-2.841-5.086-8.102-5.341-11.613-10.383-1.181-6.19-6.204-3.451-10.496-3.461-3.222,3.386-5.73-.815-8.237-.515-5.346,2.705-3.342-1.603,1.058-1.859,5.269,4.838,13.456-4.102,17.504,1.573,3.154,4.604,7.722,6.863,12.842,4.891,5.179-.359,1.868,7.625,3.976,4.119.182-7.096-7.111-12.528-10.182-18.734-4.646-5.974-10.309-19.074.229-21.852-1.815-3.118-10.377-2.343-8.609-7.322-5.705-2.096-6.588-6.764-8.267-11.956-3.002-3.861-3.258-9.249-8.809-10.297-5.167-5.848-13.158-5.495-19.163-9.61-4.553-3.778-2.397,3.422-5.949.973,1.915-2.653-.687-4.799,1.058-6.922-7.32-3.435-7.605-12.785-8.637-19.678-2.521-5.49-5.298-9.966-6.836-15.702,1.054-4.602-3.644-8.243-1.917-13.014-2.128-3.554-1.528-7.251-1.373-11.469-1.474-4.637-1.052-8.732-4.747-12.013-4.034-.899-2.618.075-3.976-3.089-1.096.886-3.694.146-4.52-3.404-2.98-2.692-6.248-6.18-8.266-9.753-.155-.274-.254-.432-.372-.629-1.384-4.329-2.518-6.669-5.377-8.323-6.729,1.69-11.738-8.553-17.619-6.206.371-6.194-10.418-7.038-12.986-3.004.142,4.023-4.744,6.558-8.723,6.979-3.612-2.495-8.026-2.491-12.099-3.003-4.326-.287-9.572-2.286-14.558-2.288-6.911-1.248,2.079-5.903,5.206-1.945,5.602,4.457,9.725-2.511,15.674-1.602,1.06-5.083,6.267-8.891,10.64-12.155,5.584,2.915,11.648.123,15.588-4.634,1.737-5.76-8.719-4.135-10.154-8.18-.603-.299,2.994-7.436-2.317-7.122-5.207,1.42-10.349,5.419-15.788,7.694-4.427,1.362-6.169-.837-.772-.858,4.199-5.308,10.393-8.175,16.389-7.665,3.098-2.311,7.032,1.577,7.695-3.06,3.637-3.013,11.621-6.51,9.381-11.669,3.275-3.012,2.944-4.876,3.975-9.267,3.664-2.52,9.198-7.561,10.669-13.472-1.985-6.83,6.381-11.771,5.319-17.962-2.284-9.825,8.429-19.106,11.613-24.998,3.505-2.054-.414-4.61,1.973-5.377-3.035-2.342-1.745-7.933-3.432-9.81-3.286-4.243-6.4-6.45-11.727-6.436-2.959,2.825-6.827.877-9.867.887-5.13,3.32-12.984-.503-18.934-.2-4.308-1.787-8.108-1.972-11.756,1.001-8.386,1.394-17.834-9.352-24.226-.143-4.866.913-9.772,1.393-13.271,5.892-2.586,2.666-14.752-1.062-10.325,2.832-2.662,2.432-5.402,7.915-9.61,5.921,4.288-2.723-3.016-5.426,2.088-4.176,1.356-2.122,4.421-2.102,4.833-4.976,2.434-2.999,6.329-8.292.086-4.777-4.545-1.469-8.74.141-12.213,5.092-4.529,5.587-3.672-.38.572-2.517,1.517-5.397,7.202-2.837,10.383-6.579,2.915-3.237,5.448-1.73,4.634,2.231,4.128-2.86,7.322-8.373,10.468-12.871,1.172-5.805-1.893,1.195-4.061,1.316-4.788,1.762-.679-.017-3.547-1.373-3.369,2.093-9.215,1.666-11.183-1.917,3.328,1.181,8.786.923,9.181-2.717-.937-3.755.938-7.158,5.463-8.581,1.893-3.663,5.48-5.987,9.124-8.723,5.868-3.652,10.049-9.549,14.014-15.13,7.148-2.273,12.433-7.056,14.387-14.158,3.85-4.457-1.013-2.63-3.089-4.119-1.445-5.08,5.021-8.68,4.976-13.5-2.77-1.484-6.971.259-10.096-1.258-2.685,2.178-5.338-1.374-6.692-1.287h0l.01-.007ZM275.01,805.293c-.038-.206-.069-.419-.114-.629-1.514-6.805-1.22,2.489.114.629ZM385.298,437.561c-.543.619-.984.975-1.345,1.345.344-.393.826-.832,1.345-1.345ZM398.969,444.311c-1.797-.172-.037,2.986,2.003,1.116l-.144-.343c-.832-.496-1.444-.733-1.859-.772h0ZM338.048,530.46c.202-.029.459.237.772,1.001-1.472,4.837-1.649-.874-.772-1.001ZM346.942,544.903c.104.005.306.103.601.315,3.354,1.946-1.391,13.704.229,5.663,1.796-1.481-1.555-6.003-.83-5.978h0ZM334.129,565.211c-2.487.256-.164,4.552.401,6.006,5.794,4.278-2.757-2.361-.401-6.006ZM513.548,654.133c-3.656.395,4.111,1.47.4.028l-.401-.028h0ZM538.346,735.162c-.602.117-.292,1.723.572.229-.24-.186-.433-.255-.572-.229ZM353.522,738.652c.624.285,1.375.461,2.317.486.323.008.587.202.801.514-.752-.107-1.832.038-3.117-1h0ZM526.133,741.741c-3.134-.142-3.696,3.385.915,1,.389.007,1.161-.158.572-.686-.544-.197-1.039-.294-1.487-.314ZM269.747,785.186c-2.071,2.891,1.356,3.987,0,0ZM195.697,872.078c-2.231,1.085,4.205.999,0,0ZM193.467,872.765c-1.226,1.887,3.191,1.725,0,0ZM195.354,874.852c-3.012,1.915,2.311,2.22,0,0Z"  />
    <path id="path3383" d="M409.41,117.92c-.607,3.64-4.525,4.458-1.404-.099.269-.344,2.034-.567,1.404.099Z"  />
    <path id="path3385" d="M373.719,132.859c-.3,3.394-4.403,3.697-2.008-.049.815.086,3.008-2.252,2.008.049Z"  />
    <path id="path3387" d="M372.571,142.155c-4.208-1.879-4.858,7.633-5.585,2.209-2.222,4.821-2.996-1.459-6.026,3.826-3.014,5.264-1.64-3.466,2.577-4.169-2.446-3.887,6.646-5.405,1.365-1.497,1.043,4.073,9.716-8.574,7.669-.369Z"  />
    <path id="path3389" d="M366.064,156.511c.328,2.634,1.514,3.226-2.602,3.688-.459-5.549-2.219.406-3.941-.391,1.161-3.311,4.845-3.615.985-6.55,3.274-.419,4.094.66,3.424,3.081.428.513,3.185-1.225,2.134.171h0Z"  />
    <path id="path3391" d="M354.125,159.76c-.567,4.22-.242,5.6-4.852,4.317-1.564-2.127.595-4.033,3.059-2.633.437-.783.567-3.041,1.793-1.684h0Z"  />
    <path id="path3393" d="M359.406,170.603c-.061,4.419-5.05,2.453-6.329,6.973-2.814-2.101-6.704-1.984-5.798-7.167-4.918,1.689-6.475,3.805-11.169,3.841-4.25-2.4,1.875-11.119-2.237-9.295-1.567.784.475,3.181-1.376,5.162-3.253,3.413-4.843-6.481-3.197-8.844-1.965-7.146,7.428-9.367,11.597-4.933,2.346.391,1.124,3.529,4.536,4.469-.925,2.536-3.658,2.036-5.723,5.608.069,1.953,4.093,1.486,4.99-.78,2.655,3.004,3.909-1.315,5.508,2.168.002,2.942,3.659-1.237,5.066.754-2.844,1.301-3.154,4.407,1.037,2.215.135-1.518,2.785-1.305,3.094-.171h.001Z"  />
    <path id="path3395" d="M351.358,180.148c-5.198,1.952-3.118-2.445-.91-1.504-1.254,2.088,1.689.192.91,1.504Z"  />
    <path id="path3397" d="M350.297,182.766c-2.836,1.465.522,11.106-4.307,5.495.913-3.323-2.681-4.038.441-5.544-8.862.329,6.418-4.172,3.866.049h0Z"  />
    <path id="path3407" d="M341.67,181.966c-3.376,4.562-2.705-4.363-.178-1.357-2.641.791-.371.47.178,1.357Z"  />
    <path id="path3409" d="M336.375,179.832c.61,2.607,1.055,2.992-2.451,5.016,1.412-.699,8.352-1.31,3.059,1.161-5.605,2.223-7.675-3.757-9.261-7.851-5.79-.114,2.438-8.645,4.258-3.107,2.515,1.317,3.344,2.386,4.395,4.78h0Z"  />
    <path id="path3415" d="M346.962,151.766c.2,2.792-3.01,6.409-5.9,2.422-3.468-2.338,1.573-7.372,2.956-3.059,1.087-1.036,4.172-1.209,2.943.637h.001Z"  />
    <path id="path3417" d="M349.312,153.259c-.639,5.881-3.44-2.608-.025-.563l.138.244-.113.319Z"  />
    <path id="path3421" d="M347.367,136.256c-3.837,3.815,3.304,3.546,4.673,6.857,1.551,2.066-2.891,4.96-1.502.687-3.66-4.261-3.677-.201-5.661-.884-1.057-3.205-5.224-6.085.455-5.307-.124-1.514,2.091-3.586,2.035-1.354h0Z"  />
    <path id="path3423" d="M351.119,134.287c.16,4.12-2.742,5.376-1.338.567-.143-1.278,1.018-3.107,1.338-.567Z"  />
    <path id="path3427" d="M357.637,147.626c-3.183,2.178.977,8.725-2.88,6.097-2.833-3.569-.718-2.776.077-5.117-.856-5.237,1.083-4.05,2.803-.98Z"  />
    <path id="path3431" d="M221.98,407.657c.874,4.79-3.846,9.971-5.674,14.467-1.302-2.096-9.933,3.009-6.833-2.982,2.453-5.2,9.128-9.236,12.507-11.485h0Z"  />
    <path id="path3435" d="M224.899,397.984c1.971,2.112-1.559,9.311-.948,2.529.501-.553-.724-4.125.948-2.529Z"  />
    <path id="path3447" d="M202.082,409.571c-1.326,4.436-4.11,9.28-5.976,5.957.707-3.498,4.435-6.196,5.976-5.957Z"  />
    <path id="path3451" d="M224.216,383.201c-1.145,1.237.127,6.315-2.932,3.923-.793-1.484-3.44,3.832.847,1.292.457,4.331-11.562,8.309-7.303,2.468-5.111,3.513-11.065,5.604-17.812,5.587-1.952,5.078-8.699-5.302-2.604-4.794,1.817,2.587,3.024,2.14,3.361.362,2.74,2.008,13.316-4.32,8.289-3.328-2.755,1.954-10.625,2.368-5.319-1.927.158-4.55,8.697-3.79,7.05-7.534-5.054,4.056-6.437-1.328-10.978-2.546-5.846,1.125-2.315-3.403-1.895-4.346-3.634-1.873,3.043-3.493,4.004-1.64-2.206-5.862,7.835-4.974,8.742.751,1.717,3.863,3.767,6.61,7.834,6.236,2.468.016,6.607,3.828,8.717,5.496h0Z"  />
    <path id="path3453" d="M234.057,374.816c-.872,2.759-9.795,10.025-6.481,5.592.556-1.333,6.651-7.417,6.482-5.592h0Z"  />
    <path id="path3459" d="M201.602,381.862c-4.523,1.951-6.166-4.732-.897-1.181.339.32,1.598.506.897,1.181Z"  />
    <path id="path3467" d="M175.59,375.908c-1.647,1.885-4.008.912-4.537,3.864-4.703-1.42-2.743,5.481-7.112,2.884-2.17-3.6,1.778-6.575,5.85-6.453,2.457.145,4.67-3.051,5.799-.296h0Z"  />
    <path id="path3469" d="M187.818,364.103c-1.132,5.837-6.867,8.539-10.827,8.847-1.316.407,3.008-4.988,5.471-6.428.699-1.403,5.83-4.445,5.355-2.419h.001Z"  />
    <path id="path3475" d="M203.85,343.737c1.729,6.082-7.733,3.835-3.663.414,1.725.426,1.184-5.477,3.663-.414Z"  />
    <path id="path3477" d="M197.421,337.756c-.037,6.699-6.793,4.448-8.352.07-3.998-.99,5.1-8.032,6.821-3.664,2.551.69,1.15,2.534,1.53,3.594h.001Z"  />
    <path id="path3479" d="M186.315,332.593c-3.347,2.08-8.125.751-2.261-.715.622-.357,2.447-.373,2.261.715Z"  />
    <path id="path3483" d="M202.12,289.55c1.015,4.692-.406,13.573-1.277,14.492,3.163.249.996,4.58,3.26,6.442,3.029.625,1.671,4.115,2.262,4.109,4.196-.621,9.018,5.405,13.165.255,1.817.151,3.952.085,4.863,1.879,1.517,5.472-6.562,5.313-6.216,8.382-.913,3.234-4.921,6.108-6.796,9.051-3.955,3.99-5.506-.621-3.133-3.945-1.881-4.963,8.174-6.64,7.075-7.998-3.448,2.224-6.582.163-7.896-2.478.77,3.452-4.38,10.529-3.538,3.126-1.6-2.995-8.212,2.846-9.563.486,4.991-2.7-7.196-1.431-2.21-4.886-1.275.017-5.178-3.635-5.558-5.775,1.145-6.342,6.65.777,6.822-.441-2.727-2.775-2.532-5.305-5.648-4.089-.622-2.284-1.644-4.753-3.058-2.14-.403-5.625-2.229,1.225-2.323,3.721-3.973-1.882-7.63-3.096-8.655-7.468-3.594-1.769,1.044-2.77,1.289-2.89-2.987-4.962,3.041-4.041,3.638.14,4.041,3.597,3.344.64,1.453-2.869,1.71-1.693,3.787-.628.455-4.087-3.054-3.455.783-8.464,1.755-1.964,1.644,3.143,6.844,4.472,6.392,4.86-.39,5.787,1.589-5.723,2.969.351,6.121,4.584-4.909-4.68.151-7.081-4.054-2.403-1.336-6.007.948-8.858-1.224-3.041,6.064,1.705,5.837,4.69,2.346.286,2.856,3.41,3.537,4.986h0Z"  />
    <path id="path3493" d="M209.586,296.583c-2.835,4.023-1.399,8.404-.834,12.112-4.97,4.587-4.207-7.137-2.047-9.29,2.235,1.062,1.588-5.466,2.88-2.823h0Z"  />
    <path id="path3513" d="M201.375,218.436c-3.848,2.403.498,6.277-.606,6.863-3.175,2.84-7.395,7.317-7.468,9.803,4.197,3.95,10.124-8.463,9.349-.309-1.845,3.78-5.219,3.42-8.224,2.332-1.806.47-4.339-2.267-2.489,1.951,3.208,4.504-5.71,5.718-7.024,7.15,5.02-.189,6.939-3.439,7.301,2.656,1.385,6.486-7.939,2.405-7.745,3.767,6.098,1.453,1.64,7.466-.87,6.693-.745,4.401-4.648-4.775-3.21,1.109-4.433-.765-4.898-7.608-3.916-10.053-3.98,3.251,0,9.771,1.138,12.131-.69,2.157-9.515-1.625-4.649,2.996,2.451,2.416-1.141,3.667-1.806,3.936-2.865-.467-4.029,4.591-6.343,6.984-2.058-1.173-7.498-6.32-8.376-9.247,3.528.585,2.485,4.578,4.688.166,1.046-1.62,5.106-2.943,4.926-3.49-4.255-3.015,2.99-1.798,4.75-2.123-1.387-3.018-6.215-4.479-9.891-4.512-3.681-2.309-3.986-4.983-.253-5.821,4.002-1.742-1.635-1.253-.064-2.607-2.288-1.969-4.196-6.223-1.793-9.378-.057-2.152,6.44-.248,1.87-3.14.091-5.048,4.369-.712,5.179-1.977,3.21,2.361-2.272,3.026,3.044,4.641.716-4.491,7.658,1.78,7.607-1.166-3.402-2.712-7.339-9.651-1.378-11.035,2.113-3.382,7.117-2.549,9.337-4.182,2.121-5.966,10.676-8.27,12.645-12.795,3.376,2.446,3.626,5.005,4.271,8.656h0Z"  />
    <path id="path3515" d="M173.227,235.222c-.352,4.743-7.873-6.9-2.298-1.834.394.684,1.501.863,2.298,1.834Z"  />
    <path id="path3521" d="M163.916,262.247c-2.656,2.34-6.244,1.252-1.643-1.346,1.236-1.488,1.649.24,1.643,1.346Z"  />
    <path id="path3533" d="M159.658,284.892c-.322,3.754-7.539-2.824-4.762,1.265-.05,3.294,5.108.308,1.919,4.657-4.412.772-8.076-1.699-7.176,2.057-.055,6.192-4.973-7.327-8.591-2.688-5.07-1.97-1.178-5.254,0-7.657,2.665.405,4.606-1.208,2.83,1.734,1.791,1.106,4.803-7.706,3.892-1.781,2.693,6.107,3.3-5.974,7.213-.915-3.573,4.27,5.588-.183,4.674,3.329h0Z"  />
    <path id="path3543" d="M152.799,301.084c-.95,7.964-14.934-2.98-5.572-4.361,2.036,1.841,4.548,1.739,5.572,4.361Z"  />
    <path id="path3545" d="M151.358,309.23c-3.14.084-10.201-5.475-4.131-4.489,3.195,1.335,2.538,2.352,4.131,4.489Z"  />
    <path id="path3547" d="M153.43,312.97c-1.97,2.697-3.176,7.124-6.745,5.219,1.288.051,7.263,5.741,2.691,6.668-5.916.251,2.261.845,2.854,3.005.02,2.415-8.147,1.734-8.4-2.103-1.63-6.438-.823-10.376.593-16.736-1.772-5.529.02-1.637,2.793-.326,2.702,1.126,5.467,2.999,6.215,4.274h-.001Z"  />
    <path id="path3553" d="M143.186,334.023c-.425,3.263,2.234,4.466-.027,7.162-2.724,1.909-8.288-.083-3.815-3.153-1.256-1.362,3.538-4.031,2.918-4.701.294.255.734.309.923.692h0Z"  />
    <path id="path3555" d="M140.203,343.048c-.353,2.352-4.894,1.312-2.425-1.058.297.658,3.71.497,2.425,1.058Z"  />
    <path id="path3575" d="M445.503,1.129c-1.901-1.843-4.52,9.011-3.701,3.344,2.184-3.483-.55-4.682-1.643-.926-1.396,2.371-.828,8.239-2.161,9.22-1.398,4.793,4.646,2.648,6.102,2.769-1.95-2.939,1.515-6.242.848-8.055.985-2.177,2.335-3.054,1.554-5.786-.273-.107-1.148-.043-.999-.566h0Z"  />
    <path id="path3577" d="M437.316,21.269c2.05,1.357-3.872,2.717-.1.076l.1-.076Z"  />
    <path id="path3579" d="M446.957,24.208c.378-2.307-2.457-3.297-4.789-2.914-6.499-3.962,1.186,10.003.38,2.914,2.285-.566,3.427,4.088,4.41,0h-.001Z"  />
    <path id="path3583" d="M440.324,43.862c1.607-4.495-9.343,5.643-2.591,3.525,1.196-.954,1.441-2.522,2.591-3.525Z"  />
    <path id="path3587" d="M434.298,65.63c1.814-4.666-5.457-6.095-3.057-.781-.8,2.984,3.522,5.461,3.057.781Z"  />
    <path id="path3589" d="M427.5,35.324c-.292-5.976-3.507,2.81-3.803-1.222-1.956,2.661,4.524,4.025-1.579,4.325-2.006,5.578-3.073.991-.354-1.831,1.515-3.621-.392-2.41-.529-3.716-.142-3.916.529-3.291,1.023-7.575,1.873-2.272-.692-8.349-.62-2.682-.138,1.175-6.194-2.022-4.661,2.963-5.281,2.225.907,5.519,1.061,6.402-4.639,1.328-6.054-9.464-6.961-1.096-3.949,1.042-2.111,5.429.695,3.006,3.471-1.782,1.012,5.08,3.702.535.902-1.14.308,6.666,3.007,5.874-1.605,4.563,3.001,1.017,2.501,4.062,5.363,1.522,1.561.454.505,2.181-1.931-.129-.586,4.083-1.832,5.168-1.977-6.019-4.74-.849-4.749.532-.539-7.53-4.042,2.627-5.876-2.481-8.368-.33-2.054,12.216,2.377,7.891,1.091,3.813,2.481-5.323,3.031.48-2.154,1.072-2.521,3.894,1.326,5.904.943-3.648,2.261-1.917,3.121-4.894,4.402,2.155-5.051-7.76,1.352-3.486.846,6.173,1.176,1.149,3.638.152-1.177,2.372-3.327,9.67-.152,4.924-.327,5.078.871,9.332-1.288,15.051-2.289,4.084-.899,5.836-2.894,9.824-1.063,2.587,3.935,2.564,3.095,4.126,3.223,3.043.037-5.559,2.286-7.431-.299-4.783.592-2.849,2.325-3.734-3.115-4.312,3.602-3.983-.177-7.811-.556-3.983,1.374-4.698,3.361-6.772-2.244-2.063.257-5.424-3.146-2.346,3.143-5.237-1.042-1.445.518-3.988-2.343-.865-.037-2.22-.138-4.399-.305,4.371,6.052,1.088,3.056-.707-3.072.075,5.563-5.066-.808-4.811-4.614-2.117,6.406-.367,3.12-5.479-5.341,3.22.414-1.841,1.44-4.93-3.159.745-3.822,4.12-5.179,5.006-.322-3.104-3.328-.794-2.968-2.032,2.977-1.326,3.775-1.69,1.174-4.984h0Z"  />
    <path id="path3595" d="M404.432,46.525c-2.858,2.656,6.035,1.623.29.102l-.29-.102Z"  />
    <path id="path3601" d="M436.318,11.536c-3.676-.424-6.183-1.172-5.242,4.153-.881,3.279.645,10.059-1.276,3.611-3.446.344-1.832,11.009.568,14.166,2.047-1.721.424-2.068,4.636-1.147-.664-4.628,2.141-7.042-1.87-10.053,5.034,1.819-2.454-8.858,2.679-2.634,2.191-.423-.165-6.263.504-8.095h.001Z"  />
    <path id="path3603" d="M152.041,288.006c-3.494,2.832-1.537-.305-1.858-1.639.266,1.15,2.128.397,1.858,1.639Z"  />
    <path id="path3605" d="M293.287,227.874c.656-.013,1.776.543,2.942,2.244l-.469-.042c-3.38-.566-3.567-2.179-2.473-2.202Z"  />
    <path id="path3609" d="M267.605,239.121c5.393,3.027,10.816,6.79,14.099,12.067-.627.294-1.004-.633-1.35-.974-3.074-3.795-12.899-10.804-12.749-11.093Z"  />
    <path id="path3611" d="M294.595,257.538c.768-.129,7.655,2.994,2.97,2.09-2.633-1.491-3.271-2.037-2.97-2.09Z"  />
    <path id="path3613" d="M282.173,261.208c.215.004.803.574,1.875,2.06.444,3.386,9.198.563,4.776,2.469-3.447,2.548-7.419-4.545-6.651-4.53h0Z"  />
    <path id="path3615" d="M232.883,271.806c.319-.103.896.568,1.507,2.597.343.548,2.915,2.641.867,2.301-2.675-1.697-2.982-4.701-2.374-4.898h0Z"  />
    <path id="path3617" d="M226.659,273.994c.069-.011,2.124,2.288,4.065,3.656,1.366,1.045,11.11,7.186,6.907,5.786-3.089-3.583-9.031-1.55-9.139-7.057-1.354-1.738-1.869-2.379-1.833-2.385h0Z"  />
    <path id="path3619" d="M252.369,282.829c.524.016,1.303.088,2.403.254.868.685,5.082-1.192,3.851.481-2.875,1.372-8.773-.574-6.694-.72.12-.008.265-.016.44-.014h0Z"  />
    <path id="path3621" d="M317.918,282.927c.621-.019,1.032.469.512,1.948-4.261.546-1.877-1.906-.512-1.948Z"  />
    <path id="path3623" d="M282.983,295.233c.985.977,6.611-.168,4.875,1.355-3.547,1.971-12.929-.789-4.875-1.355Z"  />
    <path id="path3625" d="M251.275,301.019c1.518-.159,4.444,2.372,2.743,2.159-2.432-1.788-9.853-.259-3.284-1.905.143-.149.324-.232.541-.254Z"  />
    <path id="path3627" d="M284.12,304.858c.68-.018.289.922.341,1.257-5.513,5.912-9.563,15.503-15.79,19.136,5.549-6.648,10.205-13.823,15.449-20.393h0Z"  />
    <path id="path3629" d="M259.248,330.317c.524.01,1.107.074,1.72.197.146.527-.5.482-.753.72-5.798,1.271-4.634-.995-.967-.917h0Z"  />
    <path id="path3631" d="M241.752,330.5c1.348-.086,2.582.469,3.681,1.567-2.186-.736-8.594,2.072-8.001.691,1.52-1.447,2.973-2.172,4.32-2.258Z"  />
    <path id="path3633" d="M261.338,336.202c.193.004.216.273-.028.932-1.237,3.215-8.974,9.051-3.908,3.062.396-.669,3.245-4.007,3.937-3.994h-.001Z"  />
    <path id="path3635" d="M218.657,340.295c2.864,1.534,10.508.014,11.086,1.143l-.242.141-.341.07c-3.087.618-13.782,1.155-10.503-1.355h0Z"  />
    <path id="path3637" d="M287.389,343.879c.334.007-.093.765-.455.777-3.465,3.997-6.446,11.325-8.073,14.324.441-5.078,4.941-10.691,8.172-14.96.169-.088.277-.143.355-.141h0Z"  />
    <path id="path3639" d="M367.818,360.927c1.218.01,3.895,1.276.924,1.778-1.861-1.339-1.655-1.785-.924-1.778Z"  />
    <path id="path3641" d="M268.529,361.053c.708-.039,1.091.123.611.678-3.832,1.812-13.622-.049-4.42.126.543-.131,2.629-.738,3.808-.805h.001Z"  />
    <path id="path3643" d="M289.763,362.253c.793-.015,1.271.212.923.932-4.058.747-14.457.865-5.116-.198.681-.065,2.872-.725,4.193-.734Z"  />
    <path id="path3645" d="M299.64,372.217c-.171.289-.499.438-.71.692-4.519,2.232-6.778,8.365-12.18,8.185,5.402-1.18,8.131-8.633,12.89-8.877h0Z"  />
    <path id="path3647" d="M262.333,373.36c.479-.004,1.092.155,1.876.565-2.878,4.238-4.464-.543-1.876-.565Z"  />
    <path id="path3649" d="M250.92,374.362c.094.015.168.105.199.31-1.251,3.215-5.861,9.907-7.889,8.369,3.018-.856,6.77-8.822,7.69-8.679h0Z"  />
    <path id="path3651" d="M294.837,387.388c1.106-.025,1.582.119-.483.592-3.656,1.513-10.138.021-2.814-.155.46-.205,2.192-.413,3.298-.437h-.001Z"  />
    <path id="path3653" d="M251.544,387.712c.347-.018.611.152.626.677-2.43,3.773-8.203,4.685-9.395,9.301-.545,2.621-6.294,8.035-6.836,6.477,6.669-3.523,6.108-12.411,13.928-14.437-.246-.844.915-1.951,1.677-2.018h0Z"  />
    <path id="path3655" d="M271.983,395.799c1.958,2.927,7.22,1.952,7.902,4.487-.237-.016-.412-.38-.668-.254-2.662.335-8.386-2.951-7.234-4.234h0Z"  />
    <path id="path3657" d="M268.259,397.521c.099-.054.267.109.526.593-.937,6.859,4.455,12.11,7.404,15.89-2.438.351-3.062,4.271-3.638,4.078-2.489-3.927-1.456-10.557-4.264-15.298.352-.673-.454-5.03-.028-5.264h0Z"  />
    <path id="path3661" d="M246.767,425.753c3.62,3.518,8.049,7.888,6.367,12.978,1.308,5.685-1.778-1.13-4.434-2.007,1.321-4.369-7.171-7.735-1.933-10.971Z"  />
    <path id="path3667" d="M242.167,441.783c6.323.664,5.26,8.401,6.899,11.227,2.096,2.682-1.159,4.335,1.326,6.207,1.158,3.633-1.325,6.137-5.723,5.422-8.041-1.44-5.616-9.189-8.628-14.893.046-4.364,3.677-7.222,6.126-7.963h0Z"  />
    <path id="path3671" d="M221.121,441.07c1.418,2.447-2.377,9.392-2.036,3.607,1.298-1.246.518-3.701,2.036-3.607Z"  />
    <path id="path3673" d="M202.523,425.663c-1.131,7.027,4.747,12.924,4.865,19.414-2.209,2.429-5.12,4.708-8.944,4.225-.611,7.543-9.559.866-2.857-1.978,2.472-3.311-6.583-6.982.594-8.794-.588-3.495-6.063.479-5.9,4.099-3.618,5.816-8.239,1.712-3.677-2.65,2.14-2.403-.515-4.141.86-7.206.097-2.049,5.915-4.247,5.672-3.218-.902,5.506.589,3.372,1.655-.179,1.618-1.12,8.027-7.547,7.731-3.713h0Z"  />
    <path id="path3675" d="M215.386,422.393c.15,6.681-4.612,6.355-5.105,12.926-9.076,3.079-7.947-15.822,2.565-12.456.672-.058,2.345-1.373,2.54-.47Z"  />
    <path id="path3677" d="M258.705,436.167c1.347,5.621-5.209,2.646-.317-.535l.203.156.113.38h0Z"  />
    <path id="path3679" d="M282.486,476.297c.392-.017,1.21.543,1.18,1.073-1.133,5.125-1.7,4.068-1.152-.282-.349-.557-.263-.781-.027-.791h0Z"  />
    <path id="path4650" d="M200.705,476.268c-.587,4.721-1.968-1.465-4.737-.793.863-1.043,4.859-.47,4.737.793Z"  />
    <path id="path4660" d="M95.57,499.466c.062,6.047-5.652-2.05-1.517-1.64.184.828,2.063.689,1.517,1.64Z"  />
    <path id="path4678" d="M28.675,575.791c1.779,2.256-1.448,4.665,1.517,5.141.018,4.303-1.883,6.023-5.307,2.62-.88-2.439-.366-5.548-4.686-3.985-3.17.527-7.791-1.216-2.451-2.347.759-2.903,5.006.929,6.518-2.348.772,2.022,3.959-.838,4.409.918h0Z"  />
    <path id="path4688" d="M28.927,591.825c-4.583,3.926-5.071-2.543-.656-.956.232.653,1.695.12.656.956Z"  />
    <path id="path4698" d="M18.531,604.671c.471,4.174-6.931-.274-1.301.381.207-.527.841-.882,1.301-.381Z"  />
    <path id="path4710" d="M42.636,632.497c2.101,5.829-6.484,1.324-.582-.88.686-.311.819.416.582.88Z"  />
    <path id="path4712" d="M44.203,644.66c-1.924,2.954-8.213-3.247-9.313-3.219,3.497.076,6.534,1.656,8.516,2.801.308-.539,1.034-.137.796.418h0Z"  />
    <path id="path4718" d="M3.838,719.615c-2.696,2.803-4.562,1.694-.809-.572.37-.506,1.274-.09.809.572Z"  />
    <path id="path4722" d="M13.453,732.779c-3.102,3.264-8.401,2.551-2.604-.589.978.135,2.556.043,2.604.589Z"  />
    <path id="path4728" d="M36.52,753.216c-1.876,3.433-9.601.757-2.943.02.903.917,3.195-.998,2.943-.02Z"  />
    <path id="path4750" d="M145.472,469.31c-2.213.176,1.82,2.059,2.545,2.517-2.512.389,1.371,3.533,3.404,5.148-3.305,1.087-3.258-.788-4.576-2.26-2.486,3.142-6.885.693-7.294,3.489-3.908,4.455,3.189,7.633,1.774,12.642,2.851,5.652-4.381,5.953-6.864,10.497-3.614-.017,7.76-7.346.343-5.521.539-2.375,8.083-5.793,2.346-10.096-4.042-.891.297-10.162-4.205-7.837-1.379,1.571-8.406,3.567-3.976,5.949,1.627.805,1.928,2.055,1.602-2.144,1.615,1.628,2.981,5.503,1.258,9.61,1.229-3.921-3.653-6.214-5.949-7.923,2.142-4.596.662-3.542-2.374-1.516,1.467,1.924,3.163,7.174-1.287,6.778,3.48-3.401-.608-.502.143-3.203-2.552-.147-1.55-3.765-4.605-3.718-.556,4.19-4.246,5.002-6.922,7.551.592-2.186,1.014-3.465-2.23-1.459-4.983-3.17-4.853,4.049-5.463,4.949,2.222,3.003-4.136,1.848-3.547,5.663-4.367,0,.662,4.333.772,5.12-6.023-.374-.956,6.528,1.459,3.575,4.304,1.766-1.03.827-1.487,3.203,5.872,2.084-1.412,1.103-4.004.944-5.759.891-1.554,2.689,1.516,5.178,5.089,3.374-8.451-2.446-2.631.458,5.583,3.951-6.276-2.414-8.466,1.201-1.904,2.701-6.239,3.94-4.748,6.407,1.686,3.883,8.741,6.343,13.672,3.747-1.314,3.762,7.301-2.287,3.404,2.373-4.91,4.286,1.291.975,3.061-1.63,4.172-5.218.842,4.042,5.148-.028,3.223-3.668,7.794.303,3.975.743-1.186.747-5.172,6.509-6.149,10.125-3.374,1.881-8.931.257-8.839,2.688-1.55,3.832-4.992,4.388-8.408,6.007-2.252,5.665,4.156.463,7.208,3.461-.98,1.095-5.351-.718-.973,1.802,6.98,3.079-8.252.515-2.86,3.575,4.74,3.367,1.312,4.844-1.831,1.573-2.05-5.63-7.786-1.075-11.812-2.689-3.658-3.924-9.38-1.955-9.696,3.318-.917,3.632-1.754,4.351-4.633,1.316-1.469-1.224.844-5.183-1.316-5.32-.812-.075-4.318-6.021-6.636-1.945-5.854-2.135-12.683.045-19.363-3.174-5.061,1.073-1.855,4.348.058,4.233,2.685,3.731-.236.247-2.832,1.201-.502,2.959-2.424,6.669-5.206,3.404,1.143.438,6.03-2.344.887-2.946-1.959-4.244-2.921-2.007-5.72.315-.298.768.02,2.172-1.258,1.917,3.581,1.368-.224,5.029-.858,9.009.992,4.467,3.365.683,2.373-.428.097-2.118.181-4.536,2.86-4.548-2.508-5.133,4.833-.694,2.575.743.299.418-.168,2.398,1.373,3.604.698.845-5.265,2.886-.744,4.919,2.09-.774,4.776-6.009,3.976-3.061.246,2.531-4.228,4.864-.801,7.551,2.049,2.184,1.359,3.8,3.461,3.918.82,5.039-.173,1.28-2.716,0-3.299-1.8-5.721,9.064-.772,6.722,4.146-2.257,10.727-3.341,13.757-1.602.545,2.264-1.474,3.105-1.917,4.777,4.073,1.641,1.6,4.546-3.375,3.404-5.135.12-12.519.719-10.297,7.75,3.14,5.238-.624,6.649-5.892,5.635,1.372,2.593,1.523,3.557-2.66,2.688,1.186,1.448-8.012,1.503-2.374,2.031.47,2.668,4.486,5.051,3.833,7.264-2.418-1.425-7.346,2.937-2.946,2.661,2.911-1.771,4.39,1.871,7.436,2.917,1.987-.721,5.416-6.938,4.291-1.831,3.068-1.998,2.495-1.347,3.775-.171.108,2.464-5.913,1.921-5.034,5.462,1.562.354,4.518,2.089,7.007,1.745.923-2.194,6.836-9.137,4.691-2.832-.655,3.403,3.846-4.444,3.146,1.116-1.955.255-2.717,6.397-.944,6.807,1.873-2.124,1.879-4.644,2.174-.086,7.903,1.351,17.318-.384,25.083-2.345,7.154-.542-3.157,3.375,1.659,4.548,5.365-1.743-.465,1.424,1.516,4.661-.442.946-3.329-3.653-6.493-1.144,5.86.965,1.874,1.368-1.716.544,1.7,1.474-2.875,3.44-6.034.343-2.748.913-3.923,5.822-6.007,8.466.067,2.669-6.808,8.242-2.574,7.723,7.452-1.085-.773,3.856-.601,6.636-1.931,2.451-1.497,9.371-6.292,7.493-4.155,4.863-9.14,10.831-15.988,13.7,2.971.632,10.093-.101,10.925-3.232,3.938-.225,6.083-2.053,6.292-4.576,1.181,5.174,8.677,4.679,12.871,2.373-2.695,1.606-2.741,5.34.686,2.003,5.016-.269,9.264-5.106,10.153-9.639,2.553-5.308,6.075,1.401,3.518,4.089,2.695-1.789,13.341.472,7.093,1.974-4.311-3.503-8.433,3.446-11.383,2.631-4.027.028-11.108,5.367-15.703,3.232-3.494,2.096-8.768-1.096-12.013,1.544-3.569,2.633,3.749,7.14-.886,5.521-3.479,2.214-7.465,4.356-11.756,4.719.358,2.746,7.151,1.617,4.747,6.95-4.419,3.717-.621,3.678,3.69,4.004.977,4.274-4.057-.675-4.977,2.545-6.172,2.596-6.552-4.728-8.237-5.492,1.266,1.767-1.381,5.953-5.091,5.52,1.455-4.592-4.023-4.596-6.75-.658-4.484-.145-1.419,5.698-4.606,4.949-1.708-4.313-4.916,4.338-1.773,6.006,4.684-.633,2.747-2.987,7.408-1.086-1.389-1.876.12-1.712,2.373-.915,2.319,2.786,10.026-4.168,12.356.6-.773-1.942,2.812-4.435,5.521-1.659,6.272-.88-1.673,3.452-2.86.544-.805,1.929-1.948,7.738-2.86,3.089-.669,4.118-7.366,3.513-10.84,5.921-1.571.762-5.005,2.949-4.062,4.119,6.22,4.699-5.976,3.149-4.347,6.893,1.785.734,2.367,2.574,2.145,5.206,2.781-1.866,7.428-9.163,7.151-.83-4.807,2.185,3.221,1.17,2.202,4.176,3.455-1.979,9.022-5.437,11.87-5.206,2.057-.089,7.354-4.576,12.814-4.776-.831,2.458-8.056,2.25-9.553,6.263,1.204,2.623-2.218.518-3.575,3.147-.546-.836-2.832-.471-5.148,1.716,3.033,1.227-.648,4.546-4.261,3.718-.14,1.105,2.473,4.262-2.26,4.09-2.587,3.031.721.891,3.547,1.172,5.027-.032,6.948-5.202,12.956-4.49,4.584-.867,10.676-2.749,10.383-6.864.351,4.596,5.452.695,4.09,4.119-3.27,3.901-10.849,4.683-14.873,8.494-3.584,2.994-2.099,3.561,1.63,1.202,1.818-.564,10.679-5.384,7.608-2.832-2.353,5.084-11.81,6.154-10.925,10.611,1.084.626,4.541.545,5.091-1.688,2.306-5.038,3.457,1.075,5.72-1.831,1.408-1.6,6.39-.782,6.322-3.832,3.233,1.606-.09,4.801,3.203,6.464,3.725-1.88,4.228-2.515,6.807-1.116.679-3.738,3.732-1.452,4.891-4.805-2.256-2.98,4.025.694,5.434-1.43,2.378,3.814,3.523,2.257,5.921-.544,2.582-2.7,4.827,1.145,7.78.315-1.462-4.193,4.418-7.244,6.579-2.946.069-.178,1.355-5.624.886-6.607,2.525,3.204,3.995-.281,7.609-.915,2.854-2.012,4.608-6.152,1.917-9.238.613-3.508-5.398.371-3.432-2.975,2.539,2.545,10.723-1.63,9.466,1.773-7.676,4.749-.155,5.962,3.089,3.661,5.731.971,2.96-3.729,7.551-4.49,5.722.814.064-2.89,2.661-2.832.318-6.686,7.069.61,7.979-4.49,4.521-.273,5.915-2.854,7.952-5.749-2.75.405-4.461-4.963-.63-2.174,4.265-5.323,12.681-2.819,17.877-4.72,2.858-.398,1.319-2.008,3.775-1.544-2.945,3.2,3.159,3.456,4.576.458,1.069-1.869.194-5.092-.801-8.695.916,1.043,4.896,5.605,4.119,8.895-4.142,4.885,2.198-.613,3.632-1.774.197-3.273-.776-3.052,2.832-5.749-1.171,3.396-2.219,4.378,2.431,3.289,4.23,1.766,7.496,4.215,11.097.514-1.384,2.743,4.121-.874,3.233,1.373,1.658,2.73,5.731-5.495.915-6.178-.539-1.014-.361-2.033,0-3.031-.74,1.135-3.687.999-2.86-2.575,2.828-1.326,4.083,1.485,3.632-3.661,3.377-5.917,9.599-11.334,6.322-18.677,2.896-4.638,3.072-9.48,5.205-14.301,1.658-2.589,6.844-8.505,3.261-10.668-.362-5.869.501-12.162-2.918-17.247,1.492-5.645-3.17-5.837-5.463-10.125,1.204-4.586,6.295-.705,7.723-2.602-.126-.665-.992-.656-1.516-.772-4.928-1.919-.381-7.99.257-11.984-2.385-4.14-8.183-6.612-7.922-13.042,1.468-4.714-.329-5.914.229-10.154-3.981-.522-7.968-4.825-5.606-9.839.636-6.314,7.211,2.766,11.154-1.086,1.044-2.768-6.911-5.433-5.663-7.007.154-.195.444-.384.915-.544,1.258,2.295,8.444,1.762,5.319,4.175,4.11,1.508,10.1-3.65,10.754-8.151-.323-4.414.713-8.494,6.236-7.951,4.592,2.707,6.443-.507,8.98-4.691.948-5.427-3.026-6.843-7.036-3.147-.235-.763,5.469-7.22,2.174-9.267-.47-2.902-1.346-3.586-2.575-5.692.04-5.55,7.038,1.373,7.151,4.176.073,4.38-2.313,7.834,1.03,11.726,2.114.081,2.84-3.989,2.66-6.378,2.877-3.819-.225-5.854-.515-9.811-1.853-3.385-1.974-12.022-7.493-9.982-4.746-.895-9.369,1.645-11.956,5.52-2.93-6.502,6.26-8.335,9.61-11.698,3.514-3.873-5.987-11.715-3.403-5.664,3.168,3.762,2.42,2.551-1.144,1.058-1.143-4.252-3.346-9.157-6.836-12.555-4.335.221,1.945-9.298-4.748-6.322,1.465-5.46.074-16.559-8.294-12.184-2.555-1.431-6.548-2.8-9.925-2.746-1.536.025-2.943.338-4.033,1.086-5.121,1.769-9.373,5.06-15.359,4.72-5.326-4.162-3.572,1.526-5.778,5.205-.659,6.321-6.161,4.124-10.525,4.119-.164-.224-.288-.475-.372-.715-1.242-3.6,6.221-8.832,10.182-10.812,7.178-1.6,1.208-6.036-2.174-5.634-5.028-2.714-7.347-8.645-14.272-8.438-.206-.004-.396-.011-.544,0h0l-.002.006ZM187.23,513.9c1.42,6.1-3.239,1.582,0,0ZM186.43,519.335c.57-.019,1.046.612,1.03,2.259,3.342,2.99,7.866-3.303,10.411.429-1.872,3.338-5.729,7.431-1.458,9.267-4.239,2.172-3.134,5.741-5.006,7.751-2.856-.198-4.66-3.541-8.409-1.172-6.063-4.371,5.763-7.388,1.716-13.072-1.354-2.262.462-5.42,1.716-5.462h0ZM125.794,535.609c1.342-.059,2.664.237,3.661,1.03-.016,2.179.238,4.412,1.774,6.893,3.115-.04,2.681,9.189.801,2.403-2.932-3.354-9.139-6.41-12.47-5.978.177-2.325,3.285-4.217,6.235-4.347h0ZM137.979,555.744c1.516-.027,1.355,2.48,3.203,3.404.414,3.581,4.131,6.972,0,5.263,1.22-1.94-4.951-6.172-4.948-7.952.764-.492,1.32-.708,1.744-.715h0ZM97.965,556.602c-.601.988,4.984-1.042,5.006.858-1.696,2.004-7.325,1.326-5.006-.858ZM36.042,560.664c.685-.002,1.482.268,2.002.572.672,4.73-3.034,1.415-2.602-.458.192-.061.372-.114.6-.114ZM114.268,564.439c.563,0,1.404.11,2.66.372.564,2.85-2.133,11.221-2.603,4.347.513-2.465-2.5-4.712-.058-4.719h0ZM59.411,569.273c.943-.046,2.38.772,3.203,2.431-3.453,3.153,4.646,4.869-.372,6.292-3.448-.004-4.294-6.168-2.431-5.148-1.898-2.349-1.47-3.523-.401-3.575h.001ZM106.403,574.678c.481.005,1.125.466,1.945,1.659l-.229.114-.058.343c-2.899,3.404-3.379-2.135-1.658-2.117h0ZM64.359,577.682c.44-.075.933.505,1.23,2.403-3.199,2.25-2.355-2.216-1.23-2.403ZM97.623,578.712c.346-.016.827.108,1.487.486.55-.306.731.367.257.6-1.332,2.527-1.212,4.954-3.804,2.202,1.455-.152.56-3.221,2.059-3.289h0ZM149.706,590.067c.4.082,1.539.262,1.23.944-1.445,4.217-7.099,1.773-1.23-.944ZM59.897,595.873c.477.023,1.493,2.964,1.888,3.003.145-.626,1.224-.969,1.058,0-1.496,5.092-2.435,2.382-3.147-.686-.115-1.738-.017-2.328.2-2.317h0ZM58.353,601.021c.167-.002.329.025.514.085.689,3.396.133,6.691-1.058,8.867-2.752,2.662-6.905-2.897-6.121-2.288,3.438-.019,4.146-6.641,6.665-6.664ZM146.159,601.907c.299-.015.659.096,1.03.343,2.583,3.023,3.635,5.535-.315,1.888-2.718,1.073-2.33-2.151-.715-2.231ZM116.7,602.194c.264.012.595.124,1.001.4-1.096,2.916,1.289,7.772,2.803,8.724,1.957-1.196,4.469-1.472,3.775.343-4.689,1.675-1.215,6.046-2.832,6.321-3.456,1.176-2.811-1.9-3.432-2.517.71-4.271-.921-4.491-2.746-6.778.854-.936-.416-6.58,1.431-6.493ZM145.559,608c5.273,6.396-4.583.221,0,0ZM59.726,612.862c2.234-.025,3.288,1.075,3.318,4.004-1.507,3.893,6.867,3.753,7.408,4.863-4.742,2.125,3.658,7.97-3.118,7.922-3.148-3.481,1.756-8.143-4.204-8.323-3.877-.022-6.32-5.308-12.013-5.349,1.181-2.838,5.273,1.147,3.289-1.973,2.212-.686,3.98-1.128,5.32-1.144ZM145.902,615.922c.143-.011.269-.004.429,0,.165.004.33.008.514.028-1.843,7.207-5.376.298-.944-.028h0ZM109.12,646.67c.074-.007.132-.003.2,0,.482.014.86.257,1.001,1.03-5.498,1.379-5.6,6.709-4.49,10.239-2.484,1.148-.487,3.251-5.092,2.059-.578,2.217-4.299,9.088-3.633,3.261,4.095-3.638-5.583-2.645.63-4.977,4.437.802,6.573-2.277,3.947-5.949,3.706-.103,1.865-3.253,3.89-5.263,1.152.506,2.562-.308,3.547-.4h0ZM191.778,703.215c-.054.123-.123.267-.172.4.075-.122.155-.254.172-.4ZM46.367,722.292c.042-.01.066-.004.114,0,.43.024,1.142.45,2.145,1.544.393.427,1.841.406,1.373,1.23-3.119,2.062-4.919-2.576-3.633-2.774h0Z"  />
    <path id="path4756" d="M283.682,544.946c-2.297,3.831-.031,7.52,1.68,9.405-3.053,4.098-2.62,7.984-7.126,10.621-.681,2.547-6.323,5.049-6.682,6.761-2.344-.623-4.448-1.429-7.479.427,1.797-3.554,2.003-9.4,4.321-12.763,6.644-3.53,5.28-14.037,14.162-14.753.434-.505.958-.284,1.125.302h0Z"  />
    <path id="path4764" d="M269.418,628.363c2.145-1.28,6.165,5.06,3.537,6.042-.546-3.742-7.382-2.784-3.537-6.042Z"  />
    <path id="path4766" d="M280.94,620.499c7.104-.69,7.136,6.849,10.449,10.005,4.49-3.53,8.995.243,2.981,3.44-4.381,2.055-6.684,7.349-9.891,9.169-3.705.276-4.72-2.655-7.265-5.041-2.995-4.483-4.202-10.788-2.665-15.573,2.473-.588,3.838-1.547,6.392-2h0Z"  />
    <path id="line503" d="M432.82,822.244c-5.238.977-3.984,9.239-10.815,6.704-2.409-3.661-10.254-6.229-11.054-6.071,1.968-4.315,6.671-2.735,7.945-4.635,3.527-5.415,8.05.685,12.545.416.126,1.225,2.761,2.48,1.377,3.585h.002Z"  />
    <path id="path6776" d="M386.972,922.216c5.165.297,2.854,9.272-1.376,4.476-2.786-1.579-2.141,2.02-4.245.576-1.027-.026-3.368-7.662,1.112-4.878,1.447-1.146,3.019.058,4.509-.173h0Z"  />
    <path id="path6782" d="M367.935,905.146c-.916,4.586-2.78,6.849-7.732,4.574,1.145-1.462,5.656-6.095,7.732-4.574Z"  />
    <path id="path6784" d="M383.032,889.038c1.121,2.22-5.697,1.575-.494.233.084-.33.63.17.494-.233Z"  />
  </g>    


  <path id="wales" name="Wales" d="M272.955,634.405c2.628-.982-1.392-7.322-3.537-6.042-3.845,3.258,2.991,2.3,3.537,6.042Z M284.479,643.113c3.207-1.82,5.51-7.114,9.891-9.169,6.014-3.197,1.509-6.97-2.981-3.44-3.313-3.156-3.345-10.695-10.449-10.005h0c-2.554.453-3.919,1.412-6.392,2-1.537,4.785-.33,11.09,2.665,15.573,2.545,2.386,3.56,5.317,7.265,5.041Z M357.714,740.799c-.4-2.095-2.054-.283-4.335-2.265-2.282-1.982-2.341-5.055-4.791-5.663-.684-.17-3.65,1.642-4.335,1.359-2.483-1.028-2.851-2.718-4.79-7.023-1.939-4.304-3.593-8.381-2.965-10.193,2.12-6.124,6.582-11.614,8.213-15.178.286-.622-1.198-.396-4.335,0-3.629.459-8.213-7.475-8.213-7.475,0,0,.685-1.643,3.194-2.718,2.509-1.076,6.412-.987,6.843-1.586.676-.94,1.426-4.531.457-4.984-.97-.453-3.764,3.228-4.335,3.171-1.476-.146-2.624-1.812-1.597-3.397,2.131-3.291,8.351-9.875,7.528-11.1-.228-.34-7.303-4.269-7.528-4.757-.559-1.213.913-7.249,2.282-9.967,1.368-2.718,1.711-.284,3.193-.906,1.483-.623,1.654-1.643,2.738-1.586,1.084.057.058,1.359,1.597,1.812,1.54.453,2.852-.793,4.563,0,1.712.794,1.027,2.945,2.282,3.171,1.255.227,2.738-2.265,2.738-2.265l-.685-4.757-4.107-.68s-1.711-4.927-3.421-7.928c-1.712-3.002-2.567-2.718-2.738-4.077-.171-1.359,3.137.057,2.281-1.812-.812-1.772-4.389-4.763-4.757-5.069-.135-.097-.288-.206-.483-.344-2.145-1.531-3.137-1.368-5.814-3.937-6.861-9.862-15.01,2.426-23.308.156-2.279-1.567-10.354-5.918-5.799-.481-3.401,1.743-10.147,5.355-15.123,5.575-2.272,2.175-5.601,8.773-7.447,8.115.002,4.422-3.028,8.712-7.12,11.628-5.483,2.883-10.286,6.599-12.436,12.603,1.579,1.389,2.646-1.417,4.974-.805,2.997-3.796,5.293,3.036,7.249.889-.825-6.298,7.665-9.061,13.559-8.651,6.181,1.747-.105,7.954,4.164,10.811.833,3.97,4.537,2.278,4.776,2.681-4.556,2.315-8.453,10.539-2.033,13.633,4.709-2.228,4.754.79.27,1.524-2.339,1.426-1.713,9.592-4.25,13.379-2.706,6.971-9.836,8.975-14.725,12.87-1.801,4.15-9.421.372-10.915,3.74-2.036-.076-3.07,4.503-6.509,5.094.744,4.501-4.07-.016-5.031,3.063-1.232-.285-7.352-3.724-6.14,1.199-1.693,3.332-7.562,3.787-9.779,6.224-2.418,5.383,5.075.083,7.931,3.81,2.105,4.619-.183,6.216-3.496,7.945-3.88.513.783,1.891,1.365,4.248-.036-5.035,6.417.128,10.006-1.919,7.43-1.195-2.704,2.493-4.207,1.736-1.292.57-5.816.035-.782,2.004-.013,2.885,3.612,4.931,6.496,3.725,1.981-4.168,6.93-1.399,9.593-3.796-.288-6.762,7.498-5.064,12.408-5.956-2.101-4.474,1.084.189,2.445-2.681-.17,1.55,5.054,5.351.653,3.669-1.388,2.717,4.585,5.075,7.576,3.401,1.77,3.701,7.935-1.696,5.146,2.427-4.167,3.481-6.973-1.095-9.509,2.836-.463,3.397,2.019,5.975,5.301,4.784,2.305-2.245,6.319-1.074,9.082-1.256-3.758-3.784,5.165-5.359,6.453-3.599,4.164,2.163,2.765,10.638,7.717,9.78,5.014,7.321,15.251,8.213,22.527,4.981-.74-5.094,5.155-7.022,8.272-10.683,2.217,2.126,7.2.169,10.759-1.707v.003c.373-.805.638-1.665.638-1.665,0,0,1.451-10.551.569-15.18Z M342.654,634.896s.017.014.037.03c1.359.969-.037-.03-.037-.03Z"/>

    <path id="england" name="England" d="M432.82,822.244c-5.238.977-3.984,9.239-10.815,6.704-2.409-3.661-10.254-6.229-11.054-6.071,1.968-4.315,6.671-2.735,7.945-4.635,3.527-5.415,8.05.685,12.545.416.126,1.225,2.761,2.48,1.377,3.585h.002Z M342.748,499.831c5.91-.539-4.368,3.635.767,2.743-.697,5.29-8.72-2.887-11.256,2.767,2.634,1.15.977,4.82-1.905,2.469-2.014-.569-5.721,6.545-5.089,9.836-5.948,4.834-5.278,12.789-8.471,18.671,1.481,6.417,11.139,11.687,10.078,19.277,1.099,3.116,6.263,9.522,7.475,4.39,1.376-8.531,2.574,3.527-.07,4.135-.424,3.183.973,4.941,3.411,6.887.558.73,3.31-3.471,4.618-6.168,1.177-5.647,2.234-.427,4.876.127.933-1.564,7.752-5.64,4.974-2.526,3.767,4.844.708,7.571-2.771,11.092-.066,4.12,3.476,2.073,2.188,5.434,1.526,2.328-4.62,2.4-7.689,3.034-2.889,6.714-2.509,19.581,8.101,14.62-2.965,2.59-9.823,7.169-11.612,13.463,3.09,5.124,3.502,12.491,9.082,15.862,2.096,4.336,9.327-1.566,7.007,2.71-4.754,7.296-11.684-3-12.337-8.369-9.666-.884-5.37,10.181-4.019,12.681,2.226,2.082-.045.084,2.101,1.615,2.144,1.531.446.314.446.314,0,0,3.938,3.23,4.794,5.099s-2.452.453-2.282,1.812c.171,1.359,1.027,1.075,2.738,4.077,1.711,3.001,3.421,7.928,3.421,7.928l4.107.68.685,4.757s-1.483,2.492-2.738,2.265c-1.255-.226-.57-2.378-2.282-3.171-1.711-.793-3.022.453-4.563,0-1.539-.453-.513-1.755-1.597-1.812-1.084-.057-1.255.963-2.738,1.586-1.483.622-1.825-1.812-3.193.906-1.369,2.718-2.841,8.754-2.282,9.967.225.488,7.3,4.417,7.528,4.757.823,1.226-5.397,7.809-7.528,11.1-1.027,1.585.121,3.251,1.597,3.397.57.057,3.364-3.624,4.335-3.171.969.453.22,4.044-.457,4.984-.431.6-4.335.51-6.843,1.586-2.51,1.075-3.194,2.718-3.194,2.718,0,0,4.584,7.933,8.213,7.475,3.137-.396,4.62-.622,4.335,0-1.631,3.564-6.093,9.054-8.213,15.178-.628,1.812,1.026,5.89,2.965,10.193,1.939,4.304,2.307,5.995,4.79,7.023.685.283,3.651-1.529,4.335-1.359,2.45.608,1.694,6.128,7.238,6.275,3.021.08.877,14.849,1.064,17.693,5.002-2.511,8.044-9.786,13.985-11.769,1.781-3.226,3.722.004.313.805-5.466,4.261-8.98,11.442-12.835,17.316-5.102.2-8.408,7.785-11.497,8.793-.246,3.99-2.929,3.295-2.161,6.943,2.037,4.529-1.361,7.359-6.012,5.955-5.417,2.76-11.736,2.284-16.5-1.128-4.443.609-9.399-1.264-14.156-.339-5.196.962-16.137-.48-17.609,4.05-3.886,2.383,2.647,6.596-2.075,9.71-3.109,6.174-8.306.486-12.521,1.128-.04,2.399.582,4.896-.779,6.95s-1.679-7.435-.155-.576c1.526,6.858-1.788,11.958-6.032,16.178-5.048.794-1.862,8.776-8.329,7.959-3.47-.524-1.947,1.507-3.58,2.23-4.069-.976-3.922,4.983-5.06,9.328-5.581-.23-2.808,5.049-6.95,7.169-2.245,4.316-7.91,4.937-9.963,8.834-3.672-2.888-7.299,1.048-11.554,2.568-1.518,2.176-2.415,6.745-.213,8.384,7.036,2.898,5.063-8.259,10.659-5.307,6.879.382,8.274,6.41,11.072,10.895,1.023-.783,2.857-4.021,5.33-4.065,4.576-3.29-3.682-5.225.185-6.76,2.543-2.484.013-4.007,2.487-6.929.431-.028,1.116,4.424.967,5.024,1.784-2.941,3.578-3.843,5.969-5.589,4.506.295,4.479-3.015,5.287-6.11.756-4.045,4.029-.131,5.173-1.115,6.315,1.653,10.784-3.98,17.126-1.665,2.08,4.575,6.374-.042,2.046-1.075,5.436-2.056,5.199,7.017,10.874,4.305,4.371-1.834,5.766,6.734,9.423,5.716,3.759,1.795,6.591-.24,6.41-4.714,3.101-1.91,2.51-4.997,5.06-3.599,3.559-4.004-.666-3.443-.938-7.409,5.071-.418-.497-5.153,3.653-8.044,3.216-1.873-1.815-11.645,1.763-5.969,2.261,6.946,6.564-2.967,10.644-2.95,7.058,1.008,13.303-5.783,20.054-1.073,5.135,3.534,14.82,6.971,13.516,13.803.775-.591.7-1.848,1.593-2.414-2.31-2.759-1.445-8.556,4.207-6.237,6.421-.285,10.949,3.488,16.643,2.709,2.432-2.446,1.715-3.894,1.237-5.984-3.529.213-3.688-2.007-5.671-1.031-2.266-.792,2.243-2.306,4.506-1.99,1.121,5.322,5.152-2.946,9.38.212.446-.373.859-2.678,4.477-1.906,4.592,3.215,5.942-.504,10.105-2.357,6.947.361,5.965-5.708,1.35-8.256-6.605-3.609,2.052-.846,3.809,2.145,2.926.904,7.352,7.997,9.209,3.698-2.856-2.848-1.089-3.586,2.188-2.512-3.908,2.854,1.57,6.705,1.706.805,4.124-3.898.106,4.673,1.378,3.584,4.314,2.092.909-8.003,3.44-3.289-.372.23,5.052-.252,1.408,2.343-2.67,1.366,7.779,7.457,6.41,2.498,1.764-1.445,11.442-2.367,16.288-3.415,10.143-4.59,20.019,2.673,29.576,4.558,3.644-6.885,11.769-6.955,18.576-9.328,3.319-5.654,8.639-4.433,14.028-3.133-1.864-6.674,4.608-12.18,10.786-12.602,5.282-1.139,11.635-5.565,8.742-12.292-3.564-4.945,3.367-4.565,2.36-9.554-1.526-.68-3.397.096-4.989.268-8.496-.77-16.332,5.213-24.46,1.99,2.952.845,10.029-1.457,3.34-4.531-3.247-1.78-6.742-1.182-6.893.481-1.064.081-1.218,3.847-4.563,2.032-5.509,1.088-.567-4.806,2.943-3.416,4.473-2.618-5.761-4.361-8.286-3.542-1.105.541-6.723,4.52-4.392,1.891,1.598-4.906,7.657-2.937,10.503-5.264,4.239.87,9.304.47,12.294-3.881,4.304-3.312-1.423-1.947-2.217-1.567-4.98-3.298,1.724.385,3.34-3.048,3.165-4.747-.816-9.13-5.173-5.123-1.692.843-4.335,1.056-4.421-1.257,5.93,1.331,6.717-5.092,12.08-5.207,2.768,4.986,9.795,1.751,12.55-2.456,3.002-4.96-.969-.167-3.07-2.541,1.824-2.067,6.718-6.028.298-4.953-5.403.716-3.68-2.271.37-.776,5.678,1.874-.955-5.446,2.97-1.891,1.971,7.314,6.731-1.446,8.4-4.898,5.863-.642,7.558-7.436,7.263-12.899,1.155-7.092,6.088-13.386,6.296-20.336-.899-9.371-1.53-20.584-11.612-25.289-5.447-6.86-14.193-6.927-21.688-9.71-4.716-1.27-.411.649-1.691,1.073-5.631-.808-9.896-.895-16.104-.664-5.658-1.982-8.505,3.95-9.266,9.202-2.711,2.457-1.997,7.549-5.031,2.752-6.585,2.856-7.227-10.07-14.326-5.828.792-3.073,5.678-7.252,8.599-11.064,5.494-3.272,8.853-8.224,6.41-14.734-2.936-8.937-5.265-18.289-14.028-21.691-2.84-5.087-8.101-5.317-11.611-10.359-1.181-6.191-6.195-3.461-10.489-3.472-3.221,3.386-5.721-.808-8.229-.508-5.346,2.705-3.349-1.607,1.051-1.863,5.27,4.837,13.462-4.096,17.511,1.581,3.154,4.604,7.714,6.854,12.834,4.882,5.179-.358,1.872,7.628,3.98,4.121.182-7.096-7.119-12.535-10.19-18.742-4.646-5.974-10.295-19.082.242-21.86-1.815-3.118-10.395-2.317-8.627-7.296-5.704-2.097-6.579-6.79-8.257-11.982-3.002-3.861-3.261-9.227-8.812-10.274-5.167-5.848-13.153-5.496-19.158-9.611-4.553-3.778-2.389,3.424-5.941.974,1.915-2.653-.694-4.82,1.052-6.943-7.32-3.436-7.622-12.766-8.656-19.659-2.52-5.491-5.285-9.985-6.822-15.721,1.055-4.602-3.659-8.241-1.932-13.011-2.128-3.555-1.519-7.241-1.365-11.46-1.474-4.637-1.036-8.743-4.733-12.024-4.034-.899-2.621.087-3.98-3.077-1.096.886-3.695.135-4.52-3.415-2.979-2.693-6.252-6.172-8.27-9.744-2.018-3.573-.75-.257-2.012,1.746s-2.248,2.21-2.747,3.202c-.488.968-.944,1.578-1.614,2.242-.544.54-1.496,1.165-2.097,1.763-.567.563-.653,1.769-1.129,2.242-.703.698-1.264,1.462-2.097,2.082-.832.62-1.031,1.048-1.291,2.082-.183.726.026,1.704.161,2.242.2.796.276,1.669.645,2.403.458.908,1.71,1.858,2.259,2.403.383.38.61,1.919,1.129,2.563.419.521.164,1.932.323,2.564.241.956,0,1.787,0,2.723,0,1.208-1.237,1.655-2.097,2.082-.807.401-1.21,1.549-1.614,2.082-.606.803-1.166.659-2.097,1.121-.754.374-1.362,1.637-2.259,2.082-.096.048-.215,0-.322,0-.967,0-1.884,1.231-2.42,1.762-.762.757-1.691,1.181-2.742,1.442-.612.152-1.545,1.163-2.097,1.602-.746.593-1.702,1.584-2.42,1.763-.736.182-.783,1.184-.968,1.922-.223.89-.411,1.457-.806,2.242-.412.818-.87,1.247-1.291,2.082-.548,1.089-1.382,2.013-2.258,2.883-.858.851-1.566,1.258-2.581,1.762-1.15.571-1.44,1.159-2.581,1.442-.685.17-1.561,2.137-2.098,2.563-.61.486-1.251.591-2.097.801-1.05.261-1.284,1.121-2.581,1.121-.455,0-1.481,3.401-1.853,3.678-.373.278,3.389.398-.143.965M400.957,445.435c-2.51,2.302-4.574-3.002-.138-.357l.138.357ZM513.939,654.153c3.711,1.442-4.034.374-.378-.021l.378.021ZM538.916,735.383c-1.064,1.838-1.28-.99,0,0ZM527.041,742.73c-5.27,2.724-3.763-2.244.593-.669.589.527-.205.676-.593.669ZM195.702,872.075c4.204.999-2.232,1.085,0,0ZM195.349,874.844c2.31,2.22-3.013,1.915,0,0ZM193.452,872.758c3.191,1.725-1.226,1.887,0,0ZM269.759,785.178c1.356,3.987-2.072,2.89,0,0ZM334.127,565.208c-2.357,3.645,6.185,10.29.392,6.012-.565-1.452-2.879-5.755-.392-6.012ZM338.043,530.461c.202-.029.456.238.768,1.002-1.472,4.837-1.645-.875-.768-1.002ZM346.954,544.912c.104.004.287.1.583.311,3.354,1.946-1.392,13.713.227,5.673,1.797-1.482-1.535-6.01-.81-5.984h0Z"/>
    <path id="scotland" name="Scotland" d="M373.719,132.859c1-2.301-1.193.037-2.008-.049-2.395,3.746,1.708,3.443,2.008.049Z M408.006,117.821c-3.121,4.557.797,3.739,1.404.099.63-.666-1.135-.443-1.404-.099Z M401.579,295.875c-3.035-2.343-1.753-7.96-3.44-9.836-3.286-4.243-6.385-6.45-11.712-6.435-2.959,2.824-6.823.892-9.863.902-5.13,3.32-13.009-.514-18.96-.211-4.307-1.788-8.092-1.973-11.739,1.002-8.385,1.394-17.841-9.351-24.233-.142-4.864.913-9.761,1.387-13.26,5.885-2.587,2.666-14.773-1.057-10.347,2.837-2.661,2.431-5.399,7.92-9.607,5.926,4.288-2.723-3-5.412,2.103-4.163,1.357-2.122,4.42-2.109,4.833-4.982,2.433-3,6.313-8.314.07-4.798-4.544-1.47-8.721.157-12.194,5.108-4.528,5.588-3.689-.389.555-2.526,1.517-5.396,7.222-2.834,10.403-6.576,2.915-3.237,5.434-1.731,4.619,2.23,4.129-2.861,7.329-8.359,10.475-12.857,1.171-5.805-1.882,1.178-4.051,1.299-4.787,1.762-.685-.014-3.553-1.369-3.368,2.093-9.215,1.676-11.185-1.905,3.329,1.181,8.787.902,9.182-2.738-.938-3.757.947-7.159,5.471-8.581,1.893-3.662,5.465-5.985,9.11-8.721,5.868-3.652,10.061-9.534,14.028-15.115,7.148-2.272,12.415-7.052,14.369-14.154,3.851-4.457-1.007-2.633-3.084-4.121-1.445-5.079,5.019-8.699,4.974-13.519-2.77-1.484-6.966.275-10.091-1.242-2.685,2.178-5.353-1.385-6.708-1.299-.531.048-.86.64-.91,2.357,5.478,4.402-1.393,2.826-4.421,3.218-2.709-.157-3.071-2.531-7.234-1.51-4.551,4.746-9.79,5.625-15.747,4.714-1.198-6.573-2.182,3.606-5.827-.169-1.642,3.155-3.672.489-5.103,3.161-.095.146-6.503-1.775-8.243,2.992-.788,3.868-4.388,5.894-1.635.55,6.843-4.647-8.252-11.608-6.083-4.601-3.531,2.205-4.376,7.379-7.619,8.27,2.05-4.152,7.383-9.347.782-10.994-2.123-4.74-.37-.172-2.9.848-.805-4.087-5.475-3.964-8.656-5.434-.799,1.886.027,4.253-.994,6.125-4.091,2.803-4.967,7.94.355,8.764,3.797,3.654-3.949-.799-3.411,3.148-.918.474,6.223,4.261.44,2.201-3.063-3.435-4.48,6.637-2.487,6.309-2.277,3.511,8.974,6.225,7.845,6.252.649,3.004-.693.175-3.255.113-3.282-2.948-4.475.969-7.546.155-3.574,3.36-6.957-1.922-8.755.466,2.649,2.817,3.276,7.324,7.163,8.213-1.815,1.716-.286,1.865-1.62,3.049,3.348,4.262-2.636,2.731-4.377,3.74-1.601-4.861-6.623-1.893-2.658,1.397,2.203,2.444,6.28,6.388,10.617,8.2-2.209,3.142,1.392,4.659,4.305,7.014,2.221,5.726.016.702-2.728-.733-2.28-3.865-6.832-1.072-8.244-4.629-5.485-.364.202,2.946,2.474,4.911,6.245,3.027-1.402,2.444-3.113-1.044-5.194-5.024-3.11,6.913-8.343,1.679-.043-4-4.714-6.482-5.003-1.327,1.19,2.218,4.672,7.142,2.118,8.115-.587,1.239-1.532,2.622-2.871-1.326.027-5.509-2.532-5.411-6.879-4.898.742,3.795-1.669,11.915,4.762,11.629,4.047,4.694-2.784.276-3.411,3.457-3.827,4.209,2.683,4.481,2.728,8.666,2.207,1.512,1.869,3.241,6.779,2.484,6.73,2.623-5.372.291-3.113,3.006-2.121.4-2.695-3.989-4.732-2.709-4.261-7.019-6.328,3.695-5.217,8.425,3.402.133,2.326,2.997,2.317,4.94-1.112,6.124,6.668,1.777,8.911-1.086-2.784,5.975,5.002,3.075,7.164-1.074,1.637,2.199-5.903,6.812-9.594,6.493-6.623,4.312,1.624,5.961,5.585,5.009,1.566,1.878,7.026,4.207,6.496,4.854-4.331-.257-6-6.069-10.546-2.441.35,2.876-.602,4.565-2.416,7.62,2.685,1.332,6.444,2.157,7.717,4.629,6.112-1.748,1.209,1.702-2.004.339-3.129-5.969-13.612,1.287-8.556,5.193,4.734-2.675,1.794,5.123,6.879,3.641,6.605-2.273.175,1.57-2.757,1.073-2.437-2.365-7.733-5.336-8.372.395-1.688,2.51-.246,5.756-1.563,6.237-5.783,1.992,4.148,1.071,6.766.917-5.158,1.547.589,4.452,2.032.635,1.959,3.576-7.8,1.956-7.859,5.391,4.932,1.287,2.86,3.925-.356,3.218-.653.108-1.319,3.778-4.05.156-4.03,1.245-9.983.261-12.649,3.683h.028c-.683,6.292,8.978,2.766,12.265,4.022,4.118,2.403,7.152-2.395,10.929-2.074,2.213,2.918,11.349.203,3.98,2.484-4.299-2.217-7.705-1.134-11.043,2.23-7.78-2.808-6.16,5.27-1.023,8.256,4.942,1.044,5.641,1.23,9.024,3.825,5.948.422,8.977-10.301,13.588-11.601,1.766-4.251,5.681-4.249,7.063-7.776.123-1.395,6.66-8.399,5.244-5.136-2.809,3.538-8.036,9.411-.185,9.455,5.747-3.261.753,2.207-2.501.015-5.474.25-4.714,3.631-7.518,5.913-2.325,2.609-3.728,8.898,1.222,5.984,5.927-2.907,1.437.869-1.592,2.032-3.478-3.339-6.061,6.145-3.198,1.581.844,1.516,2.217,3.534,4.889,3.007,7.876,1.159-3.3.438-5.159.423-2.664,5.333-7.139,9.122-6.978,15.764.468,2.955,2.976,3.524.199,6.83-2.894,6.447.823,2.579,2.956-.804,1.594,1.474-3.733,6.445-.398,8.185-4.232-1.118-4.919,5.391-7.674,8.537-.576,6.449,1.336-.003,3.17-2.285,4.161-6.244,1.901,1.941-1.905,5.193-2.764,5.047,1.565,4.635,3.838.988.765,1.264-6.573,7.775-2.673,11.474,2.619,4.437,6.011-1.51,8.527-4.586-.322,4.17-7.048,7.897-8.784,12.8-1.733,4.835-3.472,11.475-2.771,17.57-1.338,4.342-6.249,7.303-4.661,13.011,4.59,2.68,15.67-1.112,13.033-7.719-3.687-2.12-.343-3.183.525-6.548.439-3.407,3.05-7.317,2.076-9.47-1.894-5.391,3.095-11.645,7.205-14.62-3.021-6.576-6.316-11.606-5.983-19.038,1.191,2.05,4.965-.064,6.026-3.231,1.54-6.242,9.704-6.742,10.773-12.942.901-.32,7.504-5.114,6.183-2.469-5.745,1.559-5.148,7.621-10.134,9.314-3.818,3.384-8.465,9.01-8.414,14.113-1.208,4.977,1.495,9.581,6.551,10.457-1.913-3.904-.504-6.649.427-10.556.25,1.6,7.598,8.081,4.618.917,1.685-4.506.791,7.126,3.838,7.493,3.251-1.525,4.57-9.262,3.88-10.739,2.219-.271,1.912-7.585.753-10.105.5-7.743.334,5.612,3.213-.268.71.683-4.096,7.689-.298,10.669,6.612,1.901.557-2.972.327-5.956,2.881,2.447,7.642,9.881,14.042,10.091,3.739,1.773-6.176-.309-8.357-.352-6.972-5.607-10.155,4.614-8.357,10.556,5.045,4.143-4.429,8.573,2.204,10.825,1.069,4.205,9.298,3.626,8.229,9.596.295.966,4.169,5.029,1.378,8.397-5.692.715-5.576,6.522-8.997,9.653,1.08,7.49-5.761,11.218-8.272,16.822-3.391,5.463-1.187,11.081,1.521,15.792-5.852,2.788-1.504-9.675-7.291-7.522-5.403,5.942,2.083,14.841,6.097,19.221,4.083,2.571.146,8.926,6.154,10.26,1.143-1.018-.283-5.288-1.919-7.761-2.988-4.48-1.841-8.534,3.766-10.232,2.523,1.449,6.237,4.508,9.693,5.969,3.447,3.066,5.716,8.134,11.27,8.213,2.84-1.698-.863-7.181,1.45-8.482-1.431-2.842-5.933-5.675-2.403-9.088.975-.047,2.556,5.913,6.396,5.081,3.613-4.853,1.137,1.98,3.639,3.373,3.67,4.105,3.971.494,5.471-3.175-1.477,4.31,2.418,7.548,6.026,3.881,5.131-2.127,2.554-3.74,4.336-6.76-.208.808,1.93,2.613,5.23-.339,4.446.819,7.657-.619,6.311-5.617-1.347-4.908,1.616-1.038,2.757-2.921,2.666-.182,6.218.679,9.946,1.186,3.729.506,6.99-.301,10.522-.867,3.532-.567-.23-.687.143-.964l.002-.007c.372-.277,1.398-3.678,1.853-3.678,1.297,0,1.531-.86,2.581-1.121.846-.21,1.487-.315,2.097-.801.537-.426,1.413-2.393,2.098-2.563,1.141-.283,1.431-.871,2.581-1.442,1.015-.504,1.723-.911,2.581-1.762.876-.87,1.71-1.794,2.258-2.883.421-.835.879-1.264,1.291-2.082.395-.785.583-1.352.806-2.242.185-.738.232-1.74.968-1.922.718-.179,1.674-1.17,2.42-1.763.552-.439,1.485-1.45,2.097-1.602,1.051-.261,1.98-.685,2.742-1.442.536-.531,1.453-1.762,2.42-1.762.107,0,.226.048.322,0,.897-.445,1.505-1.708,2.259-2.082.931-.462,1.491-.318,2.097-1.121.404-.533.807-1.681,1.614-2.082.86-.427,2.097-.874,2.097-2.082,0-.936.241-1.767,0-2.723-.159-.632.096-2.043-.323-2.564-.519-.644-.746-2.183-1.129-2.563-.549-.545-1.801-1.495-2.259-2.403-.369-.734-.445-1.607-.645-2.403-.135-.538-.344-1.516-.161-2.242.26-1.034.459-1.462,1.291-2.082.833-.62,1.394-1.384,2.097-2.082.476-.473.562-1.679,1.129-2.242.601-.598,1.553-1.223,2.097-1.763.67-.664,1.126-1.274,1.614-2.242.499-.991,3.274-3.124,4.536-5.128-1.454-4.635-2.558-7.061-5.52-8.775-6.729,1.69-11.743-8.556-17.624-6.21.371-6.193-10.424-7.04-12.99-3.006.141,4.023-4.733,6.578-8.712,7-3.613-2.495-8.037-2.495-12.11-3.006-4.326-.288-9.582-2.3-14.568-2.3-6.911-1.248,2.09-5.892,5.216-1.934,5.603,4.456,9.743-2.532,15.691-1.624,1.06-5.083,6.258-8.885,10.631-12.15,5.585,2.915,11.639.127,15.578-4.629,1.737-5.759-8.713-4.126-10.148-8.171-.604-.299,2.994-7.455-2.317-7.141-5.207,1.419-10.337,5.446-15.776,7.72-4.427,1.361-6.178-.839-.782-.861,4.2-5.309,10.392-8.174,16.388-7.663,3.097-2.312,7.026,1.56,7.689-3.077,3.637-3.013,11.635-6.512,9.394-11.671,3.276-3.012,2.934-4.867,3.966-9.258,3.664-2.52,9.189-7.566,10.659-13.477-1.984-6.83,6.392-11.775,5.33-17.965-2.284-9.825,8.429-19.102,11.612-24.994,3.506-2.053-.41-4.596,1.976-5.362Z
     M360.96,148.19c3.03-5.285,3.804.995,6.026-3.826.727,5.424,1.377-4.088,5.585-2.209,2.047-8.205-6.626,4.442-7.669.369,5.281-3.908-3.811-2.39-1.365,1.497-4.217.703-5.591,9.433-2.577,4.169Z    
     M363.462,160.199c4.116-.462,2.93-1.054,2.602-3.688h0c1.051-1.397-1.706.341-2.134-.172.67-2.421-.15-3.5-3.424-3.081,3.86,2.935.176,3.239-.985,6.55,1.722.797,3.482-5.158,3.941.391Z    
     M349.273,164.077c4.61,1.283,4.285-.097,4.852-4.317-1.226-1.357-1.356.901-1.793,1.684-2.464-1.4-4.623.506-3.059,2.633Z    
     M332.497,170.117c1.851-1.981-.191-4.378,1.376-5.162,4.112-1.824-2.013,6.895,2.237,9.295,4.694-.036,6.251-2.152,11.169-3.841-.906,5.183,2.984,5.066,5.798,7.167,1.279-4.52,6.268-2.554,6.329-6.973h-.001c-.309-1.134-2.959-1.347-3.094.171-4.191,2.192-3.881-.914-1.037-2.215-1.407-1.991-5.064,2.188-5.066-.754-1.599-3.483-2.853.836-5.508-2.168-.897,2.266-4.921,2.733-4.99.78,2.065-3.572,4.798-3.072,5.723-5.608-3.412-.94-2.19-4.078-4.536-4.469-4.169-4.434-13.562-2.213-11.597,4.933-1.646,2.363-.056,12.257,3.197,8.844Z    
     M350.448,178.644c-2.208-.941-4.288,3.456.91,1.504.779-1.312-2.164.584-.91-1.504Z    
     M350.297,182.766c2.552-4.221-12.728.28-3.866-.049-3.122,1.506.472,2.221-.441,5.544,4.829,5.611,1.471-4.03,4.307-5.495Z    
     M341.492,180.609c-2.527-3.006-3.198,5.919.178,1.357-.549-.887-2.819-.566-.178-1.357Z    
     M327.722,178.158c1.586,4.094,3.656,10.074,9.261,7.851,5.293-2.471-1.647-1.86-3.059-1.161,3.506-2.024,3.061-2.409,2.451-5.016h0c-1.051-2.395-1.88-3.464-4.395-4.781-1.82-5.538-10.048,2.993-4.258,3.107Z    
     M341.062,154.188c2.89,3.987,6.1.37,5.9-2.422h0c1.229-1.846-1.856-1.673-2.943-.637-1.383-4.313-6.424.721-2.956,3.059Z    
     M349.425,152.94l-.138-.244c-3.415-2.045-.614,6.444.025.563l.113-.319Z    
     M350.538,143.8c-1.389,4.273,3.053,1.379,1.502-.687-1.369-3.311-8.51-3.042-4.673-6.857h0c.056-2.233-2.159-.161-2.035,1.353-5.679-.778-1.512,2.102-.455,5.307,1.984.683,2.001-3.377,5.661.884Z    
     M351.119,134.287c-.32-2.54-1.481-.711-1.338.567-1.404,4.809,1.498,3.553,1.338-.567Z    
     M354.757,153.723c3.857,2.628-.303-3.919,2.88-6.097-1.72-3.07-3.659-4.257-2.803.98-.795,2.341-2.91,1.548-.077,5.117Z    
     M221.98,407.657h0c-3.379,2.249-10.054,6.285-12.507,11.485-3.1,5.991,5.531.886,6.833,2.982,1.828-4.496,6.548-9.677,5.674-14.467Z    
     M224.899,397.984c-1.672-1.596-.447,1.976-.948,2.529-.611,6.782,2.919-.417.948-2.529Z    
     M196.106,415.528c1.866,3.323,4.65-1.521,5.976-5.957-1.541-.239-5.269,2.459-5.976,5.957Z    
     M194.92,372.358c-.42.943-3.951,5.471,1.895,4.346,4.541,1.218,5.924,6.602,10.978,2.546,1.647,3.744-6.892,2.984-7.05,7.534-5.306,4.295,2.564,3.881,5.319,1.927,5.027-.992-5.549,5.336-8.289,3.328-.337,1.778-1.544,2.225-3.361-.362-6.095-.508.652,9.872,2.604,4.794,6.747.017,12.701-2.074,17.812-5.587-4.259,5.841,7.76,1.863,7.303-2.468-4.287,2.54-1.64-2.776-.847-1.292,3.059,2.392,1.787-2.686,2.932-3.923h0c-2.11-1.668-6.249-5.48-8.717-5.496-4.067.374-6.117-2.373-7.834-6.236-.907-5.725-10.948-6.613-8.742-.751-.961-1.853-7.638-.233-4.004,1.64Z    
     M234.057,374.816h0c.169-1.825-5.926,4.259-6.482,5.592-3.314,4.433,5.609-2.833,6.481-5.592Z    
     M201.602,381.862c.701-.675-.558-.861-.897-1.181-5.269-3.551-3.626,3.132.897,1.181Z    
     M169.791,376.203c-4.072-.122-8.02,2.853-5.85,6.453,4.369,2.597,2.409-4.304,7.112-2.884.529-2.952,2.89-1.979,4.537-3.864h0c-1.129-2.756-3.342.44-5.799.295Z    
     M187.818,364.103h0c.475-2.026-4.656,1.016-5.355,2.419-2.463,1.44-6.787,6.835-5.471,6.428,3.96-.308,9.695-3.01,10.827-8.847Z    
     M200.187,344.151c-4.07,3.421,5.392,5.668,3.663-.414-2.479-5.063-1.938.84-3.663.414Z    
     M195.89,334.162c-1.721-4.368-10.819,2.674-6.821,3.664,1.559,4.378,8.315,6.629,8.352-.07h-.001c-.38-1.06,1.021-2.904-1.53-3.594Z    
     M184.054,331.878c-5.864,1.466-1.086,2.795,2.261.715.186-1.088-1.639-1.072-2.261-.715Z    
     M184.674,306.02c1.414-2.613,2.436-.144,3.058,2.14,3.116-1.216,2.921,1.314,5.648,4.089-.172,1.218-5.677-5.901-6.822.441.38,2.14,4.283,5.792,5.558,5.775-4.986,3.455,7.201,2.186,2.21,4.886,1.351,2.36,7.963-3.481,9.563-.486-.842,7.403,4.308.326,3.538-3.126,1.314,2.641,4.448,4.702,7.896,2.478,1.099,1.358-8.956,3.035-7.075,7.998-2.373,3.324-.822,7.935,3.133,3.945,1.875-2.943,5.883-5.817,6.796-9.051-.346-3.069,7.733-2.91,6.216-8.382-.911-1.794-3.046-1.728-4.863-1.879-4.147,5.15-8.969-.876-13.165-.255-.591.006.767-3.484-2.262-4.109-2.264-1.862-.097-6.193-3.26-6.442.871-.919,2.292-9.8,1.277-14.492h0c-.681-1.575-1.191-4.699-3.537-4.985.227-2.985-7.061-7.731-5.837-4.69-2.284,2.851-5.002,6.455-.948,8.858-5.06,2.401,5.97,11.665-.151,7.081-1.38-6.074-3.359,5.436-2.969-.351.452-.388-4.748-1.717-6.392-4.86-.972-6.5-4.809-1.491-1.755,1.964,3.332,3.459,1.255,2.394-.455,4.087,1.891,3.509,2.588,6.466-1.453,2.869-.597-4.181-6.625-5.102-3.638-.14-.245.12-4.883,1.121-1.289,2.89,1.025,4.372,4.682,5.586,8.655,7.468.094-2.496,1.92-9.346,2.323-3.721Z    
     M208.752,308.695c-.565-3.708-2.001-8.089.834-12.112h0c-1.292-2.644-.645,3.884-2.88,2.822-2.16,2.153-2.923,13.877,2.047,9.29Z    
     M171.156,269.461c.665-.269,4.257-1.52,1.806-3.936-4.866-4.621,3.959-.839,4.649-2.996-1.138-2.36-5.118-8.88-1.138-12.131-.982,2.445-.517,9.288,3.916,10.053-1.438-5.884,2.465,3.292,3.21-1.109,2.51.773,6.968-5.24.87-6.693-.194-1.362,9.13,2.719,7.745-3.767-.362-6.095-2.281-2.845-7.301-2.656,1.314-1.432,10.232-2.646,7.024-7.15-1.85-4.218.683-1.481,2.489-1.951,3.005,1.088,6.379,1.448,8.224-2.332.775-8.154-5.152,4.259-9.349.309.073-2.486,4.293-6.963,7.468-9.803,1.104-.586-3.242-4.46.606-6.863h0c-.645-3.652-.895-6.211-4.271-8.657-1.969,4.525-10.524,6.829-12.645,12.795-2.22,1.633-7.224.8-9.337,4.182-5.961,1.384-2.024,8.323,1.378,11.035.051,2.946-6.891-3.325-7.607,1.166-5.316-1.615.166-2.28-3.044-4.641-.81,1.265-5.088-3.071-5.179,1.977,4.57,2.892-1.927.988-1.87,3.14-2.403,3.155-.495,7.409,1.793,9.378-1.571,1.354,4.066.865.064,2.607-3.733.838-3.428,3.512.253,5.821,3.676.033,8.504,1.494,9.891,4.512-1.76.325-9.005-.892-4.75,2.123.18.547-3.88,1.87-4.926,3.49-2.203,4.412-1.16.419-4.688-.166.878,2.927,6.318,8.074,8.376,9.247,2.314-2.393,3.478-7.451,6.343-6.984Z    
     M173.227,235.222c-.797-.971-1.904-1.15-2.298-1.834-5.575-5.066,1.946,6.577,2.298,1.834Z    
     M163.916,262.247c.006-1.106-.407-2.834-1.643-1.346-4.601,2.598-1.013,3.686,1.643,1.346Z    
     M154.983,281.564c-3.913-5.059-4.52,7.022-7.213.915.911-5.925-2.101,2.887-3.892,1.781,1.776-2.942-.165-1.329-2.83-1.734-1.178,2.403-5.07,5.687,0,7.657,3.618-4.639,8.536,8.88,8.591,2.688-.9-3.756,2.764-1.285,7.176-2.057,3.189-4.349-1.969-1.363-1.919-4.657-2.777-4.089,4.44,2.489,4.762-1.265h-.001c.914-3.511-8.247.942-4.674-3.328Z    
     M152.799,301.084c-1.024-2.622-3.536-2.52-5.572-4.361-9.362,1.381,4.622,12.325,5.572,4.361Z    
     M147.227,304.741c-6.07-.986.991,4.573,4.131,4.489-1.593-2.137-.936-3.154-4.131-4.489Z    
     M147.216,308.697c-2.773-1.311-4.565-5.203-2.793.326-1.416,6.36-2.223,10.298-.593,16.736.253,3.837,8.42,4.518,8.4,2.103-.593-2.16-8.77-2.754-2.854-3.005,3.948-.8.034-5.149-1.938-6.355,2.996.935,4.168-3.035,5.992-5.532h.001c-.748-1.274-3.513-3.147-6.215-4.273Z    
     M143.186,334.023h0c-.189-.383-.629-.437-.923-.692.62.67-4.174,3.339-2.918,4.701-4.473,3.07,1.091,5.062,3.815,3.153,2.261-2.696-.398-3.899.027-7.162Z    
     M137.778,341.99c-2.469,2.37,2.072,3.41,2.425,1.058,1.285-.561-2.128-.4-2.425-1.058Z    
     M444.1,15.536c-1.95-2.939,1.515-6.242.848-8.055.985-2.177,2.335-3.054,1.554-5.786-.273-.107-1.148-.043-.999-.566-1.901-1.843-4.52,9.011-3.701,3.344,2.184-3.483-.55-4.682-1.643-.926-1.396,2.371-.828,8.239-2.161,9.22-1.398,4.793,4.646,2.648,6.102,2.769Z    
     M437.316,21.269l-.1.076c-3.772,2.641,2.15,1.281.1-.076Z    
     M442.168,21.294c-6.499-3.962,1.186,10.003.38,2.914,2.285-.566,3.427,4.088,4.41,0h0c.378-2.307-2.457-3.297-4.789-2.914Z    
     M437.733,47.387c1.196-.954,1.441-2.522,2.591-3.525,1.607-4.495-9.343,5.643-2.591,3.525Z    
     M431.241,64.849c-.8,2.984,3.522,5.461,3.057.781,1.814-4.666-5.457-6.095-3.057-.781Z    
     M427.285,61.647c3.143-5.237-1.042-1.445.518-3.988-2.343-.865-.037-2.22-.138-4.399-.305,4.371,6.052,1.088,3.056-.707-3.072.075,5.563-5.066-.808-4.811-4.614-2.117,6.406-.367,3.12-5.479-5.341,3.22.414-1.841,1.44-4.93-3.159.745-3.822,4.12-5.179,5.006-.322-3.104-3.328-.794-2.968-2.032,2.977-1.326,3.775-1.69,1.174-4.984h0c-.292-5.975-3.507,2.811-3.803-1.221-1.956,2.661,4.524,4.025-1.579,4.325-2.006,5.578-3.073.991-.354-1.831,1.515-3.621-.392-2.41-.529-3.716-.142-3.916.529-3.291,1.023-7.575,1.873-2.272-.692-8.349-.62-2.682-.138,1.175-6.194-2.022-4.661,2.963-5.281,2.225.907,5.519,1.061,6.402-4.639,1.328-6.054-9.464-6.961-1.096-3.949,1.042-2.111,5.429.695,3.006,3.471-1.782,1.012,5.08,3.702.535.902-1.14.308,6.666,3.007,5.874-1.605,4.563,3.001,1.017,2.501,4.062,5.363,1.522,1.561.454.505,2.181-1.931-.129-.586,4.083-1.832,5.168-1.977-6.019-4.74-.849-4.749.532-.539-7.53-4.042,2.627-5.876-2.481-8.368-.33-2.054,12.216,2.377,7.891,1.091,3.813,2.481-5.323,3.031.48-2.154,1.072-2.521,3.894,1.326,5.904.943-3.648,2.261-1.917,3.121-4.894,4.402,2.155-5.051-7.76,1.352-3.486.846,6.173,1.176,1.149,3.638.152-1.177,2.372-3.327,9.67-.152,4.924-.327,5.078.871,9.332-1.288,15.051-2.289,4.084-.899,5.836-2.894,9.824-1.063,2.587,3.935,2.564,3.095,4.126,3.223,3.043.037-5.559,2.286-7.431-.299-4.783.592-2.849,2.325-3.734-3.115-4.312,3.602-3.983-.177-7.811-.556-3.983,1.374-4.698,3.361-6.772-2.244-2.063.257-5.424-3.146-2.346Z    
     M404.722,46.627l-.29-.102c-2.858,2.656,6.035,1.623.29.102Z    
     M433.134,22.266c5.034,1.819-2.454-8.858,2.679-2.634,2.191-.423-.165-6.263.504-8.095h.001c-3.676-.425-6.183-1.173-5.242,4.152-.881,3.279.645,10.059-1.276,3.611-3.446.344-1.832,11.009.568,14.166,2.047-1.721.424-2.068,4.636-1.147-.664-4.628,2.141-7.042-1.87-10.053Z    
     M246.767,425.753c-5.238,3.236,3.254,6.602,1.933,10.971,2.656.877,5.742,7.692,4.434,2.007,1.682-5.09-2.747-9.46-6.367-12.978Z    
     M250.392,459.217c-2.485-1.872.77-3.525-1.326-6.207-1.639-2.826-.576-10.563-6.899-11.227-2.449.741-6.08,3.599-6.126,7.963,3.012,5.704.587,13.453,8.628,14.893,4.398.715,6.881-1.789,5.723-5.422Z    
     M219.085,444.677c-.341,5.785,3.454-1.16,2.036-3.607-1.518-.094-.738,2.361-2.036,3.607Z    
     M202.523,425.663h0c.296-3.834-6.113,2.593-7.731,3.713-1.066,3.551-2.557,5.685-1.655.179.243-1.029-5.575,1.169-5.672,3.218-1.375,3.065,1.28,4.803-.86,7.206-4.562,4.362.059,8.466,3.677,2.65-.163-3.62,5.312-7.594,5.9-4.099-7.177,1.812,1.878,5.483-.594,8.794-6.702,2.844,2.246,9.521,2.857,1.978,3.824.483,6.735-1.796,8.944-4.225-.118-6.49-5.996-12.387-4.865-19.414Z    
     M212.846,422.863c-10.512-3.366-11.641,15.535-2.565,12.456.493-6.571,5.255-6.245,5.105-12.926-.195-.903-1.868.412-2.54.47Z    
     M258.705,436.167h0s-.113-.379-.113-.379l-.203-.156c-4.892,3.181,1.664,6.156.317.535Z" />
    
  <path id="northern_ireland" name="Northern Ireland" d="M232.531,534.339c-1.853-3.385-1.956-12.017-7.476-9.977-4.746-.895-9.366,1.643-11.952,5.518-2.931-6.502,6.258-8.322,9.607-11.685,3.514-3.873-5.994-11.712-3.411-5.659,3.168,3.762,2.427,2.536-1.137,1.043-1.142-4.252-3.346-9.162-6.836-12.559-4.335.221,1.946-9.286-4.747-6.309,1.465-5.46.054-16.554-8.314-12.179-2.555-1.431-6.543-2.82-9.92-2.766l-.003.002c-1.536.025-2.947.352-4.036,1.101-5.121,1.769-9.378,5.068-15.363,4.727-5.326-4.162-3.551,1.5-5.757,5.179-.659,6.321-6.167,4.126-10.531,4.12-.164-.223-.287-.451-.37-.691l-.569.466c-.44-.088-.894.198-1.222.466-.761.834-1.383-.517-2.203.324-1.594-.578-2.096,1.243-2.843,2.216-.211.799-1.419,1.425-1.15,2.216,1.646.406-.517,1.218.369,1.948-.119,1.005-.894,1.452-1.507,2.06.055,1.131-.535,2.297-.057,3.387-.106,1.204-.398,2.684-1.478,3.457.019,1.141-.694,1.928-1.677,2.385-.595,1.004-.613,2.626-.995,3.867-.475.857.383,2.725-1.193,2.526-.923-.6-1.96-.284-2.956-.31-1.3-.805-1.924.878-2.914,1.355-1.363.277-2.265,2.352-3.766,1.341-1.262-.664-1.992-2.398-3.553-2.541-1.452.076-1.282,2.035-1.833,2.908-1.012.512-.804,1.564-1.493,2.23.997.931,2.395,1.566,2.758,3.006,1.159-.163,2.423-.206,3.511.367,1.081.034,1.78,1.838,2.771.749.663-1.163,1.422.81.639,1.157-1.723,1.237-3.972,1.875-4.918,3.951-.134,1.003-1.835.745-1.72,1.623-1.526.229-3.079-.055-4.618.127-.753-.31-1.138-1.367-1.919-.254-.792.692-2.089,1.309-2.203,2.399.373,1.171-.659,1.906-1.691,1.722-.661,1.171-1.988,1.483-3.255,1.665-.47.503,1.605,1.358.285,1.863.754.723,1.613,1.461,2.203,2.371,1.209,1.383,2.112,3.367,4.036,3.867,1.369.009,1.456,1.348,1.833,2.328.918,1.304,1.949,2.866,3.681,3.119,1.516,1.449.721,3.903,1.621,5.674,2.317.758,4.958.548,7.376,1.072.596.567.645,2.115,1.705,1.087,1.357.597.748,2.342,1.805,3.105,1.332-.323,1.39,1.515,2.616,1.355.996-.452,1.789.157,2.658.551,1.264-.21,1.691-1.599,2.657-2.301.371-.675,1.661-1.652,2.004-.48.2.933-1.772,1.331-.299,1.778.823.47,2.231-.883,2.317.607.673.51,1.198,1.513,2.103.635,1.324.153,2.101-1.171,2.288-2.315.981-.717.038-1.749.171-2.625.994-.343,1.355-1.265,1.449-2.244.857.104,1.424-.483,2.303-.381,1.234-.135.607-1.463.668-2.187.551-1.01-.366-1.695-.923-2.315.68-1.366-2.132-1.023-1.265-2.173.738-.543,1.39-1.105,1.421-2.061,1.238-.219,2.201-1.057,2.927-2.032.878-1.605,2.272-2.839,3.084-4.474,1.352-.761,2.246,1.379,3.61,1.129.783.502,1.167,1.629,2.047,2.144.847.477.228,2.167,1.379,2.004,1.17.692,1.247,2.377,1.662,3.57-.806,1.183.62,2.053,1.095,2.978-.068,1.902.971,3.742,2.643,4.684.68.197,1.33,1.907,1.876.833.506-1.588,1.978-.031,2.913.198,1.231.805,1.731,2.623,1.451,4.036-.661,1.286-1.573,2.759-.796,4.248,1.027.82,1.108,3.064,2.814,2.653.521-.8,1.689-.668,2.487-1.086.963.343,1.739-.059,2.303-.847.439-.878,1.349-.651,1.762.126.424,1.268,1.576-.227,2.09.481.716-.616,2.288-.608,1.948-1.891.22-1.37,1.759.169,2.23-.876.525-.9,1.552-.776,1.905.199l.711.465c.155-.195.438-.377.91-.536,1.259,2.295,8.44,1.763,5.315,4.177,4.11,1.508,10.105-3.656,10.76-8.157-.324-4.414.703-8.489,6.225-7.945,4.592,2.707,6.445-.502,8.982-4.685.948-5.427-3.011-6.844-7.021-3.148-.235-.763,5.47-7.225,2.175-9.272-.47-2.902-1.358-3.596-2.587-5.701.04-5.551,7.051,1.374,7.164,4.177.073,4.379-2.319,7.848,1.023,11.741,2.114.081,2.824-3.989,2.643-6.378,2.878-3.819-.221-5.866-.512-9.823ZM132.017,545.942c-2.932-3.354-9.119-6.431-12.45-5.999.177-2.324,3.275-4.217,6.225-4.347h0c1.342-.058,2.656.254,3.653,1.046-.016,2.179.255,4.42,1.791,6.901,3.115-.04,2.662,9.186.782,2.399ZM141.169,564.415c1.221-1.941-4.949-6.181-4.946-7.96.765-.492,1.323-.698,1.749-.706h0c1.516-.026,1.364,2.465,3.212,3.388.415,3.581,4.117,6.988-.015,5.278ZM187.219,513.893c1.42,6.099-3.239,1.582,0,0h0ZM196.4,531.28c-4.239,2.172-3.131,5.752-5.003,7.762-2.855-.198-4.636-3.54-8.385-1.172-6.063-4.371,5.752-7.399,1.705-13.083-1.354-2.262.466-5.419,1.72-5.461.57-.019,1.025.611,1.01,2.258,3.341,2.99,7.872-3.295,10.417.438-1.872,3.338-5.734,7.422-1.464,9.258Z"  />
  
</svg>