<?xml version="1.0" encoding="utf-8"?>
<!-- Generator: Adobe Illustrator 26.3.0, SVG Export Plug-In . SVG Version: 6.00 Build 0)  -->
<svg id="wales-constituencies" version="1.1" x="0px" y="0px" viewBox="43 73 867.2 1113.7">
<g 	transform="matrix(0.7519556,0,0,0.7519556,163.13239,-480.90984)">
	<path id="Aberavon" name="Aberavon"  pointer-events="all" d="M482.3,1830.1c0.5-3.7,0.3-7.4,5.3-7c9.1-3.6,9.4-18.1,18.5-19.9c7.1-6,14.1-21.1,24-21.1
		c4.8,2.3,2,11.2,2.9,15.6c-1.4,5.1-3.3,8.9,1.2,12.9c1.4,5.8,11.1,15.7,3.1,16.4c-7.3-1.4-11.6,6.5-19.7,0.8
		c-6.9-0.2-13.9-6.1-17.5,6.6c-2.1,4.4-1.7,9.1-2.2,12.9c3.5,4.1-0.8,3.3-3.6,3.1c-3.8,11.4,8.5,16.7,11.8,21.9
		c1.6,0.9-0.9,4.4,2.6,6.3c0.9,8-2.7,10.6-9.6,9.8c-5.4,0.4-6.1,3-9.1,6.6c-5.4-3.8-11.8-1.2-16.1-5.9c-2.4,3.5-5.7,0.5-8.4-0.8
		c-2.3-8.6-7.1-19.6-14.6-19.2c-5.9-5.3,4.3-6.4-1.2-9.4c-6.7-7.9-14.3-15.1-21.4-9c1.4-7.2-4.2,0-5-6.3c2.7-2.6-2.5-5.9,0.5-11.3
		c3.7-4.4,4.1-12,5.3-15.3c3.1-1.9,4-12.1,6.5-5.9c2,2.2,7.4,0.2,7,6.6c-1.1,5.5,8,7.8,9.8,8.2c3.1,0.5,8.5,0.1,10.8,3.1
		c-0.4,5.1,3.2,8.4,6.5,4.3c3.4-7.8,5.9,1.4,9.4-2.3C479.9,1830.5,481.1,1831,482.3,1830.1L482.3,1830.1z"/>
	<path class="Aberconwy"  name="Aberconwy" pointer-events="all" d="M391.3,991.1c-3.6-4.4-6.6-4.6-3.6-9c-4.9,0.8-10.3-1.2-9.4-8.6c0.3-5.8-3.7,0.3-6-2.7
		c-0.7-4.2,3.9-10.4,4.1-11.7c1.7,1.2,9.4,1.4,7.4-2c-3.7,2-12.1,4-4.6-7c4.1-12.5,18.9-7.3,16.6-26.2c3.1-7.3,13.7-8.5,9.6-19.6
		c-9.9-4.3-18.3-11.1-21.1-17.6c-4.1,4.5-10.4-12.2-10.8-15.3c5.6-0.3,9.4,2.5,14.6,5.1c3.1,0.4,3.3,1.7,9.1-0.8
		c9.5-1.3,17.3-7.4,25-13.3c2.3-1,2.1-2.9,7.4-2c5.3-0.7-0.1-2.7,1.4-4.3c7.3-3.3,9.9,2.1,13.4,9c3.3,2.4-1.7-3,1.9-0.4
		c-1.7-3.9-7.3-10.5-8.6-10.6c-2.6,0.3-13.5,3.6-11.8-0.8c3.1-0.7,4.3-2,6.2-6.6c3.8-0.5,5.3,7.6,2.9,0.4c-5.3-0.5-4.3-0.4-3.4-2.7
		c-4-0.4,1.7-4.3-3.8-7.4c-4.6-8.5,8.2-6.4,12.7-3.5c5.1,0,4.9,11.9,12.7,8.2c7-1.4,10.9-5,15.4,2.3c5.5,0.4-0.8,5.4-1.9,7.4
		c2.3,4.7-0.5,8.5-2.6,12.9c2.3,4.1,10,3.4,6,11.3c1.9,0.5-2.1,9.5,2.9,9.4c5.2,1.3,3.1,7.8,2.9,13.3c3.3,3.9-2.3,5.4,1.7,8.6
		c-0.1,9.1-3.9,14.6,0,18.4c-4.3,5.9,3,9.7,1.7,11.3c-4.7-1.1-2.4,7.6,0.7,7c4.3,0.6,6.5,3.5,7.9,9.4c-0.6,5.2,0.7,7.4,1.7,14.5
		c2.2,6.6-5.1,11.5-3.4,20.7c-1.2,7-5.9,14.6,2.2,16.4c5.7-3.9,9.1,6.9,2.6,7.4c1.6,2.9,9.9,5.9,9.8,8.6c-3.1,5.5-7.4,15.6-4.8,18.4
		c-11.6-1.6-23.3,6-31.2,16.8c-8.4,0.3-18.1,10.7-23.8-2.3c-3.3-10.8-15.9-16.3-20.6-20.3c1.8-4.5,3.6-8.9-0.7-11.3
		c-3.8-6.7-12.3-0.4-17,0c-3.5,2.3-17,8.4-17-3.5c1.6-4.4-3.2-8.9-0.2-14.1C385.8,997.2,392.4,998.7,391.3,991.1L391.3,991.1z"/>
	<path id="Alyn_x5F_and_x5F_Deeside" name="Alyn_x5F_and_x5F_Deeside"  pointer-events="all" d="M680.8,966.5c7.5,0.3,10.6-5,14.9-9c-1.7-3.4-0.1-1.1,4.6-3.1
		c4.7-0.7,11.6,7.2,14.2-1.6c6.8-0.5,13.1,7.8,7.2-0.8c-3.2-2.1,4.4-7.9-1.9-7.8c-5.8-1-9.8-3.9-10.3-7.4c-5.3-2.4-2-7.4-0.5-9.4
		c-1.7-2.6-4.8-1.5-1-5.1c1.4-5.3,7.3-5.1,5.5-9.8c-3.4,0-4.5-4.4-7.2-7c2.4-18.2,21.8-29.5,32.2-15.6c10.3,8,20.8,14.4,28.6,27
		c7.4,3,4.4,16.4-1.9,16.4c-4.9,1-11.3,5.1-15.8,6.3c-3-1.6-6.3,2.2-1.4,3.9c2.2,0.4,4.4,1.2,7,8.2c1.2,3.3-5.6,1.4-8.4,3.1
		c-5.4,1.5-4.3,6.4-7,10.6c-2.7,3.9-8.2,4-6.7,11.7c-2.5-6.8-3.8,4.3-9.4,3.9c-4.9,1.9-8.2-4.7-11.5,2c-5,2-9.7,7.5-15.1,5.9
		c-3.7,2-6.3-9-6.7-9c-3-3,0.8-6.3-0.2-9.4C687,969.7,682.2,970.6,680.8,966.5L680.8,966.5z"/>
	<path id="Arfon" name="Arfon" pointer-events="all" d="M277.1,1006.4c-3.6-4.7-7.2,2-9.6,0c-1.6-1.6-1.4-8.8-1.2-11.3c3.7-3.7-7.1-0.6-5.5-4.3
		c1.6-5.7-0.2-13.5-3.6-20.7c1.3-3.9-2.4,1-0.2-3.5c1.3-4.1,1.6-4,3.1-5.1c4.6-4.7,7.3,1.6,11.5-5.9c2.4-1.3,10.4-7.1,8.4-5.5
		c7.3-3.2,11.5-20.4,21.4-21.5c6-4,7-5.9,6.7-16c5.8-10.9,15.9-5.6,22.8-15.6c4.4-4,12.1-7.5,16.1-8.2c3.1,2,0.7-1.2,4.6,0.8
		c4.5-3.5-9-2.3-2.2-7.8c1.5-3.2,2.5,3.7,5.5-3.1c1.2-5.5,4-8,6-2c1.6-0.8-6.8-7.6-0.5-9.4c5.5-0.4,1.9,3.5,7.7,2
		c1.4,1.3,8.3,5.4,11.3,15.6c3.5,3.3,6.8,2.2,7.7,6.3c3.4,6.9,15,8.4,19.4,15.3c1,14.1-13.1,9.2-10.6,25
		c-4.9,12.6-16.4,8.7-19.4,26.2c0.2,3.1,13-2.3,5.8,2c-4.6,0.9-6.8-2.6-7.9,4.7c-4.5,4.7-0.9,9.5,3.8,7c0.2,2.7,0.7,9.3-1.4,11
		c-3.5,8.2-11.1,3.1-17,4.7c-4.6-0.9-5.1,2.8-4.6,5.9c-5.7,5,4.2,16-6.5,18.4c-5.2,0.2-13.3-1.7-18.7,0.8c-3.6,1.6-7.7,1.1-9.1-3.9
		c-7.2,2.3-13.3,10.3-20.9,12.5c-3.5-1.3-8.2-1.9-10.3-5.5c-3.6,7.6-10.3,17-12.5,4.7c4.3-6-4.2-6.7,0-11.7
		C277.1,1007.5,277.8,1005.9,277.1,1006.4L277.1,1006.4z"/>
	<path id="Blaenau_x5F_Gwent" name="Blaenau_x5F_Gwent"  pointer-events="all" d="M667.3,1764c-6.3,1.3,0,8.7-1.2,11.3c-2.8,0.1-4.1,4.5-3.8,3.1
		c-1.8-6.7-8-10.4-10.6-12.9c-1.9-4-1.1-6.8-5-8.6c0-6-2.1-10.6-6.2-11.7c-3.2-2.1-5.8-13.8-9.1-7.4c0.9-17.5,14.4-19.6,22.6-11.7
		c11.3,5.6,25.3-4.2,35,2c-0.7,4.3,2.9,4.2-1.2,5.1c3.6,3-4.1,4.2,1.4,4.3c3.9,1.4,7.7,1,1.9,5.9c5.8,8.2,14.6,12,11,18.4
		c1.1,3.5,1.4,5.7,2.2,9.4c-3.4,3.7,1.4,10.3-0.7,13.3c0.8,7.6-2.9,14.3-5,17.6c1.9,3.9-10.7,3.1-3.4-2c4.9-6.2-6.8-5.7-6-12.5
		c-3.7-3.4-7.1,2.6-9.6-4.3C676.5,1779.8,673.7,1769.4,667.3,1764z"/>
	<path id="Brecon_x5F_and_x5F_Radnorshire" name="Brecon_x5F_and_x5F_Radnorshire" pointer-events="all" d="M650.3,1345.9c-7.1,0.3-15.6,8.3-21.1,11.7c-4-1-7.4,0.6-9.8,5.1
		c-2.4-4.2-6.4-1.7-9.1-5.1c-3.3,1.7-11.3,0.3-11.3,5.5c3.1,4.1-5.4-0.2-6,5.5c-2.4,10-8.5,13.1-14.6,15.3
		c-3.9,5.1-12.4,7.1-13.7-0.8c-3.3-5.9-7.9-4.5-12.2-2.7c-4.1-0.3-3.8,6.5-8.6,7c-4.3,6.7-9.1,13.3-13.9,12.5c-1,6.2,4,8.5-1.4,7.8
		c-5.5-3.2-10.8-6.2-17.3-9c-3.6-10-14.9-7.1-14.6,3.1c4.6,5.2,8.3,6.4,8.6,12.5c-5.6,1.7-8.9,5.1-14.9,3.9
		c-3,0.6-16.7,10.8-14.4,16c4.2,0,7.6,8.1,3.8,11c-2.1,3.9,8.7,6,8.4,12.1c-5.4,0.6-8.4,1.5-12,5.1c0.3,0.9-5.4,7.4-3.1,9.4
		c4.9,0.9-2.9,8.4,2.6,11.4c-1.2,3.6-3.7,7.4-1.4,12.1c-2.4,4.5-1.2,6.6,0.2,11c-3,3.9-0.5,11.8-1,16.5c0.2,5,5.1,14.5-0.7,16.8
		c-5.1,3.1,2.2,3.6,3.8,7c5.3,1.5,10,2.6,8.9,10.5c-3,2.9-5.2,4.2-2.2,9.4c1.3,2.1,8.4,2.2,11,5.9c3,3.3,12.9-0.3,5.8,6.6
		c-2.7,2.5,0.1,6.1,3.6,7.4c1.2,2.7,4.6,6.3,6.2,9c-5.1,3.1-6.2,6.1-9.4,12.1c5.2,0.5,1.2,10-2.2,11.4c-1.9,2.7-5.3,6.9-6.5,10.1
		c3.9,3.1-8.4,9.8-2.7,14.1c0.8,3.4,2.8,8.2-1.7,5.5c-5.4,1.8-3.4,8-3.3,11.8c-1.5,0.4-2.2,8.6-2.7,10.1c1.6,1.7,6.6,1.5,3.1,5.1
		c2.9,12.9-4.6,16.7-8.4,22.3c-3.1,1.4-6.1,5-9.1,7.4c-3.9,4.2-6.5,12.9-6.2,18c-1.5,6.1-8.8,8.8-8.7,18c2.3,6,7.8,4.7,10.1,12.1
		c0.1,4.9,0.5,9.1,6.5,8.6c5.2,2.4,10.6-3.5,10.1-9c0.7-6.6,11-5.9,15.8-7c5.2-2.2,10.5-4.7,15.3-0.8c5.5,3.7,8.9,6.1,15.1,5.5
		c4.7,0.4,1.7,15.4,8.2,8.3c6.5-0.1,5.7-8.5,8.9-10.6c2.2-1.7,10,3.7,6.7-3.1c-0.5-2.4,5.3-3.1,6.9-6.3c4.8-4.5,12.2-6.1,16.6-12.1
		c1-6.7,2.1-11.7,6.5-7.8c3.9,5,5.7,7.9,9.8,1.2c2.4-10.5,12.3-1.4,7.9,3.2c1.4,6.5,7.9,1,10.6,5.1c4.5-0.7,4.4,10,5,11.7
		c6.9,0.3,19.4,3.4,20.2-9.8c9.7-20.6,23.3,4.1,36.2-3.5c6.7-0.1,19.1,1.7,23.5-5.9c-1.2-2.2,2.8-2.1,3.6-5.5
		c3.2-2.1,4.3-5.1,9.3,0.4c2.1,0.8-1.3-7.5,3.6-3.9c-4.3-6.9,7-5,6.5-11c4.4-1.9,5.1-4.2,1.2-8.2c1.8-7.3,11.5-1.4,11.5-9
		c0.4-2.8,1-7.3-2.6-10.1c0.6-4.5-4.3-5.3-5.8-8.6c-4.1-1.3-7.8-6.2-6.2-11c-1.2-3-4.8-8.1,0-10.2c-8-5.7,0.6-10.1,1.9-12.1
		c8-7-4.2-13.7-4.3-23.1c-6.3-3-0.7-10.1,0.7-14.9c-2.6-5.1-2.1-7.9-6-10.5c-3.7-2.7-7.2-8.4-7.7-12.9c4.3-5-2.9-17,6-14.1
		c1.4-1.5,0.6-8.1-0.5-8.6c-4.6-2.7-7-1.6-10.8-3.5c-0.9-2.7,2-6.2,2.4-7.4c6.9-0.7,18.8-2.9,21.3-12.1c-5-6.7-7.8,7.1-12.5,0
		c-3.4,0.5-7.6-4.9-1.7-7c1.2-4.8,8-3.8,6-11c-1.1-7.3-3.3-7.5,1.7-9.4c2.2-4.2,9.6-3.8,4.8-7.1c3.5-2.7,1-8.8,2.6-11
		c4.2-0.7,11.9,0.3,8.9-5.5c-1.4,1-0.1-1.7,0-4.3c5.8-1.9,11.4-7.6,17.5-5.9c2.3,2.3,6.5-0.1,8.7,1.2c3.8,0.5,3.3-8.1,8.2-5.1
		c-7.7-4.9-13.2-0.1-20.2-3.9c-3.5-0.7-0.6-5.4-1.2-7.4c3.3-2.1,3.1-9.9,2.4-14.9c0.5-9.5,7.9-4.4,11.8-9c1.7-0.8,6.5-8.7,4.6-11.7
		c-4.1-1.9-8.1-3.5-11.5-0.8c-6.7-0.5-16.9,6.2-25.2,1.5c-2.9-4.5-7.7-6.4-12.2-9c-2.6-4.7-5.7-8-10.8-9.4c-3.5-6.8-12.9-2-13.2-9
		c0.2-4.3-5-6.1-7.7-9c-5.2-4.5-12.9-3.5-16.1-11.3c-2.7-2.7,0.5-5.8-3.1-7.8c1.2-4.8,2.3-8.6-1.9-9
		C654,1348.4,652.6,1346.3,650.3,1345.9L650.3,1345.9z M710.5,1525C710.6,1523.8,709.8,1525.2,710.5,1525z"/>
	<path id="Bridgend" name="Bridgend" pointer-events="all" d="M466,1889.9c4.3-0.1,6,1.4,9.4-0.4c4.1,4.7,11.2,2.8,15.6,4.7c1.7-4.1,5.7-7,10.6-5.5
		c1.1,4,1.6,11.9,7.7,11c7.1-6.3,20-10.4,25.2-7c2-1.5,10.6-0.6,12.2-2.3c5.8-1.2,6.3,1,7,4.7c-3,3.1,0.6,6.9,3.4,7.4
		c3.2-0.6,0.1,1.6,3.1,4.3c-3.5,4.5-8.8,1.8-6.7,6.3c0.2,2.6-6.8,2-2.2,5.1c1.9,8.8-8.8-8.4-12.5-1.2c-7.2,6.4-13.9,1-21.1,9
		c-4.1,2.1-7.8,4.9-11-0.8c-5.9-2.1-7.4,3.9-15.1,0.8c-5.7,1.9-9.9-4.6-14.4-13.3c-3.9-3.4-2.9-2.6-6-7.4c-0.1,1.1-0.1-4.7-2.6-9
		C467.6,1893.8,467.2,1891.4,466,1889.9L466,1889.9z"/>
	<path id="Caerphilly" name="Caerphilly" pointer-events="all" d="M696.1,1845.7c6.5,0.9,12.2,10.3,3.4,11.3c-2.5,2.8-0.4,7.8,3.4,7.8c2.5,2,7.2,2.8,7.2,6.6
		c-1.2,4.5-6.3-0.9-3.4,3.9c-4,1.6-5.1,10.5-8.4,7.8c-1-1.3-7.3-6.9-9.1-2.7c-2.2-2.5-6.5-7.2-11.5-3.1c-6.4-1.4-10.1,3.6-15.4,3.5
		c-4,1.3-4.5-2.3-6-6.6c-3-8.8-10.1,2.6-10.1-9c0.9-7.3-5.2-2.5-7-6.3c-1.4-5.9-4.5-10.6-4.6-17.2c-3.1-3.8,1.7-10.4-3.8-14.5
		c-0.8-3.1,6.5-6.4,5-12.1c1.8,3.2,6.4,3.2,4.8-3.5c-1.6-2.9,1.6-8.3,5.3-8.2c1.9-3.3,10.6-1.1,6.2-5.5c2-3.6,9.4-5.6,7.9-1.2
		c2,4.5,1.6,7.5,2.9,11c0.6,3-3.6,5.8-0.2,9.4c-1.3,3,2.3,8.6-2.6,11c-2.4,3-1.8,7.5,0.7,10.2c3.4-0.5-0.3,5.2,4.3,3.9
		c5.2-1.6,7.9,0.1,11,4.7C683.5,1851.1,687.9,1845.7,696.1,1845.7L696.1,1845.7z"/>
	<path id="Cardiff_x5F_Central" name="Cardiff_x5F_Central"  pointer-events="all" d="M672.4,1913.4c2.3,0.9,3.4-5.5,6.5-4.7c-1.7-6.8-2.4-15.6,2.9-13.7
		c1.4-7.3,8.5-0.3,13-0.8c2.8,4.6-6,6.6-2.6,12.5c0.8-0.4,0,3.3,1.4,5.5c-4.5,5.2-12.5,18.4-17.5,9.8
		C675.5,1917.3,672.4,1918,672.4,1913.4z"/>
	<path id="Cardiff_x5F_North" name="Cardiff_x5F_North"  pointer-events="all" d="M655.8,1905.6c5.5-7-8.3-1.8-4.1-11.3c-1.9-3.9-4.5-6.4,1.2-8.2
		c2.5-9.4,8.9-3.8,12.5-5.5c5.7-3,10-3.4,17-4.3c4.3-2.5,6,8.7,8.4,2.3c5.1,2.2,6.7,3.7,9.8,6.3c2.4-3.1,6.5,3.9,8.2,5.5
		c-3.1,2.8-7.4,8.1-7,6.3c1.2-4.7-4.6-3.2-7.2-2.3c-5.2,0-11.7-6.4-13.9,1.6c-5.4-4-2.1,10.3-2.4,12.5c-2.9,0.4-3.8,7.1-6.5,4.3
		C665.1,1913.3,660.9,1910.9,655.8,1905.6L655.8,1905.6z"/>
	<path id="Cardiff_x5F_South_x5F_and_x5F_Penarth" name="Cardiff_x5F_South_x5F_and_x5F_Penarth" pointer-events="all" d="M657.2,1971.3c-3.1-3,1.8-6.8,1.2-9.8c2.8,1.7,7.2-2.2,11.8-1.6
		c3.2-1.2,0.6-6.4,1-11.7c-1.6-4-1.1-6.8-4.1-6.6c2.1-5.3-0.7-5.9,2.9-7c-3.4-5.9,4.5-8.4,0.2-10.6c8.9,5,20.2-4,23-13.3
		c-1.7-3.7-0.2-2.9-1.7-5.9c-0.8-6.5,4.9-5.3,3.8-10.2c4.1-3.8,7.5-0.1,6.7,3.5c0.1-3,5.3-6.2,7.9-7.8c4.9,1.1,3.2,6.7,7.9,8.6
		c-3.1,3-4.5,2.6-4.3,4.7c-8.4,0,6.7,11.1-2.4,13.3c-4.9,2.7-3.1,1.9-8.2,6.6c-4.7,3.4-10.7,9.2-11.5,15.6
		c-5.1,0.3-10.1,10.9-9.6,18.4c0.9,4.9,0.2,3,0.2,5.9c2.4,4.4-4.1,4.7-7.7,7c5.5-1.1-5.9-1.6-1.7,2c-4.7-0.1-2.8-3-7.4-3.5
		C662.6,1967.8,659.7,1969.2,657.2,1971.3L657.2,1971.3z M700.4,1984.2C692.7,1985,702,1976.2,700.4,1984.2z"/>
	<path id="Cardiff_x5F_West" name="Cardiff_x5F_West" pointer-events="all" d="M630.8,1906.7c-6.4,1.2-12.3-2-8.9-8.2c-3.8-2.7-2.3-11.8,1.9-9
		c4.8,0.9,1.8-5.8,7.4-4.7c-0.8-4.8,7.2-0.8,9.8-3.9c4.2-1.5,3.2,5.4,7.9,8.2c2.1,2.4,2.9,5.9,2.4,10.6c2.7,2,8.1,1.1,4.6,5.9
		c4.5,6,10,7,16.1,7.4c0.4,4.1,6.7,10.6,3.8,12.1c-3.9-1-7.4-2-4.1,1.6c-2.6,2.7-4.7,4.9-7.7-1.2c-7.7-0.9-9.1,9-16.1,5.5
		c-7.2,1.2-6.1-13.1-11.8-17.2C636.3,1908.6,631.7,1910.6,630.8,1906.7L630.8,1906.7z"/>
	<path id="Carmarthen_x5F_East_x5F_and_x5F_Dinefwr" name="Carmarthen_x5F_East_x5F_and_x5F_Dinefwr"  pointer-events="all" d="M430,1534.4c-3.2,4-7.9,7.9-10.8,11.7c-4.3,2.5-6-5.8-11.3-3.1
		c1.2-4.9-5.4-8.4-8.4-2.3c-5.9,4.9-9,12.6-14.9,11.7c-2.3,11.2-13.1,7.9-16.6,2.3c-2.3-2.5-6.3-4.7-7.7-1.9c-2,4.1-6-1.5-4.8,3.1
		c-3.6,0.4-1.2,1.8-4.3,0.4c-2.2,4.5-5.7,5.2-11,5.1c-0.3,4.1-3.9,1.9-5.8,0c-2.6,0.8-7.7,4.9-7.9,7c6,2.5,1.3,1.3-0.7,3.1
		c-3.6,2.2,0.3,3.8-2.4,6.7c-3.4,1.3-4.6,2.1-7,3.9c-2.9,3.1-5.2-5.6-7.2-0.4c0.1,3.2-3.5,1.7-4.1,6.3c-2.6-0.1-5.4,1.1-5.3,6.7
		c-3.7-0.2-7.3,0.1-11.5,0.8c-3.6-1.8-5.1,0.8-9.4-3.2c0.8-3.3,1.6-6.8-2.9-5c-4.3,0.9-0.7,10-6,8.2c-4.5,3.1-7.8-6.2-8.7,3.5
		c-3.9,1.5-6,4.3-9.8,1.2c1.1-5.1-6.3-3.9-7.4-5.1c-3.4,4.2-6.3,1.1-8.9-1.2c-2.7,3-6.8-2.1-10.3-1.2c-4.1-3.4-5.7,5.2-9.8,2.8
		c6.6-2.3-3.4,0.6-4.6-3.2c-0.8-5.3-6.3-1.3-7.2,0c-3.9-2.2-10.3-0.9-14.2-1.5c-0.8-6.2-2.2-0.8-2.2,1.2c-5.2,0.1-4.9-0.4-2.4,4.3
		c0.7,5.3,1.8,13,6.7,12.1c4.7,1.9,4.8,9.5,9.3,13.3c7.6-1.4,8.7,7,6.5,15.6c-4.1,3.9,7.7,9.1,9.3,5.5c-4.2-7.9,0.2-8,5-9.4
		c6.2-1.9,12-5.5,16.6-0.4c5.7-3.1,13.3-4.1,21.4-1.6c7.1-6.3,9.2,4.6,14.9,3.5c0.8,6.7,4.9,3.8,9.4,4.3c2.2,5.5,0.2,7.3-3.6,8.2
		c0.3,6.6,10.2,3.4,4.1,9c4.5,2.4-5.6,11.6-4.8,13.3c-0.3,3.2-1.1,4.4,3.1,5.9c-1.8,4.9-4.4,5.7-3.3,11.4c0,3.6,8.3,10.2,2.4,11.7
		c-4.5-3-0.6,4.9-4.6,0.8c-0.4,1.4,2,4.7-1.9,3.2c-4.4-1-6.1,3.6-6.2,7.4c1.7,1.2,1.8,2.8-1.7,3.5c4.8,2.1-5.8,5.9,0.5,8.2
		c1.5,3.5-1.5,9.8-2.4,13.7c-6.1-1.2-9.8,5.6-15.3,7c2.8,7.2-3.3,8.9-5.1,13.3c0.8,4,2.3,6.5,0.5,12.1c-4.3,8.5,6.7,3.6,10.6,4.7
		c4.5-0.1,12.7,3.9,9.6-4.3c1.1-5.3,10.2-3.7,9.3-11c4.5-2.3,6.1-0.5,8.9,3.5c4.7-3.5,7.1,0.3,7.4,6.3c3.3,1.7,4.4,1.5,6.5,5.5
		c3.1,2.5,2.6,7.2,5,2.8c2.2-3.2,6.7-2.9,1.4-6.3c-3.3-5.4,3.7-6.8,3.4-12.9c4.5-1.6,8.5-4.6,4.1-8.6c1.2-4.8,1-7.1,5.3-7.4
		c4-2.5,7.4-3.2,10.8-6.3c-0.3,3.8,0.8,2.7,3.4,6.7c6,0.2,10.4-7.4,17-4.7c2.5-4.3,12.3,3,8.9,8.6c4.5,1.4-2.8,4.4,1.2,8.3
		c4-0.3,9.5-5.5,15.8-5.5c1.7-2.1,9.8-6.5,9.4-1.6c-1.4,5.7,5.5,6.2,8.2,10.2c8.1,1.9,10.4-3.6,18-5.5c3.7-2.3,6,4.2,10.3,1.9
		c5.5,4.7,6.6-9.6,4.6-12.1c-1.4-2.1-4.3-6.7-4.6-7.8c6.8,0.1,10.5-4.1,16.8-3.1c3.9,0.6,10.2,1.8,13,7c0.4,1.6,3.2,8.5,3.1,0.4
		c3-7,8.5-9.4,8.6-16.5c-0.3-6.5,4.8-15.2,8.9-18c3.4-2,5-4.1,8.2-6.6c4-4.9,8.5-10.6,7-20.7c1.2-4.5-7.5-3-2.6-9.4
		c0-5.4,2.6-6.3,0.9-10.5c-1.1-9.6,10.2-2.5,6-8.6c-1-4.7-3.3-8,1-12.5c4.5-3-1.1-6.3,4.1-9.4c2-5.9,9.1-7.3,8.2-16
		c-5.6-0.3,2.6-6.6,2.2-9.8c5.6-1.5,5.3-5.4,0.5-8.2c0.5-5.3-10.3-6-5.5-11.7c7.4-6.8-8.8-3.9-10.3-9.8c-4.4-1.7-6.9,0.9-7.4-5.9
		c-2.9-3.3,6.4-4.3,2.9-11.4c-1.9-4-9.4-4.3-13-9c-4.2-0.2-5.3,6.4-8.2,8.6c0.6,5.2-4.6,5.2-5.8,2.8c-4.2-2.1,0.7-5.7-4.1-5.1
		c-2.7-3.3-9-3.7-11.3-8.6C437.7,1537.8,435.6,1533.5,430,1534.4z M452.3,1741.3C452.8,1742.7,453,1741.3,452.3,1741.3z
		 M314.3,1751.1C315,1751.3,314.1,1749.8,314.3,1751.1z"/>
	<path id="Carmarthen_x5F_West_x5F_and_x5F_South_x5F_Pembrokeshire" name="Carmarthen_x5F_West_x5F_and_x5F_South_x5F_Pembrokeshire"  pointer-events="all" d="M263.4,1628.7c-7.6,4.8-18.1-1.8-23.5,3.9
		c-4.7,0-6.7-3.9-12.2-1.9c-3.9,4.9-11.7,2-12.7,6.3c1.4,5.1,2.9,8.8-3.6,7c-5.9-8.3-16.9,1.2-23.3,0c-5.6,1.7-6.4,8.8-11.5,12.9
		c-4.7,4.5-7.2-4.4-10.1-3.9c-2,4.2-6.2,5.4-9.4,8.2c-1.1,8.2-11.2,0.7-14.6-4.3c-3.1,7.5-11.4,4.4-14.7,9.8
		c-5.6-0.2,3.1,11.2-4.3,11.4c0.5,1.9,2,4.7,3.4,5.1c3.1-0.3,2.9,5.4,5,9.4c-0.6,5.1,3.6,8.8-1,10.6c1,2.1-4.9,3.7-1.2,7
		c1.2,5.2,11.2-1.6,5.7,4.7c-5,7.7-12.2-2.8-17.5,3.9c-3.2,1.2-0.2-9.8-5.3-4.7c-4.3,2-11.8,4.2-11-3.2c-4.2-5.2-9.1-0.3-14.6-1.2
		c-3.4,3.4-5.1,11.3-2.7,17.6c2.8,1.1,0.9,6.2-2.9,3.5c-4.2,2.1-4.7-4.8-10.3-3.9c-4.1,1.1-11.8-2.5-12,3.5
		c-4.1,4.4,7.7,3.5,5.7,7.8c-3.8,0.4-9.4-3.3-7.4,2.7c-1.9,2.8-2.5,11.4,2.9,12.5c2.3,1.1,5.8-3.9,2.2,1.6
		c0.4,5.7-2.9,11.6-1.4,15.6c5.4,0.6,3.8,7.2,4.3,11.7c5.4,0.5,3.5,1.1-1.2,1.2c-0.5,9.3-8,2.3-10.3,9.4c-2.8-0.7-6.8-6.2-10.3-0.4
		c-4.1-1.1-14.7,1.8-11.3,9.4c3.8,4.6-8,0.2-1.2-0.8c-6.3-3.4-14-4.1-21.3-4.3c-3.1-1.5-8.6,2.6-5.8,6.7c-2,4.9-10.1,1.4-7.7-3.2
		c-4.2-0.8-12.1-4.1-13.9-0.8c4.2,2.4-3.3,2.5-3.6,5.1c4.2,1.8-0.9,6.1,1.9,5.9c3.4-2.4,5.8,3.6,9.4,2.8c4.5,0.2,10.1,0.7,11.7,9.8
		c1.6,1.9,3.6,9.2,0.5,7.4c5.3,0.3-5.2,5.7-0.2,9.8c6.6,1.3,8.9,1.2,15.1,5.1c5.4,4,12.1-3.8,16.6,3.5c6.8,0,8.1,6.3,11.5,5
		c2.5-2.5,6.3,2.7,5.8-3.1c0.9-4.4,6.1-5.8,9.8-5.5c-3.5-2.7-1.2-7.5,0.5-9.8c3.7-1.7,5.1-2.7,8.6-5.5c4.2,0.2,1.8-0.9,2.9-4.3
		c4.7-1.4,8.8,0,13.2-0.4c0.4,4.9,7.3-2.5,7.2,3.9c4.7-0.3,10.1,5,11.3-2c2.7-2.2,8.3,1.3,5.5-4.3c5-5.4,12.4,1.1,17.3-2
		c-1.7-6.2,10.5-10.1,4.1-14.1c0.8-6.3,6.5-9.9,6.9-12.1c-10.2-3.7,0-18.8,7-18.4c9.6-4.2,22-3.1,30.7-3.5
		c11.9-4.8,25.4,5.7,36.2,5.9c5.6-0.5,8.7-1.6,13.7-5.1c5.7,0.4,12.8-12.3,8.9-2.7c-1.7,2-8.6,6.2-2.4,4.3c-3.5-0.4,4.8-0.9,6.2-2.3
		c6.4,1.2,9.7-11.2,6-16.8c1.2-4.6,8.4-5.9,5.3-12.9c3-1.9,7.2-5.5,10.8-7.4c6.2,3.1,6.3-8.1,7.7-12.9c-4-2.6-2.2-5.2,0.5-8.2
		c-5-1.9,5.9-2.7-0.2-3.9c1.1-1.6,0.2-9.6,5.3-7.8c2.9,0.8,5.1-1.3,2.6-2.8c2.1-0.4,3.5,1.1,2.7-2.3c7.7,4.2,3-7.8,0-9.4
		c-0.8-7,1-7.7,3.3-12.9c-4.7-1.4-2.8-3-3.3-6.3c1-1.7,8.7-11.1,5.3-13.3c3.4-3.1,0.3-3.6-2.4-5.1c-6.7-3.7,6.5-4.9,1.9-9
		c-0.9-7.7-8.5,1.6-8.6-4.7c-1.3-5.6-7.5-0.7-8.4-7.8C265.8,1629.4,264.6,1629.1,263.4,1628.7L263.4,1628.7z M286.7,1652.9
		C287.4,1652.5,286.3,1652.2,286.7,1652.9z M133.8,1810.5C133.8,1811.8,135.4,1810.1,133.8,1810.5z M72.8,1829.7
		C72.5,1830.4,73.6,1830.1,72.8,1829.7z M9.2,1842.2C8.4,1842.6,9.5,1842.9,9.2,1842.2z M-19.6,1798
		C-19.3,1800.2-17.1,1797.4-19.6,1798z M125.9,1826.2C120.8,1827.9,130.4,1828,125.9,1826.2z M127,1827.3c3.2,1.7,3.3,4.2,2.9,6.3
		c4.4-1.9,8.6,4,10.6-3.9c-2.7-3.7-8.7-0.7-12.2-2.7C128.2,1827.2,127.5,1827,127,1827.3L127,1827.3z M124.4,1827
		C124.6,1825.7,123.7,1827.2,124.4,1827z"/>
	<path id="Ceredigion"  name="Ceredigion" pointer-events="all" d="M414.1,1287.9c-4.9-2-5.4,10.1-8.9,3.2c-5.1-5.4-10.3,7.2-14.7,1.2c-4.5,1.2-8.2,4-9.8,9.4
		c-5.3,7.6-9.3-7.8-15.6-0.4c-6.3,3.5-4.1,13-2.2,21.5c1.6,7,0.9,15.5-2.6,16c-2,3.3-5.3,14.5-6,14.8c-1.5,6.8,0.1,11.7-2.4,16
		c2.1,3.4-2.8,3.5-1.7,6.3c0.9,3.4,0.5,9.5-2.6,12.1c-1.9,6.2-5.3,9.1-6,13.7c-3.6,5.5-1.9,16.1-7.7,21.5
		c-0.9,8.3-7.7,10.4-10.6,17.6c-1.7,6.1-8.4,2.6-8.2,10.1c-4.1,5.9-6.4,13.3-13.2,15.7c-3.9,5.9-14,2.5-16.1,10.1
		c-8.2,3.5-12.5,14.2-22.3,14.9c-0.5-2.4-7.9,6.7-8.6-0.8c-5.9-5.7-11.2,6.9-16.3,11.3c-3.9,2.7-8,10.4-13.4,12.9
		c-2.2,4.1-8.4,5-10.1,2.3c0.2,1.2-1.8,7.1-5.3,8.2c-3.5,5-13.3,15-19.4,12.9c-5.7,1-9-9.6-15.1-3.9c-4.1,4.9-10.6-1.5-15.8,1.9
		c-3.8-0.6-8.1-1.2-8.4,2.8c-6.4-1.8-10.4,3.8-15.1,2.8c-1.7,4.8-0.7,5.8-0.2,9.8c-3.4,5.5,4.7,4.9,2.4,13.3c-0.2,5.5,5.8,3.4,3.8,9
		c-4.9,1-4.9,5.9,0,8.2c3.3,3.9,7.3-6,7.2-9.7c1.3-2.2,7.3,4.5,2.9,6.6c2.4,7.1,11,7.7,13,1.9c5.9-1.4,9.5,3,14.6,3.2
		c-0.5,8.1,6.9,9.7,7.9,5.9c-0.2-6,1.4,0.5,3.3,1.6c4.3-3.8,11.7,1.7,13.4-0.4c4.9-5.6,4.8,1.7,9.4,2.8c3.3-0.3,5.1,0.2,1.7,1.6
		c4.4,1,5.5-6.2,9.6-3.2c3.5-0.9,7.6,4.2,10.3,1.2c2.2,1.8,3.1,2.7,5.8,3.5c3.6-4.3,6.8-1.3,11.3,0.8c-1.8,4.2,6.1,5,6.2,1.2
		c4.7-0.8,3.4-8.1,7.4-3.9c3.8,0.2,8.3,1.1,7.7-4.7c0.8-6.3,9.3-4.5,5,1.5c3.4,2.2,5.8,3.2,7.9,2.4c4.8,0.8,9.5,0,13.7-0.4
		c-0.9-7,2.9-5.4,5.8-6.7c-0.3-5.6,4.2-2.9,3.6-6.6c3.3-3,4.5,5.7,7.9-0.4c1.3,0.6,4.8-1.8,7.4-4.7c-3.4-3.3,2.8-6.2,5-5.5
		c-5.2-2.1-3.3-3.3,0.5-7c4.6-4.6,6.8,3,10.1-0.8c1.4-2.5,7.1-0.7,8.9-3.5c0.1-2.8,4.1-2.9,3.8-2c2-1.3,1.5-3.7,3.1-2.7
		c3.1,1.7,4.9-6.2,8.2-1.6c4.3-1,10.1,14.1,17,4.7c3.3-5.3,4.5-5.8,9.1-7c3.3-4.1,9.8-13.3,14.9-12.9c2.6,7.1,4,3.3,8.7,7.4
		c3.9,4.8,7.8-2.9,11-5.9c2.6-3.4,6.9-6.2,10.3-3.9c4.9,3.3,8.4,7.2,13,10.2c3.4,1.2,6.5,4.2,8.2,4.3c-2.1,3,3.9,7.7,4.8,5.1
		c4.2,2.1,1-7.7,5.8-6.6c1.8-9,11.5-9.2,7.2-18.4c-1.2-6.5-1.6-9.6-1.4-15.6c-1.6-5.4,3.1-9-0.8-13.3c1.4-2.7,1.8-7,0.8-11.8
		c2.4-3.1,2.9-7.2,0-9.4c2-5,1.4-7.5-1-9.8c3.4-5,2.9-8.2,6.7-9.8c2.2-2.1,6.7-1.7,9.6-3.5c-2.8-6.9-11.5-7.7-8.4-12.1
		c3.4-3.3-0.7-9.5-3.6-10.2c-4.6-3.8,11.2-16.6,14.2-16c5.6,1,10.5-2.2,14.9-4.7c-2.8-6.3-4.1-8-10.8-11.3
		c-4.9,1.1-3.2-12.9-7.4-15.3c1.9-5.2-2.1-5.1-0.5-11.4c-3.8-1.1-8.6-3.7-7.9-7.8c-4.5-5.3-10.4-6.1-13.7-10.5
		c3.6-8.2,0.1-18.8,9.1-16.9c5.2-4-1.1-16.1,5.8-15.2c-4.4-11.8-9.1,1.5-13.2,0c0,6.6-5.4,7.3-8.9,7c-2.9-2.3-4,6.8-7.9,3.2
		c-4.5-0.5-5.2-3.8-6.7-7.8c-3.3-3-2.5-8.4-4.3-12.9c5.1-6.9,1-12.3,1.2-19.6C434.4,1284.2,424.8,1292.1,414.1,1287.9L414.1,1287.9z
		 M474.8,1473.8C475.1,1475.1,475.3,1473.2,474.8,1473.8z M134.7,1548.1C134.1,1547.6,135,1549.1,134.7,1548.1z M142,1540.6
		C141.5,1540.1,141.7,1542,142,1540.6z M215.6,1516.8C216.7,1514.9,214.6,1515.7,215.6,1516.8z M245.4,1494.1
		C246.1,1493.6,245,1493.4,245.4,1494.1z M262.9,1490.6C263.2,1489.5,262.3,1491,262.9,1490.6z M351.7,1371.7
		C351.4,1372.4,352.5,1372,351.7,1371.7z M361.8,1305.6C362.6,1304.5,360.9,1305.7,361.8,1305.6z M361.5,1305.6
		C360.7,1305.1,361,1306.8,361.5,1305.6z M361.1,1306C360.3,1305.8,361.2,1307.1,361.1,1306z M135,1539.1
		C134.7,1540.2,135.6,1538.7,135,1539.1z M135.2,1539.1c-6.2,2.3,2.6,3.8,0.2,0H135.2z"/>
	<path id="Clwyd_x5F_South" name="Clwyd_x5F_South" pointer-events="all" d="M789,1063.5c-6.2-1.8-8.6-6.2-12.7,1.6c-3.7-0.9-7.3,1.3-8.9,1.6
		c-5.5-3.4-10.2-5.5-12.2-9.8c-5.1-0.6,1.4-6.4-4.1-6.3c-1.4,10.4-11.7,0.2-13.4,11.3c-3.6,1.1-2.8,6.8-6,9c-4,5-10.3,1-15.4,3.9
		c-4.4-0.4-9.1-4.9-12.2,3.1c-2,5.1-3.3,12.8-2.6,15.3c-4.4-0.9-9.6,1.1-12.5,1.6c-1.7-6.5-10.7-6.2-13.7-1.6
		c-3.4,2.4-11.2,1.3-9.8,8.2c0,2.5-6.5,3.1-6.7,7.8c-7.7-1.5-17.2,4-22.6-6.3c-2.8-6.1-12.4,0.5-16.3-7.8c-6.3-0.3-13.1-3.8-16.8,9
		c-11,3.6-23,10.7-33.8,6.3c6.8-2.8-1.2-12.4-1.9-17.2c-0.2-0.1,3.3-5.9,4.3-9c4.5-0.9,5.4-8.7,0-7.8c-2.2-3.8-8.1-4.2-2.6-9
		c1.1-6.7,9-8.9,13.2-14.9c-1.3-3.7,0.3-8.1,2.9-9.8c0.5-0.1-6.2-1.3-7-3.5c1.6-0.8-0.4-8.8,2.2-4.3c3.4-1.2,11.7-8.1,13.4-3.1
		c3.6-0.7,8-4.2,11,2c2.8,3,7.2-7.2,12-2.7c2.5-1.8,6.9-10.3,5-2c5.2,4.4,8-1.9,12.5-1.6c2,6.9,6.8,6.4,12.2,3.9
		c8.5-2.1,19.5-10.2,25.2-13.7c8.5-4.6,15.9,1.6,23.8,0.8c2-10-10.7-12.3-1.4-18.4c4.7-6,0.2-13.6,5.8-11.3c6.7-0.2,11.6-8.6,17.8-9
		c2.5,6.1,13.9-5.5,11,0.4c-3.3,1,3.8,2.8,2.2,8.2c0.7,7.8,7,9.4,6.7,13.7c-4,0.6-8.1,5.7-2.4,7c4.7-0.2,4.5,2.2,9.4,5.1
		c5,1.5,5.1-5.5,10.3-2c2.9-0.1,5.3,3.7,8.4,2c5.6,1.5,7.1-0.8,9.4-3.1c1-0.4,4.4,2.2,6.7,4.3c1.2,3.1,6.9,7,9.6,3.1
		c-4.7-2.1,6.3-0.8,0.5-2.7c4.1-2-3.5-4.4,1.7-4.3c-0.7-5.4,7.1-1.1,2.2,3.5c-1.5,9,6.2,2.7,7.9,10.2c-1.2,1.6,0.5,9.5,3.4,9
		c4.8,1.4,9,3,11.5,3.1c2.3,0.5,0.4-3.8,3.6-2.3c2.7-1.5,2.2,0.4,6,0.4c1.8-2.7,2.4,3.6,5.3,4.3c3.7-1,10.1,0.5,10.1,3.1
		c-1.5,2.2-2.7,4.3-1.9,7.8c2.7,0.3,2.5,6.1,2.4,7.4c-1.9,3.1,2.3,12.7-1.7,17.6c-10.5-3-18.6,10.6-24.7,17.2
		c-1.5-3.9-4.3-9.2-6.2-12.5c-3.5-4.4-9.2-9.6-9.1-14.9C796,1063,792.9,1064.8,789,1063.5z"/>
	<path id="Clwyd_x5F_West" name="Clwyd_x5F_West" pointer-events="all" d="M527.2,1024.7c-6.5,0.3-9.6,0.9-16.1,5.1c-4,4.4-11.8,2.5-14.6,8.6
		c-3.8-5.3,3.7-14.2,5.3-18.4c-3.2-3-10.7-5.4-9.6-8.2c5.7-1.9,1-10.3-4.1-7.4c-9.7-3.6,0.7-12.7-0.2-29.3c5.3-3.1,0.3-12.4,0.5-16
		c-0.4-3.4,0.2-7.8-2.4-11.7c-1.8-4.4-8.4-0.6-9.4-8.2c-0.3-3,6.9-1.5,1.2-5.5c-2.2-3.6,0.5-9.9-1.9-13.3c1.6-4.3,2.5-15,0.2-16.4
		c3-2.6-2.1-9.1,1-12.9c0-7.4-9.5-4.6-6.2-13.3c0.4-1.2-0.3-5,0.7-7.8c-2-2.8-8.3-2.2-6.5-7.4c5.3-3.7,0.1-11.3,3.4-12.9
		c2.7-2.5,3.4-6,8.2-3.9c3.5,2.4,2.1,9.7,5.8,10.6c5.6,2.5,13.3,3,17.8,3.1c6.9,1.1,18.3-2.2,19.9,0.8c6.1,0.3,4.6-0.1,11.3-2.7
		c-0.6,0.4,9-3.3,11.3-4.7c6.7-2,13.8-10.4,17.5-10.2c4.4,3.4-4.4,5.9,1.9,8.2c5.3,5.3-1.6,5.2-1.2,7c1.9,4.8-8.3,7.3-7,14.5
		c-0.5,4.4,5.3,8.4,1,9c-3.6,1.3-4,4.5-1,9.4c4.9,0.3,7.9-0.4,11.5,3.9c2.8,3.6,8.3,5.1,9.8,9.4c-0.5,4.9-1.6,9.2-1.2,12.9
		c-1,5.9-1.9,10.8-0.2,14.5c2.8,4.6,9.3,5.2,15.1,7.4c3.1-6.3,4.9-4.2,8.2-3.9c3.6-4.8,8-6.8,12.7-6.6c5-7.5,1.4,1.5,1.7,5.5
		c5.9-1.4,3.7,11.9-0.2,14.5c-1.9,4.3-7.1,8-8.4,9.4c-2.2,4.3,3,6.9,5.3,4.3c4.2,2.3,6.2-0.5,9.8-1.6c-0.2,9.2,10.4,4.7,7-2.3
		c5.4,0.4,8.4-2.7,3.8-6.6c-0.6-3.4-7.4-7.9-3.8-11c5-0.4,0.8-4.9,4.8-5.5c3.1-2.9,5.1-1.3,1.9-5.5c3.3-1.3,7.4-2.5,11.8-3.9
		c-0.6,4.5-2.5,8.4,1.9,11.3c2.1,6.3,10.9,5.1,15.1,4.3c4.9,1.9,9.4-6.8,13.9-0.4c5.5,0.3,1,6.1,2.9,11c1.7,8.8,3.4,21.4,12.7,18.8
		c-0.4,3.6-1.9,7-0.2,9.8c1.6,0.9,3.2,9.7,7,9.4c1.4,4.2-4,12.9-6.2,16.8c5.4,1.6,7.7,19.1-0.7,11.7c-5.2-2-14.4-3.8-18,0.8
		c-9.4,2.8-18.8,12.8-29.3,13.3c-6.6,5.3-7.6-10.1-13.2-3.1c-0.4,2.1-9.6,3-7-3.5c-2.7-0.5-4.9,9.8-9.6,4.3
		c-4.4,3.5-6.8,6.5-10.6,1.2c-3.9-3.5-9.1,4.5-10.6-1.6c-5.8,1.9-10.1,6.4-13.2,4.7c2.6,7.6-6.4,9.3-9.8,15.3
		c-3.5-2.9-7.7,5.2-9.4,0.4c-5.3-2.2-11.4-2.3-17.3,0.8c-5.8,0-14.3,0.1-14.6-11c-0.2-3.3-2.3-5.3-3.6-6.3
		C525.1,1030.9,526.8,1028.6,527.2,1024.7L527.2,1024.7z"/>
	<path id="Cynon_x5F_Valley" name="Cynon_x5F_Valley" pointer-events="all" d="M573.7,1718.2c6.7-1.9,10.2,4.6,9.4,13.7c1.7,9,5.5,7.8,6.5,16c4.7,3.5,3,8,0.7,9.4
		c-0.3,5.1-7.1-3.1-10.1,0.4c7.3,6.8,13.5,13.1,17.8,23.9c8.4,1.3,13.8,16,18.2,24.6c4.6,6.7,9.1,18.5,13.7,13.3
		c-1,5.9,1.2,8.1,4.1,12.5c-0.7,3.6-0.2,7.6,0.2,11c2.2,5.8-8.2,3.1-8.9,2.3c2.9-5.3-3,2.3-4.8-3.1c-2.8-3-6.4-1.3-6.7-5.9
		c-3.2,2.2-5.6,0.1-8.2,2c-11.2-6.1-15.5-33.1-29.5-31.7c-8.3-1.7-14.6-15.4-21.8-15.6c-5.1-7.3-14.1-1.7-20.2-7
		c1.9-13.6-10.9-25.4,2.6-26.6c4-2,3.2-13.6,10.1-8.6c3.3,2.3,3.8-3.6,1.4-4.7c7.5-3.1,14.1-11.4,24-15.3
		C571.8,1723.9,575.5,1721.6,573.7,1718.2L573.7,1718.2z"/>
	<path id="Delyn" name="Delyn" pointer-events="all" d="M651,941c-4.7,0.3-7.6-5.9-8.6-9c0.8-4.4,1.6-7.1-1.9-10.2c-3.7-4.6-12.5-5.2-7.2-12.1
		c-3.6,3.1-8.7-8.4-3.6-9.4c5.7-4.7,2.2-6.8-2.9-7.4c-5,0.8-6.2-5.7-9.4-8.6c-3.4-1.4-6-0.7-0.7-4.7c3.8-4.1,10.8-9.8,3.4-11.3
		c-2.4-1.4-8-2.7-5-11c-3,0.2-7.3,5.4-8.2,1.2c-0.4-4.5-5.6-1.8-5.5-5.1c0.2-1.9,4.1-4.5,4.1-6.6c-3.3,0.9-7.7,5.4-5.8-2
		c0.4-3.4,2.2-6.1,3.6-2.7c4.4-1.6,4.3-6.2,7.2-7.4c0.5-4.1-0.5-4.9,2.2-8.2c-3.4-8.8,8.6-5.2,12.2-6.6c5.4-1.4,15.1,3.3,15.1,9.4
		c-2.5-1.2-7.3-1.3-8.9,1.6c3.7-4.4,7.6-1.3,10.6-1.6c-3.6,7.8,3.5,10.2,6.2,11.3c-5.4,9.3,2.6-5.1,0.5,2.3c2.1,4.8,0.8-2.8,3.8-0.4
		c-3.6-3.2-4.5-11.1-2.4-8.6c-0.5,4,2.3-4.1,2.4-3.1c3.4,1,0.2,11.4,2.2,3.5c1.8,3.5-2-8.3,2.9-1.6c3.3,4.5,4.6,4.2,1.4-2
		c4.3,5.5,11.4,4.5,17.3,12.5c13.8,10.3,25.1,26.4,37,38.3c2.6,2.4,11.9,0.2,4.6,5.1c-5.5,4.2-13,13.6-10.3,20.7
		c3,2.7,4.7,4.7,7.2,7.4c-2.8,1.2-8.1,8.9-8.2,10.6c4.4,0.6,1.2,2.6,1.4,5.5c-4.9,2.3,3.8,6.7,2.4,7.8c0.7,5.9,12.3,3.1,12.2,7.8
		c-3.6,3.4,0.2,6.5,1.9,9.8c-0.3,0.1-7.3-5.6-10.8-2.3c-4.1,9.1-11.6-5.1-17.5,2c-2.6-2.1,1.8,1.9-2.4,3.1
		c-1.5,3.9-8.9,9.5-13.4,5.9c-0.5-7.2-5-15.6-2.9-19.6c0-3.8-0.6-5-4.8-5.1c-3.5-6-9.1,4.2-13.7,0.8
		C655.8,941.8,653.9,942.9,651,941L651,941z"/>
	<path id="Dwyfor_x5F_Meirionnydd" name="Dwyfor_x5F_Meirionnydd" pointer-events="all" d="M377.9,979c-2.4,11.8-10.6,6-17.5,8.3c-3.3-1.8-7.1,1.6-5.1,4.7
		c-5.9,4.9,3.7,16.5-6.7,19.2c-5.1,0.2-13.4-1.6-18.7,0.8c-3.6,1.7-7.7,1-9.1-3.9c-7.3,2.1-13.4,10.7-21.1,12.5
		c-3.4-1.3-8-1.9-10.1-5.5c-3.6,7.6-10.3,17-12.5,4.7c4.3-6.1-4.3-6.7,0-11.7c-1.5-7.5-7.7,0.5-9.6-1.6c-1.8-2.3-1.3-8.9-1.2-11.4
		c3.1-2.8-5.4-2.9-5.8-1.6c0.8,4-1.7,12-3.4,12.5c-1,8.4-7.5,8.1-10.3,13.7c-6.5,3.8-9.9,15.9-17.7,11.7c-5.3,1.5-7,8.9-12,11
		c-1.5,10.9-8.5,7.2-11,14.9c-4.1,2.9-9.8,11.8-15.8,9.8c0.9-1.7-12.2,4.2-10.3-2.8c0.6-6.9-2.5,3.8-2.9,2.3
		c-4.2,2.7-6.2,8.5-12.5,8.6c-5.2-0.5-6.9,14.6-13.4,11.8c-1.9-1.2-4.7,7.5-8.4,10.1c3.6,6.5-6.1,6.6-7.9,8.6
		c0.3,6.3-3.5,8.7-7.2,9.4c-2.9,2.7-6.1-0.5-5.5,5.9c0.1,1.2,2.4,7.2-1.2,7.8c-2.7,2.4-3.5,3.3-3.1,4.7c-1.5,4.5-6.9,5.6-4.6,11.8
		c-4.7,2.4-8,6.9-2.4,10.1c2.3-0.8,5.4,3.8,7.7,3.2c4.4,1.5,2.7-15.7,10.6-11c5.7,0.5,6,8.2,9.1,1.9c3.2-1.3,3.2-2.8,7.2-3.9
		c3.9,1.4,5.7,5.6,9.1,0.8c6.6-2.4,6.7-15.7,15.8-10.6c8.2,3.3,15.2,8.6,19.4,14.1c-3.4,4.9-0.7,10.9,4.8,11.4
		c2.5-4.2,3.6-11.8,9.8-8.6c5.3,3.9,6.8-13,0-11.8c-1.7-5.9,1.5-9.9,0.7-12.9c1.9-5.2,12.4-4.8,7.2-11.7c4.8-11,17.3-14.8,27.8-15.3
		c2.4-3.3-3-5.2,1.9-7.4c7.8-3.2,17.8,2.1,23.8,0.4c-0.9-7.3,7.8-10.7,12.2-9c2.8-1.7,10.8,2.1,15.8-2.7c6.2-2,11.8-4,17.8,0
		c4.8,4.4,11.6,6.1,12.2,12.1c5.4,5,7.1,11,12.7,19.2c5.4,5.8,1,13.6-0.9,19.2c-6,1.9-11.4,11.6-4.6,18c9.7,13.1,21.7,25.9,29,44.2
		c0.5,0.7-2.4,6.9,2.7,5.1c-2.6,2.7-6.4,1.2-3.6,3.5c2.3-2.7-0.4,2.6,1.9,2.3c3.9,11.7-6.3,13.2-9.8,18.4c-6.3,2.6-6.6,11.7-11,18.7
		c-0.8,8.3-8.3,17.9,0,21.9c6.5,11,10.8,19.7,15.6,34.4c-0.4,6.7,8.1,0.5,11,1.2c6.4-3.2,12.3,9.8,16.1-2.8
		c2.1-5.4,8.2-5.8,11.5-3.5c3.3-4,10-6.5,12.7-0.8c6,0-2-13.1,4.1-10.5c3.2-2.6,2.4-4.7,7-3.9c4.2,0.6,7.1,0.4,8.2-3.2
		c4.1-0.6-0.3-7.9,5.3-5c-0.4-8.7,12.6-2.3,6.7-8.3c0.6-2.5-0.7-7.3-0.7-9c2-1.9,0.5-6.7,5-7c-1.5-2.8-4.9-5.1-2.2-9.4
		c2-7.6,8.1-9.3,9.1-14.5c3.3-2,4.5-3.6,7.7,0.8c4.7,1.4,11.7,0.6,13.2,0.8c3-9,9.5-2.8,15.1-3.5c1.4,5.5,2.3,2.5,4.8-0.4
		c-1.5-5.6,3.3-5,5.5-8.2c3.5-2.9,11,3.2,14.9-2.3c7.2,1.1,10-2.9,14.7-5.1c0.8-5.4,0.3-15,7.2-18.8c0.4-2.6-4.5-2-1.7-6.3
		c-4.1-5.9,1.8-11.8-3.6-19.2c-0.8-3.7-6.2-10.1-0.5-13.3c1.1-5,4.4-19.1,9.1-12.5c4.8,1.8,2.6-6.8,8.9-5.9
		c8.8-2,18.6-2.3,23.5-17.2c8.1-3.9-0.4-11.7-0.7-18.3c-1.8-0.4,3.6-4.8,3.3-8.6c4.9-0.7,5.9-9,0.5-8.3c-2.8-3.1-8-5.6-2.2-9.4
		c0.7-6.1,7.5-8.4,12-13.3c1.7-2.6-1.4-8.3,2.9-10.2c2.5-0.9-5.2-3-6.5-3.1c-4.8,2.7-7.9,10.1-13.7,9c-3.7,4.7-4.6-1.3-9.8-0.8
		c-5.8-2.4-11.4,3.3-17.5,1.2c-10.3,4.5-8.4-17.4-13.4-16c3.7-3.8,5.2-12-1.2-8.6c-4.8,0.6-10.9,4.3-17.5,8.6
		c-6.2-2.2-8.2,10.2-15.1,5.5c-9.2,0.9-18.1,8.5-24.5,16.8c-8.4,0.4-18.1,10.7-23.7-2.3c-3.7-9.5-13.9-16.6-20.2-19.2
		c-1.6-2.4,5.1-11-0.7-11c-2.8-9.4-13-2.1-17.8-1.2c-3.5,1.7-17.2,8-16.8-4.3c1.3-4.1-3-8.8-0.2-14.1c3.5-5.6,9.5-14.6,0.7-17.2
		c1.5-4.7,1.8-4.7-1.9-4.3C382,982.2,380.5,979,377.9,979L377.9,979z M358,1200.7C358.3,1200,357.1,1200.3,358,1200.7z
		 M359.9,1200.3C359.4,1199.2,359,1200.8,359.9,1200.3z M359.4,1198.8C359.5,1197.6,358.6,1199,359.4,1198.8z M204.3,1140.5
		C204.8,1141.1,204.6,1139.2,204.3,1140.5z M187.8,1147.6C186.6,1145.8,188,1148.9,187.8,1147.6z M148.2,1090.1
		C149,1089.6,147.8,1089.3,148.2,1090.1z M323.4,1090.8C324.2,1091.2,323,1091.6,323.4,1090.8z M323.9,1091.2
		C324.7,1091.6,323.5,1092,323.9,1091.2z M324.1,1094C325,1093.9,324.1,1095.1,324.1,1094z M335.9,1132.7
		C336.5,1132.8,337,1134.3,335.9,1132.7z M204.8,1141.3C205.7,1141.2,204.8,1142.4,204.8,1141.3z M216.6,1144.4
		c-1.9,2.9,3.6,2.4,0.2,0H216.6z M213.5,1147.6C211.9,1151.5,215.6,1152.4,213.5,1147.6z M133.5,1155.4
		C131.3,1157.1,134.8,1156.5,133.5,1155.4z M132.1,1156.9C130.7,1158.5,133.6,1157.7,132.1,1156.9z M97.5,1167.1
		c-0.9,3.7-1,8.4-3.1,11.7c0.4,6,2.8-4.1,3.8-2.8C103.8,1176.4,104.7,1165.9,97.5,1167.1z M93.9,1173.7
		C93.8,1175.6,95.1,1174.1,93.9,1173.7z M359.9,1198.4C360.7,1197.9,360.4,1199.7,359.9,1198.4z M362,1210.9
		C362.5,1210.4,362.3,1212.2,362,1210.9z"/>
	<path id="Gower" name="Gower" pointer-events="all" d="M296,1817.6c2.9-1.8,5.2-1.1,0.5-3.5c-5.7,2.7-2.2-4.8,1-2.3c10.8-6.7,14.3,19.2,25.7,13.3
		c5-1,10.3,0.6,13.7-5.1c6.7,0.1,11.5-4.2,17-5.1c4.8-0.5,4.8-6.6,1-9c-2.8-6.9,5.8-0.5,5.5-8.2c-2-3.7,2.9-3.1,4.6-5.1
		c-2.5-5.7,0.9-2.9,2.6-3.5c-3.8-1.5,0.9-6-1.7-8.6c-0.2-2.1-1.1-3.8,1.9-8.2c4.6,1.9,3.3-3.3,5.8-3.5c-1.3-3.9,3.4-4.2,3.1-5.5
		c2.8-1.9,3.8-5.6,5.5-7c-2.7-9,6.7-5.6,8.6-0.4c6.4,0.9,8.9-0.4,13.7-3.5c4-2,7,5.3,7.4,6.6c2.1,3.4,4.9,4.4,9.4,10.2
		c4.3,3.2,2.2,10.5,4.1,12.1c1,4.3,1.8,6.1,3.4,9c-1.1,4.4,4.9-1.6,5.5,3.1c0,3.3,3.6-1.4,5.3,2c-0.2,9.4-8.1,2.5-11.5,5.5
		c-1.9-2.2-8.7-5.5-8.9-0.4c-1.6-0.9-0.3-5-5.3-3.1c-4.6,3.6-8.1,1.5-11.8,8.6c0.5,6.3-5.9,12.2-12.5,12.1c-7,4.7-10.4,5.6-17.5,4.3
		c-3.5-2.4,2.7,4.1,0.7,7.8c0.4,2.3-4.3,4.4-6,3.1c-0.8,0.1-3.9,7.2,1.2,7c3.3-2,7.1,5.2,5.5,7.4c0.4,4.7-5.7,7.6-1,9.4
		c-0.4,6.6,5.5-2.6,8.4,0.4c7.3-1.4,10.3,1.9,7.2,10.6c3,1.5,8.1,5.5,4.8,3.5c-3.3,1.9-9,2.5-14.2,0.8c-3.5,4-5.6-1.6-10.1-0.8
		c-2.8-0.1-6.7,3.9-7.9,5.9c-6-2.1-7.3-3.3-14.4-4.7c-5-4.2-17.1-1.8-19,6.3c3.8,1.5,4.2,10.3-1.4,7.4c-3.3-1.3-5.3-2.5-10.3-2.7
		c-2.5-2-8.2,1.7-5.8,5.9c-3.4-0.1-9.4-2.3-14.4-5.1c-2.6-1.8-6.7-4.2-10.3-7c-1.9-2.2-9-2.6-12.7-1.6c1.5,2.9-7-3.3-9.4-3.5
		c3.7-1.4,11.2,6.7,13.7-6.6c1.7-8.5-8.6-18.2-6-19.6c6.1-3.6,12.9-8.1,18.5-13.7c3.4-6.6-0.2-12.1,3.8-12.9
		C294.2,1818,294.9,1818.5,296,1817.6L296,1817.6z"/>
	<path id="Islwyn"  name="Islwyn" pointer-events="all" d="M671.6,1841c-2.7,1-10,3-9.1-1.6c-0.4-1.8-6.1-3.5-3.4-8.6c-0.1-3.4,7.3-7.8,2.6-12.5
		c0.8-2.1-1.3-8,1.4-9c-0.9-5-1.3-6.5-2.9-12.1c0-5.3,7.7-5.8,3.6-14.1c-4.5-7.4,2.3-5.8,2.6-9.4c-4.1-4.5-1.6-13,3.4-6.6
		c7,7.7,7.6,18.4,14.2,19.6c3.8-2.8,6,2.4,7.2,6.3c7.2,0.9,4.4,6.9,1.7,10.6c3.9,3.3,6.5-1.7,7.4-4.3c0.9,1.2,1.2,4.3,5.5,4.7
		c5.3-5.3,8.9-2.6,10.8,6.3c-0.3,8.3-2.3,6.2-1.2,11.7c-2.4,3.2-10.2,8.8-8.9,12.5c6.8-0.4,5,9,8.4,11.3c1.6,2.2,7.4,4.5,1.9,5.1
		c-2.3,4.5-6,0.8-7.9,5.5c-5.3-1.1-8.1-13.7-16.6-10.2C685,1848.4,676.7,1851.4,671.6,1841L671.6,1841z"/>
	<path id="Llanelli" name="Llanelli" pointer-events="all" d="M239.1,1773.4c5.1-3.8,8.5,1.9,14.6-1.2c3.7-0.7,11.4,4.1,12.2-0.8c-2.1-3.9,2.5-8,5-7.4
		c3.6-3.7,4.9-7.6,7.4-8.2c4.1,2.9,5.2,6.9,10.8,3.5c1.2,5.9,1.6,10,6.5,9.8c0.1,2.5,4.9,6.4,5.5,8.6c0.6-3.5,5.8-4.6,5.3-6.6
		c-5.2-1.9-2.9-7.8-0.7-9.8c0.2-6.4,8.1-7.2,8.2-10.2c-3.8-1.7-1.2-7.3-1-9.8c4.6-1.5,10.2-3.9,14.4-7.4c1,3.1-0.8,2.7,2.2,4.7
		c4.3,5.3,9-2.7,13-2.7c5.8,0,9.4-3.7,14.9,3.5c-1.3,6,2.7,6-0.5,9.8c2.5,9.5,8.7-3.6,15.4-1.6c3.6-1.2,8.6-6.6,11.5-2.7
		c-0.6,3-0.7,6.3-2.4,9c1.7,4.8-2.7,5.7-4.6,9.4c-0.6,1.2-3.3,1.2-3.8,5.1c-0.8,1.3-1.7,4.9-6,4.7c-3.6,7.1,0.4,4.9-0.7,13.3
		c-1.7,0.1,3.3,5.7-0.7,2.3c-3.7-2.3,1.5,8.5-3.8,4.7c-3.3,1.8-0.2,9-5,9c-7.8-0.9,4,7.2,0.2,10.6c-4.5,4-10.3,3.1-15.4,6.6
		c-6.9-1.2-9.9,8.6-17,4.7c-8.8,6.4-14.6-8.5-20.9-12.9c-6.3-0.9-5-4.2,1-4.3c8,0.9-2.2-4.1-4.3-0.8c-7.6-2.1-14.2,11.9-19.4,10.2
		c-2.1,1.6-7.8-3-4.8-2.7c-4.3,0-2.7-0.6-4.8-0.8c-4.7,0.4-2.6,0.2-7.4-3.5c-5.8-2.3-9.2-10-14.9-14.5c-4.9,0.8-1.2-12.3-4.3-10.6
		c2.6,1.3,0.2,10.5,1,10.2c-1.8-3.4-2.8,0-3.1-2.3c2.1-4.4-1.1-22.8-0.2-9.8c-0.4,5-0.6,17-1.9,5.9c-3.4-1.4-4.7-3.7-1.7-7.8
		c2-5.3-2.7,1.9-2.6,3.1c-0.2,5.7,6.1,3,3.4,7.8c-2.5-1.7-6.2-2.1-5.3-9c0.1,11.8-3.3,0.7-8.2,7c-2.8-5,1-11.8,5.8-10.6
		C233.2,1777.6,241.8,1775.2,239.1,1773.4L239.1,1773.4z"/>
	<path id="Merthyr_x5F_Tydfil_x5F_and_x5F_Rhymney" name="Merthyr_x5F_Tydfil_x5F_and_x5F_Rhymney" pointer-events="all" d="M610.7,1794.5c-3.5-8.1-9.8-10.9-13.9-14.9
		c-2.8-10.7-13-16.2-15.8-22.7c5.6,0.6,9.2,4.1,10.8-1.2c2.3-1.2-0.3-6.5-3.1-10.2c0.2-6.5-4.4-4.8-5-12.5
		c-3.6-8.4,3.6-9.7,5.3-12.9c3.3-10.9,12.1-0.4,7.9,3.5c1.6,6.4,7.9-0.3,10.1,5.1c4.8-2.2,5,9.8,5.5,11.3c7.5,3.7,17.9-3.8,22.3-3.5
		c2.8,2.7,4.4,10.6,8.4,9.8c5,3.1,1.1,12.5,7.2,13.3c-0.7,6.7,4.5,7.4,8.6,12.5c3.2,3.6,6.3,13.4,5.8,18.8
		c-3.5,6.1-9.8,1.2-12.2,7.4c3.6,4.3-6.8,2.4-7.9,5.9c-5.7,1.3-3.5,6.1-3.8,11.7c-1.1,6.1-6.4-6.3-4.8,2.7c-0.9,3.6-8.1,11-5.5,2.7
		c-2.1-4.1-6.3,3-9.1-7.4C617.2,1808.6,613.7,1802.1,610.7,1794.5L610.7,1794.5z"/>
	<path id="Monmouth" name="Monmouth" pointer-events="all" d="M709.3,1638c4.3-5.3,5.3-4.6,9.6-10.2c4.3,5,9,9,13,14.1c3,3.5,6.4,7.5,7.9,13.3
		c-2.6,9.6,8.6,6.9,11.3,4.7c1.1,3.5,1.2,5.9,1.4,9.4c-2.5,4.3,5.1,5.1,7.7,2.3c5.4-2.9,8.5-3.8,13.4-6.6c2.6-3.2,6.4-3,9.8-5.5
		c-1.8-7.3,6.2-1.1,6.7,0.8c3.2-0.3,6.3,1.5,8.2,3.5c-2.6,1.4-9.7,4-3.8,3.9c1.4-0.1,7.2-4.3,7,3.5c1.7,3.8,7.8,0.2,8.4,6.3
		c5.3,4.1,9.4,8.6,16.3,10.2c-3.9,3.9-5.5,10.2,0.2,11.7c1.6,6.4,6.7,9.6,9.6,11.3c0.1,4.4,4.6-0.1,5.5-1.6c3-8,3.7,8.7,6.7,0.8
		c1.1-3.6,5.6,0.2,5,5.1c2.9-1,4.2-3.7,8.6-1.2c3.8,0,5,6.8,6.2,7c-6.4-1.1,0.5,10.9-7.4,8.6c-4.4,2,0.1,8.2,0,9
		c-1.2,4.9-0.8,9.8-2.9,14.9c0.9,5.9,9.6,7,4.1,13.7c0.6,7-6.8,5.9-6.2,9.8c3,2.6,1.6,10.5,5.8,12.1c3,8.3-7.8-0.2-3.6,5.1
		c7.8-0.2,0,10.8,4.8,12.1c8.2,2.6-1.9,6.7-5.8,5.5c-3.8,6.8,3.9,5.7,6,2.3c-0.3,4.9-8.8,13.4-2.4,11c4.4,1.4-0.4,11.5,5.3,12.5
		c-0.3,4.7-2.7,12.1-3.4,18.8c-5.1,3.9-13.1,2.4-15.6,13.7c-8.5,5.1-2.5-0.7-6-9.4c-3.1,0.7-5-3.1-3.6-5.9c-2.3-12.2-9.5,4-12.7,1.6
		c0.6-7.3-9.5-4.3-11.5-5.1c-1.8-1.4-5.6-3.4-7,1.6c-2.2-1.2-6.2-3.7-1.4-6.6c-2.2-8,12.9,0.3,8.2-6.3c-2.8-4.7-7.8-12.3-11.8-16.4
		c-6.3,4.5-14.6,3.7-20.2,7c1.7,3.1-1.9,0.7-1.4,3.1c2,3.8-3.7,0-4.3,3.1c1.3,5.2-5.7-4.8-7.2,3.9c-8.5,4-2.3-4.6-8.6-6.3
		c-4.9,5.8-12-0.7-16.8-3.9c-3.4-2.9-3.6-5.4-4.3-10.6c-1.3-4.5-1.6-10.6,2.9-6.6c2.1,0.9-0.7-10.5,5.8-7c-0.1,2.9,4.4,3.3,4.1-0.4
		c1.7-5.6,5.2-11.1-1.4-8.2c-4.5,1.6-9.3,2.3-5.3-4.3c5.3-5.1,5.9-12.4-1.2-10.6c-1.2-4.4-14.3,4.5-11.5-7
		c4.2-11.1-3.6-14.4-6.2-17.2c-2.5-5.4,5.6-5.6-2.2-12.1c-8.3-5.1-17.9-10.5-26.9-7.8c-1.8,0.4-12.4-0.6-7.7-3.1
		c-1.4-0.7,0.8-3.3,1.4-3.9c-1.6-1.3-1.3-5.4-3.4-6.3c4.4-0.1,6-4,5.8-5.9c2.5-1.9,5.9-5.7,7.2-7c2.3-1,8.6,8.5,6.2-0.8
		c5.2,3-0.5-5.7,4.6-4.7c4.4-1.9,4.8-7.4,9.8-9c-6.3-5.2-1.4-8.7,1.7-9.8c4.9,0.8,7.2-1.8,6.2-7c2.3-3-4.4-7.9-3.1-11.3
		c-4.3-1.8-6-6.7-10.6-7.8c-2.7-4.8,0.7-7-2.6-11.3C708.7,1643,716.4,1648.4,709.3,1638L709.3,1638z"/>
	<path id="Montgomeryshire" name="Montgomeryshire"  pointer-events="all" d="M679.6,1089.3c-3.1,5-8.5,4.9-12.5,7c-3.5,5.1-1.4,7.7-7.4,10.2
		c-3.1,4.9-9.9,1.6-14.6,3.1c-4.8-1.4-8.7-4.3-10.3-9c-8.2,2.8-14.3-8.3-21.6-5.5c-7.6-4.7-9.7,16.1-18.7,12.5
		c-8.5,4.7-19.7,2.3-26.6,5.5c-5.7,18.3-20.7,11-28.3,18.8c-0.5,8.9-9-6.5-10.3,7.4c-0.7,5.7-2.7,8.7-5.3,12.9
		c1.2,4.9,4.6,6,4.6,10.2c4.1,8.3-1.4,11.8,2.6,18c-3,4.5,5.9,4.2-0.9,6.6c-4.1,6.1-3.9,13.5-4.6,17.2c-5.1,3.8-8,6.3-15.8,5.5
		c-4.7,6.7-12.7-3-17,5.1c-1.3-1.7-3.2,5.1-2.7,6.2c-2.3,2.9-3,4.4-4.3-0.4c-3.6,0.5-8.9-2.3-11.8-1.2c-3.1,2.4-3.2,8.5-6.5,3.5
		c-4.5,3.7-11.1-0.2-14.6-2.8c-1.2,2.4-4.5,2.9-4.6,5.1c-2.4,3.9-11.2,11.2-7.7,18.4c6.6,3.3-5.3,3.6-1.4,9.4
		c-4.3,0.4,1.7,5.6-1.2,9c6.1,5-2.7,2-5,5.1c-0.1,7-6.7,0.2-4.1,5.9c-1.2,4.2-4.1,1.6-4.1,6.3c-2.6-0.2-9.3-1.3-10.6,0.4
		c-2.1,4.6-8.1,1.5-4.3,9.4c8.3,0.5,19.8-1.3,25.4,0.8c6.8,3.2,5.1,12.1,6.7,19.6c-2.9,2.8-2.7,8.9-1.7,10.1
		c1.1,7.1,4.2,9.8,6.2,14.5c3.5,1,6,3.3,8.6,0c1.1-5,7.4,0.9,10.8-4.7c0.1-6.7,5.4-4.4,8.7-9c3.1-3,9.1,5.7,1.7,7.4
		c3.8,11.2-6.2,14-8.9,16c0.5,7.9-4.8,17.2,2.2,16.4c2.7,4,11.2,4.7,10.1,11.4c3.6,2.7,9.6,2.9,6.7,10.1c3.4,0.9-0.5,6.5,3.6,9
		c-0.4,6.1,5,18.8,7.7,6.6c0.6-8.4,12.5-4.6,14.9,2.4c7.2,0.5,14.2,9.9,18.7,7c-4-4.5-0.3-10.3,4.6-7.8c3.2-7.2,9.4-12.4,13.2-16.4
		c2-4,7.3-2.3,9.6-4.3c4.8,1.2,6.4,5.6,8.6,9.8c6.9,2.5,10.7-6.9,18.2-6.6c4.4-4,6.3-11.9,9.8-16c4.1,0.5,5.5-1.4,3.1-3.9
		c4.7-2.8,9.3-4.3,13.4-3.1c2.2,2.7,6,1.2,7.9,3.9c2.4-6.4,7.1-3.8,11.3-5.5c5.2-4.9,14-11.6,20.7-10.5c5.2,3.2,10,8.7,13.4-0.8
		c3-4.5,8.2-7.7,13.9-6.3c7.3-8,15.3-9,22.3-12.5c5.5-4,12.4-0.1,18.5-2c3.9,0.1,11.8,0.8,11.5-1.9c-0.9-3.5-2.4-5.9,0.2-10.2
		c0-4.4,6.9,0.1,8.9,0.4c3.4-2.6-0.7-7.1,1.7-9.8c1.3-6.1,3.1-9.5,1.2-11.7c1.5-7.9-5.1-13.9-12.7-9.4c-4.8,3.4-7.9,10.9-13.4,10.6
		c-3.4,0.7-11.6,4.8-5.1,7.4c3.4,6.1-9.2,6.5-11.5,7.8c-2.3,1.8-10.4-0.4-5.1-4.7c5.5,0.7,8.6-3.8,4.6-9.8c-2.7-6.9-9-14.5-6.7-18
		c-0.8-1.1,5.6-2.9,6.5-1.2c3-3.4,7.4-7.2,10.5-8.6c-3.4-6.8,3.2-6.7,2.7-11.4c3.5-4.2,2.7-5.9,8.2-6.3c-2.8-5.5-12.1-5.2-4.3-8.6
		c4,0,8-0.6,8.2-5.5c1.5-0.9-0.7-6.3,2.4-8.6c0.2-2.7,1.8-4.6-1-3.9c3-5.7-3.4-10.4,3.8-10.2c0.2-5.5,6.4-6.7,3.3-14.1
		c2.4-4.9,1.1-4.2,4.3-1.9c4.7,1,9.6-2.3,13.2-2.8c-2.2,6,2.7,8.2,5.5,5.1c0.4-4.7-2.7-6.5-1.9-9c-1.8-4.6-10.5,3-10.6-4.3
		c4.9-2.1-3.8-3.6-5.3-6.3c-4.1,1.8-4.1-2.4-0.9-3.2c2.4-5.5-2.3-8.4-4.6-5.5c-0.1-3.2-5.9,2.6-2.7-1.6c-1.4-3.3-9.4,1.8-5.5-2.8
		c-3.3-2.5-4.8,3.6-7.7-1.2c-3.1,7.2-3.4-4.7-6.7-2.3c-1.5-4.4,0-5.1,1-9.8c-2.5-0.6-5.7,2.1-8.2,2c0.6,2.5-4,6.1-4.8,2.3
		c-5.7-0.2-9.6-1.9-14.2-5.1c-0.3-2,5.9-6.9,0.7-6.3c-3.3,5.2-2.4-4.6-2.9-6.6c1.5-5.5,5.3-7.5,4.8-12.5c2.2-4.6-6.3-4.1-1.2-7.4
		c3.1-3.4,8.8-4.6,10.3-9.8c-2.7-1.8-9.4-4.3-7.7-7c1.6-4.1,7.9-2.1,2.2-4.3C688.2,1093.1,685.9,1088.9,679.6,1089.3L679.6,1089.3z
		 M472,1322.8C471.8,1324,472.7,1322.6,472,1322.8z M441,1302.1C440.4,1301.6,441.3,1303.2,441,1302.1z"/>
	<path id="Neath" name="Neath"  pointer-events="all" d="M463.6,1834.8c1.2-5-2.4-7.2-6.2-7.4c-4.5-0.4-10.4-0.3-14.9-6.3c2-5.5-2.7-7.4-5-8.2
		c-4.6-2.6-1.2-2.1,0.5-9c0.4-5.2,3.1-12.3-1.4-9.4c-2.4,1-2.9-5.2-7.7-2.7c0.6-2.7-2.1-3.8-2.4-7c-0.5-3.5-2-5.9-2.2-7
		c1-9.3-9.6-14.1-11.3-17.6c-1-2.3-2.2-3.1-4.3-7.4c-5.6-1.2,4.3-4,5.3-2c2.6,3.5,6.1,1.2,9.8,2.3c2.2-7.4,2.6-12.2-1.7-16
		c-0.7-4.3-4.7-4.8,0.7-4.3c6.6-3.5,14-5.2,20.2-1.6c4.5,1.1,6.5,3.8,7.9,7c1.9,8.2,7.9,7,11.3,14.5c1.8,4.4-1.4,9.1,5.5,9.4
		c5.8,2.5,12.2-3.2,11-9c2.5-7.9,13-5.6,19-7.4c7.3-7.1,14,1.8,20.2,4.3c2.6,1.1,8.3,0,10.1,2.7c0.9,8.1,2.2,10.4,6,21.9
		c1.7,7.2,0,14.1-4.6,7c-12,2.8-17.9,20-28.3,24.6c-4.6,5.2-9.7,18.9-17,18c-2.2,2.6-0.6,6-5,8.6c-4.2,1.4-6.5-6-9.4,2.7
		C468.3,1835.5,464.2,1837.2,463.6,1834.8L463.6,1834.8z"/>
	<path id="Newport_x5F_East" name="Newport_x5F_East"  pointer-events="all" d="M761.7,1892.7c-6.9,3.8-10.4,1.3-13.9-7.4c-1-5.8,11.1-4.6,4.8-10.6
		c-6.4-2.2-4.2-7-0.5-9c-3.1-4.4-9.7-6.7-5.3-12.9c-3-7.5,1.1-6.8,4.3-3.9c1.7-5.1,6.3,3.6,6.5,6.6c7.6-3.6,16.2-3.5,19-16
		c0.8-0.2-3.4-3.6,0.5-4.3c2.4,2.6,3.4-1.9,2.4-3.1c3.4,1.6-0.2-1.8,3.8-2.7c5-0.8,13.8-4.1,19.2-5.5c2.5,6.2,8.4,10.9,10.3,16.4
		c4,4.9-7.9-0.1-8.4,3.9c-0.6,3.7-4.3,7,0.5,7.4c2.1,2,4.1-4.8,7.4-1.2c1.6,2.7,11.5-2.1,12.5,5.1c1,4.8,6.5-6.5,9.4-5.1
		c4.6-0.4,1.1,8.3,3.8,9c2.7-0.2,6,5.4,3.8,15.3c0,1.2-6.5,12.4-6.5,15.6c-1.6,2,1.5-6-2.9-1.2c-1.7,5.4-7.8,4.3-7,7
		c-3.1,0.3-4-6.4-4.3-7.4c2.1-1.6,1-5-0.5,1.6c-6-5.3,4.8,3.7,0,4.3c-1.6-5.9-1.1-2.3-0.7-1.2c1.5,4.5-4.9,7.9-2.2,1.6
		c-1,0.2-1.4-1.5-1-2.3c1.8-4.9-7.2,2.9-3.6,4.3c-3.6,7.7-2.4,0-1.2-2.7c-2.9,5.4-1.8,5.3-1.7,1.2c-4,3.4-5-1.9,0-3.5
		c4.6-2.9,5.1-5.2,0.5-1.6c-7,3.3-6.8,4.8-14.9,7.8c-1.4,0.9-7.7,2.7-7.7,4.3c1.2,0.2,6.6-4.8,7.2,1.2c-3.9,0.5-12.2,2.6-14.6-3.5
		c3.2,0.5,12.2-2.6,12.7-5.9c-0.4-1.2,7.3-0.9,4.8-3.1c4.1,0.6,3.8-1.4,4.6-3.5c3.9-3.8-0.5-1.9,3.6-5.1c-3.7,2.2-5.4,4.5-8.4,4.3
		c-2.4,0.9,5.3,0.9-1,3.1c-5.8-1.4-7,9.8-12.5,6.3c4.4-0.9-0.5-6.7,5.5-7.4c3.7,0.4,11.5-5.4,4.3-2c-5.4-2-10.3,9.8-13.4,7
		c-0.5-4.1,3.2,2.8,2.9-2.7c1.3-1.6-5,2.2-6,2.7C773,1892,767.1,1891.2,761.7,1892.7L761.7,1892.7z M821.2,1896.2
		C821.2,1894.1,822.9,1895,821.2,1896.2z"/>
	<path id="Newport_x5F_West" name="Newport_x5F_West" pointer-events="all" d="M715.1,1914.2c-3.3-7.2-6.6-9.8-0.2-11.3c-4.2-1.3,7.6-3.4,0.2-5.9
		c-1-6.3-6.4-6.4-9.6-10.2c-1.7-3.6-4.6-2.1-5-3.1c2.5-2.2,4-8,6-8.6c-2.8-4.6,5.4,1.2,3.6-5.5c-3.4-1.7-6.6-6.1-10.6-5.5
		c-3.8-8.5,6.1-12,9.6-7.4c1.7-5.3,5.3-1.5,7.9-5.5c4.4-1,1.3-2.8-0.7-4.3c-5.8-3.1-2.2-8.9,2.4-4.3c2.3,3.9,8.5,7.3,7.7,3.1
		c-0.2-2.3-3.3-5.9,1.2-7c3.6,0.4,7.2,6.8,11.8,1.2c4.2,2.8,5.4-5.5,8.9-3.9c4.2,0.5,8.3,1.7,11.5-1.2c5.6,1.2,0,9.3,7.2,6.3
		c3-6.7,8-2.6,9.8-2c-2.8,12.5-11.4,13-19.2,16.4c-0.6-3.5-3.2-8.9-6.2-8.2c-0.6,3.6-8-5.3-5,3.5c0.9,5.4-3.6,8.3,2.2,10.6
		c5.9,5.1,1.4,4.9-0.5,9.4c4.5,2.8,10,9.5,1.2,11c-6.1,3.4,9,12.2-0.5,14.1C736.4,1902.1,724.5,1907.1,715.1,1914.2z"/>
	<path id="Ogmore" name="Ogmore"  pointer-events="all" d="M579.2,1903.6c-7.1-5.5-16.9,3.2-20.9,0.8c1.6-3-3.2-1.6-6-4.7c0.8-3.6,0.6-7,0.2-8.6
		c-2.7-2.3-6.2-0.5-8.2,0.4c-7.4-1-10.1,3.2-14.6,0c-9.2-2.5-16.4,9.8-24.5,7c-3.6-1.6-3.1-8.9-3.1-10.6c5.8,1.6,7.6-4.9,5.8-10.6
		c-3.3-2.7,0.4-4.9-3.1-6.6c-4-2.6-17.2-15.9-8.4-20.7c5.9,2.9-0.7-3.5,1.9-7.4c-0.5-4.9,3.7-14.6,7.4-16.8
		c6.6,0.1,16.9,5.6,22.8,2.3c7.7-1.8,13.7-3.3,21.1-1.6c2.7,3.8,7.4,9.9,10.8,15.6c2.4,2.5,5.6,4,8.2,5.5c3.9,2.6,5.4,1.7,9.8,3.1
		c4,0,3.8,0.3,1.4,4.7c-4.3,4.2-1.2,8.8-1.2,12.5c-0.6,3.6,4.2,6.2,6.2,7.4c0.4,9.1,10.1-2.9,13,4.7c6.3-1.1,2.2,8.4,2.9,10.2
		c1.8,4.6,0.8,5.6-1.7,8.2c-1.4,1.3-9.3,2.6-3.8,8.2C591.4,1907.7,585.2,1907,579.2,1903.6L579.2,1903.6z"/>
	<path id="Pontypridd" name="Pontypridd"  pointer-events="all" d="M623.9,1889.9c-3.6-3.7-6.1,5.6-2.2,8.2c-0.2,2.6-0.3,7.5-1,7.4c-5.7-1.1-8.9-1.5-13.2-1.2
		c-1.9-0.1-8.3,0.2-8.9,6.6c-3.5-0.5-4.3-5.6-5-10.2c3.7-1.1,5.8-1.2,7.2-4.3c3.2-2.2-2.9-8.6,1-10.6c0.8-7.2-5.7-6.7-8.2-8.6
		c-3.5,1.7-10.1,2.9-9.4-2.7c-6.8-1.3-4.4-8.4-7-12.9c0.6-4.4,3.6-9.5,4.8-10.2c-1-3.9,3.8-3,7.4-1.6c-2.4,7.8,2.9,2.7,4.3,3.1
		c4.3,0,13.6,1,13-2.3c-0.9-8-2.3-11.7,2.4-14.1c2.3,2.2,5.7-1.8,5.5,2.7c3.2,0.6,10.8,6,11,4.7c-1.6,4.7,8.9,0.2,9.6,3.1
		c2.3,4.2,2.6,14.7,7,12.9c5.7-0.4,3.2,9,6,11.7c5.3-6.9,13.3,7.9,6.2,10.6c-2.8,9.9-10.7,3.4-11-1.6c-3.8,1.1-10.8,0.5-12.7,3.1
		c-0.4,2.2-4.8,1-4.1,3.9C626.9,1890.3,625.5,1889.8,623.9,1889.9L623.9,1889.9z"/>
	<path id="Preseli_x5F_Pembrokeshire" name="Preseli_x5F_Pembrokeshire"  pointer-events="all" d="M120.1,1548.4c0.3,4.6-6.5,7.3-5.5,8.6c3.2,5.2-3.7,6.8-4.6,12.9
		c-0.6,1.4-4.7,5.1-7.4,8.6c-2.1,1.9-5.2,7.3-11.3,5.9c-7.1,1.5-10.9,4-13,11.4c4.3,0.2,1.9,7.5-1.2,9c-4.5-1.4-8.5,1.8-12,0.8
		c-2.6-1.8-3.1-1.5-3.8-6.3c-3.2-3.8-8.8-0.7-7.9,3.5c4.2,2.3-0.3,3.5-1.4,8.2c0.2,0.5-3.2,0-4.1,1.2c-2.4,1.5-6.1,3.2-9.4,4.7
		c-1.4,0.1-5.3,0.6-5.3,2.3c-2-2.7-5.3-1.1-6-4.7c-2.7-0.7,7.5-7.4,2.7-6.3c-3.3,0.5-1-8-5.1-4.7c-1-0.4-6.1-0.1-7.9,1.2
		c-1,1.1-4-3.8-6.2-2.3c-2.6-2.3-6.2,1.4-8.4-1.6c1.5-1.8-8-2.6-4.5,1.6c-4.7,0.6-9,8.4-2.2,9c-3.6,3.4,5.4,2-0.7,5.9
		c-3.2,3.6-7.6,3.3-3.1,6.3c-0.4,2.1,4.9,2.2,1.4,3.9c-2.3,1.8,2.9,9.9-2.7,8.2c-4.4-0.6-3.9-0.3-4.8,3.5c-4.6,1.2-8.4,2.9-11.8-0.8
		c-0.2,0.6-5.6,2.6-1.4,3.1c-1,3.2-2.7,2.3-5,5.1c1.2,2.8-7.2,0.9-7.4-0.4c-3,2.1-3-0.3-6.5,1.2c0,0.8-2.2,1.1-1.4,2
		c-2.9,0.1,0.3,4-3.1,3.9c-4.5-0.4,2.8,3.1-2.2,4.3c-3.9,0.5-8.1,0.5-11,5.9c-4.6,1.1-4.6,5.3-10.1,4.7c-2.8,2.9-5.6-1.4-7.9,0.8
		c-2.2,1.8-11,6-3.8,6.7c4.9,1.2,0,10.2-4.1,9.4c0.5,3.7,5.2,6.9,0.7,9.4c-4,2.5-1,7.5,1.9,4.7c2.1-4.6,3.7,0.6,5.7-0.4
		c4.8-3.8,7.9-5.1,12.5-5.1c2.2,1.9,3.3-1.9,6.5,0c5.7-3.3,8.3-0.7,11.5,2c3.5-0.2,5.1-1.2,10.1,0.4c-2.3,6.8,7.5-3,7.4,4.3
		c2.7-4.7,10.4-2.3,12,5.5c3.5,3.8,2.9,13.6,4.6,14.9c3.7,8.2,2.1,16.2,2.7,23.1c-1.4,9.1-6.3,12.1-11.5,7
		c-3.6,2.6-8.7-1.1-11.7,3.5c-2.8,0.3-4.3,9.4-9.6,6.3c-4.8,0.9-0.1,6.8-4.3,12.1c-4.5,1.3-9.8-3-12.9-0.4c-3.8-3.7-3.5,2.5,0,3.1
		c-1.2,2.8,9.3,3.4,3.8,8.2c2.1-3.3,10.2-4.5,11.3,2c-0.3,2.7,6.8,2.8,5.5,5.1c-2.2,3.6,0.9,6.4-0.2,9c3.2,0.3,3,7.9,7,4.7
		c-3.3-5.9,8.2-1.2,3.4-6.3c4-1.5-1.1-7,3.6-6.2c-3.8,0.3-9.9-4.4-3.8-7.1c2.9,2.3,9.2,2,10.3-0.4c4.3-2,5.8,7,7.7-0.4
		c1.4,1.4,4-6.1,5.7,0c2.9,2.7,2.2,7.5,7.5,5.9c4.5-1.7,10.8-0.1,14.6-1.9c7.6,2.8,15.8,9.6,24.2,3.1c5.5,0.3,7.7-0.7,12.2-2.3
		c3.9,5.1,8.6-3.9,13.2-1.2c2.5-6.4,4.6-14.9-2.2-16.4c-0.6-3.5,0.3-8.3,1.2-12.9c2.5-5-9-5.7-3.3-8.2c-2.2-4.2,0.7-8.7,0.2-11.7
		c-0.2-3,11.4,3.2,7-2.8c-4.1-0.3-6.7-3.1-5.5-5.9c4.3-5.2,12.8-2.6,18.2-0.8c0.9,3.1,4,2.3,8.2,2.3c1.6-1.9-1-4.5-1.4-7.8
		c-2.2-8.2,2.9-15.1,7.4-14.1c4.1-0.4,11.1-3.1,11.3,5.5c2.4,3.9,10.4-2.3,14.2-1.2c-2,11.8,8-2.2,11.3,3.9
		c4.9,3.5,13.9-8.5,5.5-5.5c-5.2,1.6-5.9-8-1.9-7.8c0.5-2.8,2.8-3.9,0.9-8.3c-0.7-5-3-10.5-4.1-12.9c-3.6,0.9-3.3-3.2-4.8-4.7
		c4,0.3,3.8-8.4,1.9-9.8c4.8-7.2,11.3-3.8,16.3-10.6c2.9-0.8,8,7.8,12.7,7.1c3.1-1.4,2.8-6.5,7.2-7.1c3.5-2,5.8-9.5,8.7-1.5
		c5.4,5.2,10.5-4.7,13.2-9.4c4.9-5.1,12.3-2.9,19.9-6.6c6.1-0.2,6.4-17.1,1.7-18.4c-7.4,3.2-7.7-10.9-12.5-12.1
		c-3.7-3.6-6.9-2.1-7.7-10.5c1.5-5.1-5-6.9-5.5-15.3c-5.5,0.9-9.7-5.6-15.4-1.9c-1.1,6.2-12.8,2.4-11.3-3.9c3.1-3.6-5.2-9.2-4.1-2.3
		c-1.4,5.9-5.5,10.6-8.9,4.7c-5.6-3.8,2.9-4.4,2.2-8.2c0.5-4-6.1-2.6-3.6-11.4c-1.7-5-5.2-4.6-3.1-11.4
		C132.3,1559.1,125.2,1552,120.1,1548.4L120.1,1548.4z M0.8,1789.4C0.6,1790,1.7,1790.9,0.8,1789.4z M1,1790.2
		C1.3,1793.1,1.5,1790.4,1,1790.2z M1.3,1791.4C1,1792.1,2.1,1791.8,1.3,1791.4z M-14.8,1784.3
		C-14.9,1785.5-14.1,1784.1-14.8,1784.3z M-59.9,1771.4C-59.7,1772.7-59.5,1770.8-59.9,1771.4z M-41,1758.1
		C-40.7,1757.4-41.8,1757.8-41,1758.1z M-39.3,1698.2C-40.1,1698.7-38.9,1699-39.3,1698.2z M-66.6,1694.7
		C-66.8,1696-65.9,1694.5-66.6,1694.7z M-83,1699.8C-84.4,1701.5-81.5,1700.7-83,1699.8z M-32.3,1645.5
		C-32.2,1644.2-33.1,1645.7-32.3,1645.5z M-6.9,1632.5C-7.4,1631.4-7.7,1633-6.9,1632.5z M-7.8,1629.8
		C-7.5,1628.7-8.5,1630.3-7.8,1629.8z M-8.8,1624.7C-9.7,1624.7-8.8,1625.7-8.8,1624.7z M-3.3,1600.1
		C-3.1,1598.8-4,1600.3-3.3,1600.1z M22.2,1602.8C21.9,1601.5,21.7,1603.4,22.2,1602.8z M32,1609.5C35,1611.4,34.7,1609.4,32,1609.5
		z M54.6,1606.4C55.3,1606.8,54.3,1605.2,54.6,1606.4z M62,1602.4C61.9,1603.7,62.8,1602.2,62,1602.4z M104.5,1576.3
		C104.3,1574.9,104.1,1576.7,104.5,1576.3z M104.3,1576.3C103.8,1575.7,104,1577.5,104.3,1576.3z M107.4,1572.7
		C108,1572.3,107.1,1573.7,107.4,1572.7z M30.3,1614.6C29,1614.8,30.7,1615.5,30.3,1614.6z M29.1,1615.3
		C29.1,1616.5,30.1,1614.8,29.1,1615.3z M-5.9,1626.7C-5.6,1627.4-6.7,1627.1-5.9,1626.7z M-47.2,1646.6
		C-47.2,1648.1-46.5,1646.6-47.2,1646.6z M-115.4,1674C-115.5,1675.3-114.6,1673.8-115.4,1674z M-115.1,1674.4
		C-114.8,1676-114.2,1673-115.1,1674.4z M-116.1,1674.4C-117.8,1676.5-113.8,1675.2-116.1,1674.4z M-116.5,1675.6
		C-117.8,1675.3-116.5,1676.8-116.5,1675.6z M-117.5,1675.6C-120.2,1678.1-116.7,1677.2-117.5,1675.6z M-113.9,1686.5
		C-116.6,1688.8-113.6,1688.4-113.9,1686.5z M-117,1688.1C-118.8,1689.9-114.9,1688.2-117,1688.1z M-117.5,1688.9
		C-118,1687.8-119.3,1690.2-117.5,1688.9z M-98.5,1688.5c-2.8,2.3-3.8,2-1.7,6.3c-4.5,0.8-2.7,4.1-1.7,6.7c3.5-1,2.5,3.2,5.3,1.9
		c1,1.6-0.2-5.7,0.7-6.6c-2.8-2.7,3.1-9.4-1.7-7.4C-98.1,1689.3-97.9,1688.1-98.5,1688.5z M-120.4,1697.9
		C-119.4,1699.3-117.5,1698.1-120.4,1697.9z M-84.4,1698.7C-84.4,1699.9-83.3,1698.4-84.4,1698.7z M-84.4,1699.1
		C-86.2,1700-84.6,1701.7-84.4,1699.1z M-49.6,1700.2C-49.7,1701.3-48.9,1700-49.6,1700.2z M-49.4,1700.6
		C-48.9,1702.2-48.2,1698.9-49.4,1700.6z M-49.6,1700.6C-50.3,1700.4-49.4,1701.8-49.6,1700.6z M-125,1703.7
		C-126.6,1705.5-122.8,1704.2-125,1703.7z M-98.3,1704.9c-2.6,4.4,1.9,0.9,0.5,0.4C-98.4,1705.8-97.8,1704.4-98.3,1704.9z
		 M-95.4,1706.1C-95.6,1707.3-94.7,1705.9-95.4,1706.1z M-85.4,1766.3c0.2,2.4-7.7,6.2-1.2,8.3c1.2,0.4,3.5,0.3,3.3,1.9
		c3.1,2.9,4.9-8.5,6-1.6c1.3-2,6.3-0.8,1.2-4.3c-1.3,1.1-5.1-3.3-8.7-3.9C-84.4,1765.9-85.2,1766.5-85.4,1766.3z M-81.5,1777.3
		C-82.6,1776.8-82.3,1778.5-81.5,1777.3z M-86.5,1774.9C-87.4,1774.4-87.1,1776.2-86.5,1774.9z M-89.2,1773
		C-89.4,1771.7-89.6,1773.5-89.2,1773z M-89.2,1771.4C-89.8,1771-88.9,1772.5-89.2,1771.4z M-89.4,1771.4
		C-90.4,1771.3-89.4,1772.5-89.4,1771.4z M-86.8,1768.7C-86,1768.3-87.1,1767.9-86.8,1768.7z M-71.9,1771.8
		C-75,1775.6-67.8,1773-71.9,1771.8z M-148.7,1774.1C-152.6,1776.8-146.1,1776.4-148.7,1774.1z M-76,1791.4
		c-2.6,3.1-7.6,6.4-0.7,6.3c2.7-1.1,4.4-4.1,4.6-5.5C-73.5,1793.1-74.1,1791.5-76,1791.4L-76,1791.4z M-9.8,1791.8
		C-10.2,1792.8-8,1791.5-9.8,1791.8z M1.5,1792.1C1.4,1794.2,2.3,1793.1,1.5,1792.1z M3.5,1792.5C2.7,1793.7,4.2,1793.4,3.5,1792.5z
		 M2.2,1792.9C1.5,1793.8,3.2,1793,2.2,1792.9z M1.5,1793.3C1.2,1794,2.3,1793.7,1.5,1793.3z"/>
	<path id="Rhondda" name="Rhondda" pointer-events="all" d="M581.2,1851.2c-3.4,0-6.6-2.1-8.6-1.6c-3-1.5-6.1-3-9.1-5.1c-4.4-2.6-9.6-14.1-13.7-17.6
		c-3.2-3.4-11.1,2.9-9.8-7c-3.7-3.3-7.9-11.7-8.6-16c3.8-4.8-0.9-14.4,3.4-18.4c10.6,1.3,15.1,0.7,22.3,6.6
		c6.7,1.5,11.8,13.5,19.2,14.5c13-0.9,17.4,21,27.1,30.1c5.6,2.7,1.1,6.5,3.6,12.5c1.7,7.2-12.6,2.6-15.1,4.3
		c-2.2,3.8-3.3-1.1-2.6-3.5C585.1,1848.8,583.3,1847.4,581.2,1851.2L581.2,1851.2z"/>
	<path id="Swansea_x5F_East" name="Swansea_x5F_East"  pointer-events="all" d="M438.1,1801.1c0.4,9.8-6.8,8.2-7,13.7c-2.5,3.4-2.9,4.8-3.8,10.6
		c-3.7,6.3-5.2,13.5-3.4,18.8c-1.8,2.7-9.5,0.7-10.6,3.1c-4.3,0.1-3.2,1.6-5.5-5.1c-3.4-5.1-3.2-16-9.1-9.4c-6.6,0.9,2.2-6.5-4.3-7
		c-3.4-2.1-8.9-4-10.1-5.1c6.8-3.5,12.5-3.1,16.6-9c0.7-4,2.5-8,4.6-10.6c2.8-1.8,6.7-2.1,9.6-3.9c5.1-3,2,7.3,4.8,0.8
		c4.3-1.7,8.2,4.9,12.2,1.6C434.1,1800.7,436.1,1800.2,438.1,1801.1z"/>
	<path id="Swansea_x5F_West" name="Swansea_x5F_West" pointer-events="all" d="M383.6,1821.5c4.4-0.4,11.9,5.2,13.2,6.6c-4.3,11.2,7.7-2.1,7.4,5.1
		c0.3,4.5,6.9,11.8,4.3,13.7c-5.1-1.5-6.8,1-10.3,1.2c4.3,1.4-5.8,3.1-4.6,5.5c-3.2,11.1-14.5-1.2-19.4,5.9c-2.3,1-2.7-5-3.6-5.5
		c3.9-4.1,3.4-6.6,2.6-10.6c-0.7-6.1-10.9,0-7.2-7.8c-1.6-3.2,3.5-0.9,5.5-3.5c2.4,0,1.6-9.3-1.2-10.2
		C374.3,1822.3,380.5,1823.8,383.6,1821.5z"/>
	<path id="Torfaen" name="Torfaen"  pointer-events="all" d="M715.3,1817.6c4.1-6.2-1.8-21.5-7-15.3c-3.7,3.6-8.3-0.6-7.4-3.5c0.3-4.5,4.6-10.3,2.6-16.4
		c1.3-1.7-2.2-9.3,1-12.9c-2.4-2.7-0.8-6-3.1-10.2c8.2-2.3-18.7-16.8-5.5-20.3c8.5-4.1,17.8,3.1,26.2,6.3c7.8,6.7,2.6,7.5,2.6,12.1
		c2.7,4,10.7,7.7,6.7,19.2c-2.1,11.1,11.2,1.5,11.8,6.3c6.1-1.6,7,4.6,2.2,8.6c-2.8,3.6-4.2,10.3,1.4,6.6c4.1-0.8,9.9-2.7,4.8,5.1
		c-1.1,5.3-2.4,6.8-5,3.9c-1.8-5.4-7.2,4.7-4.1,5.5c-1.1,2.1-7.4-3.3-4.8,3.1c0.4,4.1,1.3,9,1.7,11.3c1.7,3.8,9.6,7.5,11.3,9
		c-5.1-2.4-5.6,3.7-9.4,4.3c-4.4-0.2-7.6,4.5-11.3-0.8c-2.7-2.9-7.6,2.8-3.1,5.1c-0.7,5.3-1.6,2.3-5.3,1.6c-1.9-5.6-7.5-2.6-9.8-8.2
		c-2-3.8-9.5-4.6-2.6-8.2C712.3,1825.2,717.7,1820.1,715.3,1817.6L715.3,1817.6L715.3,1817.6L715.3,1817.6z"/>
	<path id="Vale_x5F_of_x5F_Clwyd" name="Vale_x5F_of_x5F_Clwyd" pointer-events="all" d="M552.6,887.8c-3.3-4.9,1.8-5.8,3.8-7.4c-0.9-4.4-4.7-7.6-1.7-13.3
		c3.2-4.8,7.7-5.9,6-11c6.8,1.3,0.2-6.2-1.4-9c7.3-2.1-7.8-7.9,2.6-9.8c7.9-6.7,17.1-3.1,23.5-5.1c5.7-1.6,13.4-7.7,16.6-6.6
		c3.4-1.9,11.3-6.4,10.6,2.7c-4.1,1.2-0.1,7.7-5,8.6c-0.3,6.1-6,3.5-7.2,4.3c-1.1,3-2.4,10.3,1.2,7.4c0.7-2.9,7.5-2.3,1.9,0.8
		c-0.9,1.7-4.6,6.3,1,5.9c2.9,2.5,2.7,7.2,8.2,3.5c3.7-6.2,0.5,5.3,2.6,7c3.4,1.5,7.1,2.8,8.6,5.9c-3.7,3.9-7.8,8.5-11,11.3
		c5,0,8.5,5.4,9.8,9.4c4.3,0,14.6,1.4,7.7,7c-5,1.7-2.5,8.8,1.2,11c4.2-2.6-3.4,5.5,1.7,5.9c2.1,2,10.9,5.7,8.2,9.4
		c-3.4,2.6-7.5,1.2-9.8,3.9c5.2,3.3-3.1,4.7-4.3,6.6c3.1,4.8-8.3,3.1-1.9,9c1.3,3.8,6.3,7.4,5.3,11c-1.9,1.6-8.4,0.2-5.3,7
		c-4,4.6-7.2,0.4-8.4-3.5c-4,6.1-8.8-0.3-12.7,3.1c-4.4-5.8-0.7-5,1.9-9c3.8-2,5-6.8,8.2-10.6c2.8-6.5-1.1-9.5-3.1-11.3
		c1.9-5.9,2-9.2-2.6-3.1c-6.8-4.1-10.6,10.9-15.4,4.7c-2.1,1.6-5.1,8.3-8.4,3.5c-6-1.5-13-3.2-11.8-11.3c-0.3-4.4,1.8-10.7,1-14.9
		c3.3-6.1,0.1-10.7-5-13.3c-3.6-2.5-7.6-8.9-11.5-6.3C555,890,553.2,892.3,552.6,887.8L552.6,887.8z"/>
	<path id="Vale_x5F_of_x5F_Glamorgan" name="Vale_x5F_of_x5F_Glamorgan" pointer-events="all" d="M557.9,1970.5c-5.9-1.1-10.8,2.8-16.1-0.8c-2.8-3.5-4.7-8.1-8.6-13.3
		c-3.4-8.5-6.2-8.5-10.8-14.5c-3.5-4.4-13.5-8.4-12.2-12.9c6.2-1,11.9-7.9,18.2-9c6.5,3.8,14.4-12.4,22.3,1.2c3.2-1.5-4.8-7,2.2-6.6
		c1.7-1.2-1-4.6,0.7-4.3c5.4-0.5,8.6-8.7,14.9-7.4c9.9-3.7,17.8,7.3,25.9,3.9c0.9,0.7,4.4,8.8,5.5,0c3.8-1.9,7.3-3.5,10.1-2
		c5.6-2,13.7,3,20.9,2c4.1,3.8,7.4,8.5,10.6,15.6c0,8.1,7,10.2,12.2,9c2.7-4.7,11.4-9.2,14.9-0.4c4.3,5.2-3.5,3.4,0,7
		c-2.9,2.8-0.6,4.8,2.2,5.1c-2.1,4.1,2.6,6.8,0.5,12.1c3.9,6.9-7.2,3.2-10.6,7.8c-2.4-6.4-2.9,4-3.8,4.7c-0.5,3.4,0.5,4.5-3.4,4.3
		c-0.8,1.9-5.2,2.1-7,5.1c-4.4-1-7.1,2.8-11.5-2c-5.6-3.7-12.3,9.8-20.9,3.9c-5.3,0.2-14.6,4.4-19.7,1.2c-3-4.3-8.5-2.4-14.9-3.9
		c-5.7-3-13.5-3.1-19.2-4.3C560.1,1970.4,558.4,1971.4,557.9,1970.5z"/>
	<path id="Wrexham" name="Wrexham"  pointer-events="all" d="M751.8,1010.7c-3.5,2-5.1,6.6-10.6,1.2c-1.4-2.8-5.6-1.7-9.4-4.7c0.4-5.2,9.8-4.8,3.8-9
		c-4.6-1.9-5-16.4-8.2-17.6c2.8-0.1,1.1-10,5-4.3c0.2-1.1-0.5-7.6,3.6-7.8c4.1-1.9,4.6-7.7,6-10.2c4-4.8,10-6.2,15.4-3.5
		c5,2.4,6.1,6.7,11.5,6.6c4.7,4.3,10.1,6.3,13.4,0c5.4-4,1.3,6.9-1.2,8.2c3.7-2.5,0.2,8.1-1.7,5.1c3.7-4-5.3,5.1,0.7,3.1
		c2.7,3.5,9.4,5.5,5.3,10.2c2.9,0.8,0,3.9,4.1,2.7c2.6,3.1-2,3.1,2.4,4.3c1.2,0.6-6.5,3.5-1.2,2.3c4.8-0.2-4.1,2.1,2.4,2
		c-0.8,1.1-5,3.7-1.2,2c-1.1,3.5-3.1,4-1.2,3.9c4.2,1.1-2.4,2.4,1.7,3.9c-2.3,0.1-2,2.7-3.6,3.1c3.9,1.6-1.9,3.1,2.4,3.9
		c-1.6,2.9-5.6-0.9-2.6,3.1c-4,2.7-8.5-1.8-9.6-3.5c-3.7-4.2-6-5.2-7.9-3.9c-0.4,4.7-8.9,1.4-11.5,2.7
		C755.7,1010.9,755.3,1013.4,751.8,1010.7L751.8,1010.7z"/>
	<path id="Ynys_x5F_Mon" name="Ynys_x5F_Mon"  pointer-events="all" d="M225.2,776C225.4,777.7,227,776.2,225.2,776z M229.3,779.5c-2,2.1-7,2.1-8.2,5.1
		c3-0.6-2.6,1.9,0.2,4.3c-3.3-3.1-5.9,0.2-8.2-2.4c-0.9-0.5,0.7-4.1-2.7-1.9c-2.7,0.1-3.3,8-6,3.9c-0.3-0.2-6.7,6.2-5.5,0
		c1.2-3-8.1,2.2-7.2,4.3c-4.9,0-8.1,2-12.5,0.4c-2.6,1.8-4.4,2.2-1.4,6.7c-2,0.3,2.6,4.2,1.4,7c2.4,3.5,4.3,6.4,1.7,12.5
		c-2.2,4.5-4.7,4.6-1.9,6.7c-2.3,2.8-1.2,4.5-1.7,6.7c-0.2,3.7-7.4,3.3-3.8,6.6c-1.1,3.9,5.7,4.8,5.5,10.5c-0.2,7-8.4,2.8-10.8,2.3
		c-6.4,3.2-6.1-8.7-12.2-1.2c0.7-5.8,6.7-2.3,2.2-7c0,5.5-6.4,0.1-7.9-0.4c3.4-4.6-2,0.2-2.9-0.8c-3.3,4-8.6-2.3-9.3,0
		c1.8,7.7-7.9,6.8-5.8,9c2.3,3.3,4,4.1,6.7,4.7c0.1,4-4.5,5.8-2.4,8.6c2.3,0.7,5.5,0,6.9,0.8c2.9-3.5,5.7-0.6,9.1-0.8
		c1,3.3,5.1,1.3,8.2,3.9c-2.1,1.4-1.4,2.8-2.4,4.7c1.5,1.6,2,3.5,3.6,5.9c3.5,2-1.8,9.5,3.3,8.6c3.3,4.3,4.5,0.7,6.2,1.6
		c3.2,2,7.9-4,12.5-1.6c1.2,0.4,5.2,4,5.1,6.3c3.7-2.5,5.3,3.7,3.3,5.1c2.1,2.4,3.8,1.9,7.9,5c1.2,3.1,1.4,6,2.4,6.7
		c-0.9,4.2-3.2,6.1-0.5,11c3.8,1.2,4.5-0.6,5,4.3c0.5,2.6,5.2-2.7,7.4-0.8c4.1,2.2,5.8,8.5,5.3,9.8c3.6,0.5,2.8,4.7,4.6,4.3
		c5.2-4,8-0.5,10.6,8.6c-2.9,3.1-1.4,6.8,1.7,1.2c4.5-4.4,8.7,0.6,12.2,2.4c-1.9-1.6-8.5-2.5-4.1,0.8c3,1.4,4.1,1,3.6,2.3
		c5.5-0.6,11.6,2.3,16.8,1.6c-3.5-4.3,3.8-8.1-0.2-4.3c4.3-0.8,7.5-5.1,4.3-4.3c3.1-0.8,9.2-5.7,9.1-5.5c-6.5,4.1,8.4,2.6,3.1-0.8
		c-2.6,2.3,3-7.3,5.3-7.4c4.5-5.2,10.1-9.6,15.8-9.8c5.7-3.4,0.4-16.2,7.4-18.4c3.4-0.5,9.3-5.5,10.6-5.1c5.3,3.6,6.5-7.7,12.7-10.5
		c3.9-3.8,10.4-5.6,14.2-9.4c1.7-3.1,6.6-3,5.5-9.4c5.1-9,11.4-15.5,15.4-22.7c-6-3.6-15,0.7-19.9-3.5c-6.9-3.4-13.7,0-18.5,5.5
		c-9.9,1.2-16.6-2.7-23.3-6.2c-5.2-4.1-3.1-11.8-6.7-13.7c2.7-3-5-5.2,0.2-8.2c-1.8-2.9-8.2-1.3-11.3-5.5c-0.7-3.8-3-3.2-4.6-9
		c4.2-7-0.6-12.9-3.8-16.8c0.5-2.7-3-7.4-2.9-1.5c-4.5-1.3-9.8-3.8-13.2-2.8c-2,0.5-3.4-2.9-6.5-0.8c-3.6,4.8-7.7-1.1-8.2-3.9
		c-4.7-0.6-9.1-0.5-12.2,1.2c-0.1-5.6-5.5,0.3-7.7-4.3C229.9,779.5,229.6,779.5,229.3,779.5L229.3,779.5z M240.1,782.6
		C240.2,781.4,239.3,782.9,240.1,782.6z M243.7,782.2C244,783.6,244.2,781.7,243.7,782.2z M336.8,888.6
		C336,889,337.1,889.3,336.8,888.6z M321,901.1C320.2,900.9,321.1,902.4,321,901.1z M282.6,939.5
		C281.9,939.9,282.9,940.1,282.6,939.5z M248.3,953.9C247.4,954.4,248.6,954.7,248.3,953.9z M234.3,953.2
		C233.6,953.6,234.6,953.8,234.3,953.2z M231,939.8C231.4,941,231.6,939.6,231,939.8z M231.5,940.2
		C231.3,941.5,232.2,940,231.5,940.2z M227.9,938.7C226.9,938.2,227.9,939.8,227.9,938.7z M227.1,938.3
		C226.3,938.7,227.4,939,227.1,938.3z M219.5,936C218.8,935.8,219.6,937.1,219.5,936z M201.2,921.5
		C200.2,920.2,199.9,922.7,201.2,921.5z M188.5,894.9C187.7,895.3,188.9,895.6,188.5,894.9z M188.3,895.3
		C187.2,893.6,187.6,900.3,188.3,895.3z M169.5,891C168.9,890.5,169.8,892,169.5,891z M138.6,865.9
		C138.3,867,139.3,865.5,138.6,865.9z M135.9,862.4C135.2,862.2,136.1,863.6,135.9,862.4z M136.9,855.8
		C136.2,856.2,137.2,856.4,136.9,855.8z M152,840.9C159.1,841.5,157.5,839.6,152,840.9z M157,840.5
		C159.1,839.7,158.2,838.9,157,840.5z M158.5,839.3C161.1,837.6,159,838.2,158.5,839.3z M159.7,838.2
		C160.9,837.8,159.7,837.4,159.7,838.2z M160.2,837.8C160.9,838,160.1,836.6,160.2,837.8z M173.1,841.3
		C172.2,840.8,173.2,842.5,173.1,841.3z M220.7,785.8C220.8,784.5,219.9,786,220.7,785.8z M223.3,783
		C223.6,782.3,222.5,782.7,223.3,783z M165,782.6c-1.7,2.6-2.7,3.6,0.2,1.5C163.9,785.3,168.6,782.3,165,782.6z M210.1,785.8
		C210.8,785.6,210,787,210.1,785.8z M183.5,786.5C183.3,787.8,184.2,786.3,183.5,786.5z M291.5,803
		C290.2,807.1,293.4,806.6,291.5,803z M293.9,819.4C293.1,819.8,294.2,820.1,293.9,819.4z M301.3,821.4
		C300.2,824.5,303.3,820.8,301.3,821.4z M375,842.9c-3.6,0.5-5.8,8.3-1,2.8C374.2,844.6,378,842.5,375,842.9z M317.9,903.1
		C317.9,904.3,319.6,902.7,317.9,903.1z M205.8,922.3C206.4,921.8,205.5,923.4,205.8,922.3z M280,941.4
		C280.7,941.2,279.8,942.6,280,941.4z M272.5,946.5C272.5,947.3,271.2,946.8,272.5,946.5z M268.9,948.4
		C269.2,949.2,268.1,948.9,268.9,948.4z M247.3,953.2C248.7,953.3,247,954,247.3,953.2z"/>
</g>
</svg>
